%TF.GenerationSoftware,KiCad,Pcbnew,7.0.7*%
%TF.CreationDate,2025-03-26T12:31:57-04:00*%
%TF.ProjectId,stm_business_card2,73746d5f-6275-4736-996e-6573735f6361,rev?*%
%TF.SameCoordinates,Original*%
%TF.FileFunction,Profile,NP*%
%FSLAX46Y46*%
G04 Gerber Fmt 4.6, Leading zero omitted, Abs format (unit mm)*
G04 Created by KiCad (PCBNEW 7.0.7) date 2025-03-26 12:31:57*
%MOMM*%
%LPD*%
G01*
G04 APERTURE LIST*
%TA.AperFunction,Profile*%
%ADD10C,0.200000*%
%TD*%
%TA.AperFunction,Profile*%
%ADD11C,0.050000*%
%TD*%
G04 APERTURE END LIST*
D10*
X24500000Y-18800000D02*
G75*
G03*
X23000000Y-20300000I0J-1500000D01*
G01*
D11*
X102371600Y-42249400D02*
X102271595Y-42249400D01*
D10*
X111750000Y-20300000D02*
X111750000Y-67300000D01*
X24500000Y-18800000D02*
X110250000Y-18800000D01*
X23000000Y-20300000D02*
X23000000Y-67300000D01*
X23000000Y-67300000D02*
G75*
G03*
X24500000Y-68800000I1500000J0D01*
G01*
X110250000Y-68800000D02*
G75*
G03*
X111750000Y-67300000I0J1500000D01*
G01*
X110250000Y-68800000D02*
X24500000Y-68800000D01*
X111750000Y-20300000D02*
G75*
G03*
X110250000Y-18800000I-1500000J0D01*
G01*
D11*
%TO.C,J1*%
X75972400Y-28626400D02*
X75972400Y-26126400D01*
X76022400Y-41026400D02*
X76022400Y-38526400D01*
X78422400Y-23676400D02*
X101972400Y-23676400D01*
X78422400Y-31076400D02*
X92835446Y-31093988D01*
X78472400Y-36076400D02*
X92835446Y-36093988D01*
X85209449Y-28626395D02*
X85209449Y-26126395D01*
X85222401Y-41026400D02*
X85222401Y-38526400D01*
X86459449Y-24876395D02*
X102172400Y-24876398D01*
X86472400Y-37276397D02*
X101972400Y-37276400D01*
X94085446Y-32326400D02*
X94085446Y-34826400D01*
X101922395Y-42276400D02*
X86472400Y-42276403D01*
X101972400Y-23676400D02*
X107372400Y-23676400D01*
X101972400Y-29876398D02*
X86459449Y-29876401D01*
X101972400Y-29876400D02*
X105514988Y-29883812D01*
X101972400Y-37276400D02*
X105522400Y-37276400D01*
X102022400Y-43476400D02*
X78472400Y-43476400D01*
X107322400Y-24876400D02*
X101922400Y-24876400D01*
X107422400Y-42276400D02*
X101922395Y-42276400D01*
X107422400Y-43476400D02*
X102022400Y-43476400D01*
X107964988Y-32333812D02*
X107972400Y-34826400D01*
X78422400Y-23676400D02*
G75*
G03*
X75972400Y-26126400I-1J-2449999D01*
G01*
X78472400Y-36076400D02*
G75*
G03*
X76022400Y-38526400I-1J-2449999D01*
G01*
X75972400Y-28626400D02*
G75*
G03*
X78422400Y-31076400I2449999J-1D01*
G01*
X76022400Y-41026400D02*
G75*
G03*
X78472400Y-43476400I2449999J-1D01*
G01*
X86459449Y-24876395D02*
G75*
G03*
X85209449Y-26126395I2J-1250002D01*
G01*
X86472398Y-37276397D02*
G75*
G03*
X85222398Y-38526397I2J-1250002D01*
G01*
X85209449Y-28626401D02*
G75*
G03*
X86459449Y-29876401I1250002J2D01*
G01*
X85222398Y-41026403D02*
G75*
G03*
X86472398Y-42276403I1250002J2D01*
G01*
X94085446Y-32343988D02*
G75*
G03*
X92835446Y-31093988I-1249998J2D01*
G01*
X92835446Y-36093988D02*
G75*
G03*
X94085446Y-34843988I-2J1250002D01*
G01*
X107964988Y-32333812D02*
G75*
G03*
X105514988Y-29883812I-2449998J2D01*
G01*
X107372400Y-24876400D02*
G75*
G03*
X107372400Y-23676400I0J600000D01*
G01*
X107422400Y-43476400D02*
G75*
G03*
X107422400Y-42276400I0J600000D01*
G01*
X105522400Y-37276400D02*
G75*
G03*
X107972400Y-34826400I0J2450000D01*
G01*
%TD*%
M02*
