%TF.GenerationSoftware,KiCad,Pcbnew,7.0.7*%
%TF.CreationDate,2025-03-26T12:31:57-04:00*%
%TF.ProjectId,stm_business_card2,73746d5f-6275-4736-996e-6573735f6361,rev?*%
%TF.SameCoordinates,Original*%
%TF.FileFunction,Copper,L1,Top*%
%TF.FilePolarity,Positive*%
%FSLAX46Y46*%
G04 Gerber Fmt 4.6, Leading zero omitted, Abs format (unit mm)*
G04 Created by KiCad (PCBNEW 7.0.7) date 2025-03-26 12:31:57*
%MOMM*%
%LPD*%
G01*
G04 APERTURE LIST*
G04 Aperture macros list*
%AMRoundRect*
0 Rectangle with rounded corners*
0 $1 Rounding radius*
0 $2 $3 $4 $5 $6 $7 $8 $9 X,Y pos of 4 corners*
0 Add a 4 corners polygon primitive as box body*
4,1,4,$2,$3,$4,$5,$6,$7,$8,$9,$2,$3,0*
0 Add four circle primitives for the rounded corners*
1,1,$1+$1,$2,$3*
1,1,$1+$1,$4,$5*
1,1,$1+$1,$6,$7*
1,1,$1+$1,$8,$9*
0 Add four rect primitives between the rounded corners*
20,1,$1+$1,$2,$3,$4,$5,0*
20,1,$1+$1,$4,$5,$6,$7,0*
20,1,$1+$1,$6,$7,$8,$9,0*
20,1,$1+$1,$8,$9,$2,$3,0*%
G04 Aperture macros list end*
%TA.AperFunction,NonConductor*%
%ADD10C,0.200000*%
%TD*%
%ADD11C,0.375000*%
%TA.AperFunction,NonConductor*%
%ADD12C,0.375000*%
%TD*%
%ADD13C,0.300000*%
%TA.AperFunction,NonConductor*%
%ADD14C,0.300000*%
%TD*%
%TA.AperFunction,EtchedComponent*%
%ADD15C,0.100000*%
%TD*%
%TA.AperFunction,EtchedComponent*%
%ADD16C,0.200000*%
%TD*%
%TA.AperFunction,EtchedComponent*%
%ADD17C,1.200000*%
%TD*%
%TA.AperFunction,SMDPad,CuDef*%
%ADD18RoundRect,0.243750X0.494975X0.150260X0.150260X0.494975X-0.494975X-0.150260X-0.150260X-0.494975X0*%
%TD*%
%TA.AperFunction,SMDPad,CuDef*%
%ADD19R,0.800000X0.900000*%
%TD*%
%TA.AperFunction,SMDPad,CuDef*%
%ADD20RoundRect,0.650000X-0.650000X-1.800000X0.650000X-1.800000X0.650000X1.800000X-0.650000X1.800000X0*%
%TD*%
%TA.AperFunction,SMDPad,CuDef*%
%ADD21RoundRect,0.612500X-0.612500X-1.837500X0.612500X-1.837500X0.612500X1.837500X-0.612500X1.837500X0*%
%TD*%
%TA.AperFunction,SMDPad,CuDef*%
%ADD22R,1.700000X1.000000*%
%TD*%
%TA.AperFunction,SMDPad,CuDef*%
%ADD23RoundRect,0.200000X-0.200000X-0.275000X0.200000X-0.275000X0.200000X0.275000X-0.200000X0.275000X0*%
%TD*%
%TA.AperFunction,ComponentPad*%
%ADD24R,1.700000X1.700000*%
%TD*%
%TA.AperFunction,ComponentPad*%
%ADD25O,1.700000X1.700000*%
%TD*%
%TA.AperFunction,SMDPad,CuDef*%
%ADD26RoundRect,0.225000X-0.225000X-0.250000X0.225000X-0.250000X0.225000X0.250000X-0.225000X0.250000X0*%
%TD*%
%TA.AperFunction,SMDPad,CuDef*%
%ADD27RoundRect,0.100000X-0.637500X-0.100000X0.637500X-0.100000X0.637500X0.100000X-0.637500X0.100000X0*%
%TD*%
%TA.AperFunction,SMDPad,CuDef*%
%ADD28RoundRect,0.200000X-0.275000X0.200000X-0.275000X-0.200000X0.275000X-0.200000X0.275000X0.200000X0*%
%TD*%
%TA.AperFunction,SMDPad,CuDef*%
%ADD29RoundRect,0.200000X0.275000X-0.200000X0.275000X0.200000X-0.275000X0.200000X-0.275000X-0.200000X0*%
%TD*%
%TA.AperFunction,SMDPad,CuDef*%
%ADD30RoundRect,0.225000X0.250000X-0.225000X0.250000X0.225000X-0.250000X0.225000X-0.250000X-0.225000X0*%
%TD*%
%TA.AperFunction,SMDPad,CuDef*%
%ADD31RoundRect,0.225000X0.225000X0.250000X-0.225000X0.250000X-0.225000X-0.250000X0.225000X-0.250000X0*%
%TD*%
%TA.AperFunction,SMDPad,CuDef*%
%ADD32RoundRect,0.225000X-0.250000X0.225000X-0.250000X-0.225000X0.250000X-0.225000X0.250000X0.225000X0*%
%TD*%
%TA.AperFunction,ViaPad*%
%ADD33C,0.800000*%
%TD*%
%TA.AperFunction,Conductor*%
%ADD34C,0.750000*%
%TD*%
%TA.AperFunction,Conductor*%
%ADD35C,0.400000*%
%TD*%
%TA.AperFunction,Conductor*%
%ADD36C,1.000000*%
%TD*%
G04 APERTURE END LIST*
D10*
X107086400Y-39776400D02*
X104800400Y-39776400D01*
X105943400Y-40919400D02*
X105943400Y-38633400D01*
X107086400Y-27432000D02*
X104800400Y-27432000D01*
X105943400Y-28575000D02*
X105943400Y-26289000D01*
X92329000Y-33578800D02*
X90043000Y-33578800D01*
D11*
D12*
G36*
X28018166Y-61946562D02*
G01*
X29303860Y-61946562D01*
X29303860Y-62196667D01*
X28288299Y-62196667D01*
X28288299Y-62790665D01*
X29233518Y-62790665D01*
X29233518Y-63040770D01*
X28288299Y-63040770D01*
X28288299Y-63697295D01*
X29354663Y-63697295D01*
X29354663Y-63947400D01*
X28018166Y-63947400D01*
X28018166Y-61946562D01*
G37*
G36*
X29682925Y-61821510D02*
G01*
X29935961Y-61821510D01*
X29935961Y-63947400D01*
X29682925Y-63947400D01*
X29682925Y-61821510D01*
G37*
G36*
X30967610Y-62572062D02*
G01*
X30989128Y-62572778D01*
X31010215Y-62573970D01*
X31030871Y-62575640D01*
X31051095Y-62577787D01*
X31070889Y-62580410D01*
X31090251Y-62583511D01*
X31118485Y-62589057D01*
X31145749Y-62595676D01*
X31172043Y-62603368D01*
X31197366Y-62612133D01*
X31221720Y-62621972D01*
X31245103Y-62632884D01*
X31267705Y-62644660D01*
X31289536Y-62657087D01*
X31310593Y-62670168D01*
X31330878Y-62683901D01*
X31350389Y-62698286D01*
X31369128Y-62713324D01*
X31387094Y-62729015D01*
X31404288Y-62745358D01*
X31420708Y-62762354D01*
X31436356Y-62780003D01*
X31446359Y-62792131D01*
X31460810Y-62810764D01*
X31474489Y-62829843D01*
X31487394Y-62849370D01*
X31499527Y-62869342D01*
X31510887Y-62889761D01*
X31521475Y-62910627D01*
X31531289Y-62931939D01*
X31540331Y-62953697D01*
X31548600Y-62975903D01*
X31556096Y-62998554D01*
X31560664Y-63013903D01*
X31566950Y-63037023D01*
X31572617Y-63060220D01*
X31577666Y-63083494D01*
X31582097Y-63106845D01*
X31585909Y-63130274D01*
X31589103Y-63153780D01*
X31591679Y-63177363D01*
X31593637Y-63201024D01*
X31594977Y-63224762D01*
X31595698Y-63248577D01*
X31595835Y-63264496D01*
X31595835Y-63353401D01*
X30526540Y-63353401D01*
X30527135Y-63375986D01*
X30528921Y-63398067D01*
X30531898Y-63419644D01*
X30536066Y-63440718D01*
X30541424Y-63461288D01*
X30547972Y-63481354D01*
X30555712Y-63500916D01*
X30564642Y-63519975D01*
X30574534Y-63538323D01*
X30585158Y-63556000D01*
X30596516Y-63573006D01*
X30608606Y-63589339D01*
X30621428Y-63605002D01*
X30634984Y-63619992D01*
X30649272Y-63634311D01*
X30664293Y-63647958D01*
X30680108Y-63660788D01*
X30696533Y-63672901D01*
X30713569Y-63684297D01*
X30731216Y-63694975D01*
X30749473Y-63704935D01*
X30768340Y-63714178D01*
X30787819Y-63722704D01*
X30807908Y-63730512D01*
X30828394Y-63737381D01*
X30849063Y-63743335D01*
X30869915Y-63748372D01*
X30890950Y-63752494D01*
X30912169Y-63755699D01*
X30933571Y-63757989D01*
X30955156Y-63759363D01*
X30976924Y-63759821D01*
X30998814Y-63759370D01*
X31020155Y-63758018D01*
X31040946Y-63755764D01*
X31061188Y-63752608D01*
X31080880Y-63748551D01*
X31100022Y-63743592D01*
X31124691Y-63735578D01*
X31148382Y-63725961D01*
X31171097Y-63714741D01*
X31182088Y-63708530D01*
X31203726Y-63695074D01*
X31224922Y-63680595D01*
X31245675Y-63665093D01*
X31260949Y-63652795D01*
X31275974Y-63639923D01*
X31290751Y-63626474D01*
X31305278Y-63612451D01*
X31319556Y-63597852D01*
X31333585Y-63582678D01*
X31342800Y-63572242D01*
X31533798Y-63713903D01*
X31520443Y-63730192D01*
X31506759Y-63745964D01*
X31492745Y-63761219D01*
X31478400Y-63775956D01*
X31463726Y-63790177D01*
X31448721Y-63803880D01*
X31433386Y-63817066D01*
X31417721Y-63829736D01*
X31401726Y-63841888D01*
X31385401Y-63853522D01*
X31368746Y-63864640D01*
X31351760Y-63875241D01*
X31334445Y-63885325D01*
X31316799Y-63894891D01*
X31298824Y-63903940D01*
X31280518Y-63912473D01*
X31261882Y-63920488D01*
X31242916Y-63927986D01*
X31223620Y-63934967D01*
X31203993Y-63941431D01*
X31184037Y-63947378D01*
X31163751Y-63952807D01*
X31143134Y-63957720D01*
X31122187Y-63962115D01*
X31100910Y-63965993D01*
X31079304Y-63969355D01*
X31057367Y-63972199D01*
X31035099Y-63974526D01*
X31012502Y-63976336D01*
X30989575Y-63977628D01*
X30966317Y-63978404D01*
X30942730Y-63978663D01*
X30923183Y-63978453D01*
X30894292Y-63977351D01*
X30865915Y-63975304D01*
X30838055Y-63972313D01*
X30810709Y-63968378D01*
X30783879Y-63963498D01*
X30757563Y-63957673D01*
X30731763Y-63950904D01*
X30706478Y-63943190D01*
X30681709Y-63934532D01*
X30657454Y-63924929D01*
X30633801Y-63914498D01*
X30610834Y-63903354D01*
X30588555Y-63891497D01*
X30566962Y-63878928D01*
X30546057Y-63865645D01*
X30525838Y-63851651D01*
X30506306Y-63836943D01*
X30487461Y-63821523D01*
X30469303Y-63805390D01*
X30451832Y-63788544D01*
X30440567Y-63776918D01*
X30424345Y-63758853D01*
X30408836Y-63740196D01*
X30394040Y-63720946D01*
X30379956Y-63701103D01*
X30366585Y-63680669D01*
X30353927Y-63659641D01*
X30341982Y-63638022D01*
X30330749Y-63615809D01*
X30320229Y-63593005D01*
X30310421Y-63569607D01*
X30304279Y-63553680D01*
X30295724Y-63529403D01*
X30288010Y-63504748D01*
X30281138Y-63479715D01*
X30275107Y-63454304D01*
X30269918Y-63428515D01*
X30265570Y-63402349D01*
X30262064Y-63375804D01*
X30259399Y-63348882D01*
X30257576Y-63321583D01*
X30256594Y-63293905D01*
X30256407Y-63275243D01*
X30256863Y-63247314D01*
X30258228Y-63219762D01*
X30260503Y-63192588D01*
X30263685Y-63165822D01*
X30526540Y-63165822D01*
X31325703Y-63165822D01*
X31324642Y-63145642D01*
X31322924Y-63125889D01*
X31319855Y-63101798D01*
X31315759Y-63078376D01*
X31310638Y-63055621D01*
X31304492Y-63033534D01*
X31298836Y-63016346D01*
X31290772Y-62995557D01*
X31281539Y-62975626D01*
X31271137Y-62956554D01*
X31259566Y-62938341D01*
X31246827Y-62920986D01*
X31232919Y-62904490D01*
X31227029Y-62898132D01*
X31211484Y-62882946D01*
X31194771Y-62868833D01*
X31176890Y-62855793D01*
X31157839Y-62843826D01*
X31137620Y-62832933D01*
X31116232Y-62823113D01*
X31107350Y-62819486D01*
X31084466Y-62811183D01*
X31065301Y-62805554D01*
X31045372Y-62800826D01*
X31024680Y-62796998D01*
X31003225Y-62794071D01*
X30981006Y-62792044D01*
X30958025Y-62790919D01*
X30940287Y-62790665D01*
X30917321Y-62791200D01*
X30894828Y-62792803D01*
X30872808Y-62795474D01*
X30851261Y-62799214D01*
X30830187Y-62804022D01*
X30809587Y-62809900D01*
X30789460Y-62816845D01*
X30769806Y-62824859D01*
X30750877Y-62833614D01*
X30732681Y-62843025D01*
X30715218Y-62853092D01*
X30698487Y-62863816D01*
X30682489Y-62875196D01*
X30663522Y-62890345D01*
X30645700Y-62906519D01*
X30638892Y-62913275D01*
X30622825Y-62930518D01*
X30607903Y-62948357D01*
X30594127Y-62966792D01*
X30581495Y-62985823D01*
X30570008Y-63005451D01*
X30559665Y-63025675D01*
X30555849Y-63033931D01*
X30547406Y-63054668D01*
X30540393Y-63075357D01*
X30534812Y-63095999D01*
X30530662Y-63116592D01*
X30527943Y-63137138D01*
X30526655Y-63157636D01*
X30526540Y-63165822D01*
X30263685Y-63165822D01*
X30263689Y-63165792D01*
X30267785Y-63139374D01*
X30272791Y-63113333D01*
X30278707Y-63087670D01*
X30285533Y-63062386D01*
X30293270Y-63037478D01*
X30301917Y-63012949D01*
X30308187Y-62996806D01*
X30318331Y-62973018D01*
X30329161Y-62949832D01*
X30340679Y-62927246D01*
X30352883Y-62905261D01*
X30365775Y-62883877D01*
X30379353Y-62863095D01*
X30393619Y-62842913D01*
X30408571Y-62823333D01*
X30424210Y-62804353D01*
X30440536Y-62785975D01*
X30451802Y-62774057D01*
X30469326Y-62756649D01*
X30487459Y-62739962D01*
X30506203Y-62723997D01*
X30525555Y-62708752D01*
X30545518Y-62694230D01*
X30566090Y-62680428D01*
X30587272Y-62667348D01*
X30609064Y-62654988D01*
X30631465Y-62643351D01*
X30654476Y-62632434D01*
X30670155Y-62625557D01*
X30694074Y-62615954D01*
X30718389Y-62607296D01*
X30743099Y-62599583D01*
X30768203Y-62592813D01*
X30793703Y-62586989D01*
X30819597Y-62582109D01*
X30845887Y-62578173D01*
X30872571Y-62575182D01*
X30899651Y-62573136D01*
X30927125Y-62572034D01*
X30945661Y-62571824D01*
X30967610Y-62572062D01*
G37*
G36*
X32844405Y-62946981D02*
G01*
X32826705Y-62932059D01*
X32808776Y-62918069D01*
X32790618Y-62905009D01*
X32772231Y-62892881D01*
X32753615Y-62881684D01*
X32734770Y-62871418D01*
X32715696Y-62862084D01*
X32696393Y-62853680D01*
X32676640Y-62846238D01*
X32655971Y-62839789D01*
X32634386Y-62834331D01*
X32611885Y-62829866D01*
X32588469Y-62826394D01*
X32564136Y-62823913D01*
X32538887Y-62822425D01*
X32519350Y-62821959D01*
X32512723Y-62821928D01*
X32487016Y-62822509D01*
X32462165Y-62824249D01*
X32438168Y-62827149D01*
X32415026Y-62831210D01*
X32392739Y-62836430D01*
X32371306Y-62842811D01*
X32350729Y-62850352D01*
X32331006Y-62859053D01*
X32312100Y-62868770D01*
X32293973Y-62879356D01*
X32276624Y-62890813D01*
X32260054Y-62903139D01*
X32244262Y-62916336D01*
X32229249Y-62930403D01*
X32215014Y-62945340D01*
X32201557Y-62961147D01*
X32188887Y-62977580D01*
X32177011Y-62994639D01*
X32165929Y-63012323D01*
X32155640Y-63030634D01*
X32146145Y-63049570D01*
X32137444Y-63069133D01*
X32129536Y-63089321D01*
X32122423Y-63110135D01*
X32116240Y-63131247D01*
X32110882Y-63152572D01*
X32106349Y-63174111D01*
X32102639Y-63195864D01*
X32099754Y-63217831D01*
X32097693Y-63240011D01*
X32096457Y-63262405D01*
X32096045Y-63285013D01*
X32096525Y-63307582D01*
X32097968Y-63329862D01*
X32100372Y-63351851D01*
X32103738Y-63373551D01*
X32108066Y-63394960D01*
X32113355Y-63416080D01*
X32119606Y-63436909D01*
X32126819Y-63457448D01*
X32135024Y-63477400D01*
X32144008Y-63496710D01*
X32153770Y-63515380D01*
X32164310Y-63533408D01*
X32175630Y-63550795D01*
X32187727Y-63567541D01*
X32200603Y-63583646D01*
X32214258Y-63599109D01*
X32228653Y-63613848D01*
X32243750Y-63627777D01*
X32259550Y-63640898D01*
X32276052Y-63653209D01*
X32293255Y-63664711D01*
X32311161Y-63675405D01*
X32329770Y-63685289D01*
X32349080Y-63694364D01*
X32369162Y-63702378D01*
X32389838Y-63709324D01*
X32411110Y-63715201D01*
X32432978Y-63720009D01*
X32455440Y-63723749D01*
X32478498Y-63726421D01*
X32502152Y-63728024D01*
X32526400Y-63728558D01*
X32546184Y-63728279D01*
X32571708Y-63727039D01*
X32596254Y-63724806D01*
X32619823Y-63721581D01*
X32642416Y-63717364D01*
X32664031Y-63712155D01*
X32684670Y-63705954D01*
X32704331Y-63698760D01*
X32709094Y-63696806D01*
X32727962Y-63688403D01*
X32746463Y-63679068D01*
X32764598Y-63668802D01*
X32782367Y-63657605D01*
X32799769Y-63645477D01*
X32816805Y-63632418D01*
X32833475Y-63618427D01*
X32849778Y-63603506D01*
X33030029Y-63778872D01*
X33011244Y-63798315D01*
X32991893Y-63816710D01*
X32971975Y-63834058D01*
X32951490Y-63850359D01*
X32930438Y-63865612D01*
X32908820Y-63879817D01*
X32886635Y-63892974D01*
X32863883Y-63905084D01*
X32840565Y-63916147D01*
X32816679Y-63926162D01*
X32800441Y-63932256D01*
X32775844Y-63940550D01*
X32750965Y-63948027D01*
X32725801Y-63954689D01*
X32700355Y-63960535D01*
X32674625Y-63965566D01*
X32648612Y-63969780D01*
X32622315Y-63973179D01*
X32595735Y-63975762D01*
X32568872Y-63977530D01*
X32541725Y-63978481D01*
X32523470Y-63978663D01*
X32494754Y-63978216D01*
X32466494Y-63976877D01*
X32438689Y-63974644D01*
X32411339Y-63971518D01*
X32384444Y-63967500D01*
X32358005Y-63962588D01*
X32332020Y-63956784D01*
X32306490Y-63950086D01*
X32281416Y-63942496D01*
X32256796Y-63934012D01*
X32240636Y-63927860D01*
X32216949Y-63917887D01*
X32193879Y-63907201D01*
X32171428Y-63895802D01*
X32149595Y-63883690D01*
X32128380Y-63870866D01*
X32107784Y-63857329D01*
X32087805Y-63843080D01*
X32068445Y-63828117D01*
X32049703Y-63812442D01*
X32031580Y-63796055D01*
X32019841Y-63784734D01*
X32002808Y-63767188D01*
X31986513Y-63748990D01*
X31970957Y-63730140D01*
X31956139Y-63710637D01*
X31942060Y-63690481D01*
X31928719Y-63669672D01*
X31916117Y-63648212D01*
X31904253Y-63626098D01*
X31893127Y-63603332D01*
X31882740Y-63579913D01*
X31876226Y-63563938D01*
X31867234Y-63539526D01*
X31859127Y-63514651D01*
X31851904Y-63489312D01*
X31845566Y-63463509D01*
X31840112Y-63437242D01*
X31835542Y-63410512D01*
X31831857Y-63383318D01*
X31829057Y-63355660D01*
X31827140Y-63327539D01*
X31826109Y-63298954D01*
X31825912Y-63279640D01*
X31826354Y-63250650D01*
X31827681Y-63222115D01*
X31829892Y-63194035D01*
X31832987Y-63166410D01*
X31836967Y-63139240D01*
X31841832Y-63112526D01*
X31847580Y-63086266D01*
X31854214Y-63060462D01*
X31861731Y-63035113D01*
X31870133Y-63010219D01*
X31876226Y-62993875D01*
X31886108Y-62969747D01*
X31896702Y-62946271D01*
X31908010Y-62923448D01*
X31920029Y-62901277D01*
X31932762Y-62879759D01*
X31946207Y-62858893D01*
X31960365Y-62838680D01*
X31975236Y-62819120D01*
X31990819Y-62800212D01*
X32007115Y-62781957D01*
X32018375Y-62770149D01*
X32035912Y-62752928D01*
X32054084Y-62736438D01*
X32072892Y-62720677D01*
X32092335Y-62705646D01*
X32112414Y-62691345D01*
X32133128Y-62677774D01*
X32154477Y-62664932D01*
X32176462Y-62652821D01*
X32199082Y-62641439D01*
X32222337Y-62630787D01*
X32238194Y-62624092D01*
X32262453Y-62614751D01*
X32287235Y-62606329D01*
X32312542Y-62598825D01*
X32338372Y-62592241D01*
X32364726Y-62586575D01*
X32391603Y-62581828D01*
X32419005Y-62578000D01*
X32446930Y-62575091D01*
X32475379Y-62573100D01*
X32504352Y-62572028D01*
X32523958Y-62571824D01*
X32551232Y-62572270D01*
X32578283Y-62573610D01*
X32605111Y-62575842D01*
X32631715Y-62578968D01*
X32658096Y-62582986D01*
X32684254Y-62587898D01*
X32710188Y-62593703D01*
X32735900Y-62600400D01*
X32761388Y-62607991D01*
X32786653Y-62616474D01*
X32803372Y-62622626D01*
X32828159Y-62632532D01*
X32852327Y-62643383D01*
X32875878Y-62655178D01*
X32898810Y-62667918D01*
X32921124Y-62681602D01*
X32942819Y-62696231D01*
X32963897Y-62711805D01*
X32984356Y-62728322D01*
X33004197Y-62745785D01*
X33023419Y-62764192D01*
X33035891Y-62776988D01*
X32844405Y-62946981D01*
G37*
G36*
X33953756Y-62821928D02*
G01*
X33590811Y-62821928D01*
X33590811Y-63423743D01*
X33590914Y-63444591D01*
X33591223Y-63465371D01*
X33591738Y-63486082D01*
X33592459Y-63506724D01*
X33593387Y-63527298D01*
X33593742Y-63534141D01*
X33595373Y-63554262D01*
X33598622Y-63576739D01*
X33603321Y-63598140D01*
X33609468Y-63618466D01*
X33614747Y-63632326D01*
X33623612Y-63650362D01*
X33634395Y-63666854D01*
X33647094Y-63681804D01*
X33661710Y-63695211D01*
X33670922Y-63702180D01*
X33689275Y-63712458D01*
X33707685Y-63719259D01*
X33728568Y-63724204D01*
X33751923Y-63727296D01*
X33773275Y-63728455D01*
X33782297Y-63728558D01*
X33802076Y-63728161D01*
X33822088Y-63726968D01*
X33842334Y-63724982D01*
X33862813Y-63722200D01*
X33874621Y-63720254D01*
X33895167Y-63715943D01*
X33914919Y-63710276D01*
X33933876Y-63703253D01*
X33952038Y-63694875D01*
X33962060Y-63689479D01*
X33962060Y-63930791D01*
X33944263Y-63940282D01*
X33924576Y-63948605D01*
X33903001Y-63955761D01*
X33883578Y-63960832D01*
X33862844Y-63965092D01*
X33845312Y-63967916D01*
X33823659Y-63971012D01*
X33803581Y-63973583D01*
X33781564Y-63975976D01*
X33761815Y-63977613D01*
X33741639Y-63978568D01*
X33733937Y-63978663D01*
X33707127Y-63978302D01*
X33681467Y-63977220D01*
X33656958Y-63975417D01*
X33633599Y-63972892D01*
X33611391Y-63969647D01*
X33590334Y-63965680D01*
X33570427Y-63960991D01*
X33545675Y-63953618D01*
X33522968Y-63944963D01*
X33507280Y-63937630D01*
X33487908Y-63926998D01*
X33469850Y-63915617D01*
X33453104Y-63903489D01*
X33437671Y-63890613D01*
X33423550Y-63876989D01*
X33407746Y-63858907D01*
X33393993Y-63839656D01*
X33389066Y-63831628D01*
X33378051Y-63810803D01*
X33368515Y-63789239D01*
X33360458Y-63766935D01*
X33353880Y-63743892D01*
X33348780Y-63720109D01*
X33345766Y-63700551D01*
X33344126Y-63685571D01*
X33342523Y-63665284D01*
X33341134Y-63644966D01*
X33339958Y-63624617D01*
X33338996Y-63604238D01*
X33338248Y-63583829D01*
X33337714Y-63563389D01*
X33337394Y-63542918D01*
X33337287Y-63522417D01*
X33337287Y-62821928D01*
X33044684Y-62821928D01*
X33044684Y-62603087D01*
X33337287Y-62603087D01*
X33337287Y-62227930D01*
X33590811Y-62227930D01*
X33590811Y-62603087D01*
X33953756Y-62603087D01*
X33953756Y-62821928D01*
G37*
G36*
X34274691Y-62603087D02*
G01*
X34527726Y-62603087D01*
X34527726Y-62812647D01*
X34533588Y-62812647D01*
X34543532Y-62792841D01*
X34554677Y-62773721D01*
X34567025Y-62755288D01*
X34580574Y-62737543D01*
X34595326Y-62720484D01*
X34600511Y-62714950D01*
X34616774Y-62698910D01*
X34633690Y-62683763D01*
X34651258Y-62669509D01*
X34669479Y-62656149D01*
X34688352Y-62643681D01*
X34694788Y-62639723D01*
X34714732Y-62628463D01*
X34735363Y-62618131D01*
X34756681Y-62608725D01*
X34774971Y-62601596D01*
X34793737Y-62595111D01*
X34809094Y-62590386D01*
X34828481Y-62585039D01*
X34847868Y-62580597D01*
X34867254Y-62577063D01*
X34886641Y-62574434D01*
X34909905Y-62572476D01*
X34933169Y-62571824D01*
X34955873Y-62572373D01*
X34977820Y-62574022D01*
X34999012Y-62576770D01*
X35019448Y-62580617D01*
X35039129Y-62585562D01*
X35045521Y-62587455D01*
X35034286Y-62841468D01*
X35015004Y-62836564D01*
X34995627Y-62832232D01*
X34976154Y-62828473D01*
X34972248Y-62827790D01*
X34951033Y-62824453D01*
X34929702Y-62822501D01*
X34910211Y-62821928D01*
X34887347Y-62822346D01*
X34865163Y-62823600D01*
X34843658Y-62825689D01*
X34822833Y-62828615D01*
X34802687Y-62832376D01*
X34783220Y-62836972D01*
X34764432Y-62842405D01*
X34737524Y-62852121D01*
X34712145Y-62863717D01*
X34688294Y-62877194D01*
X34665972Y-62892551D01*
X34645178Y-62909789D01*
X34625912Y-62928907D01*
X34608365Y-62949917D01*
X34592544Y-62973014D01*
X34578449Y-62998197D01*
X34570011Y-63016145D01*
X34562341Y-63035020D01*
X34555437Y-63054823D01*
X34549300Y-63075553D01*
X34543931Y-63097211D01*
X34539328Y-63119795D01*
X34535493Y-63143308D01*
X34532425Y-63167747D01*
X34530123Y-63193114D01*
X34528589Y-63219408D01*
X34527822Y-63246630D01*
X34527726Y-63260589D01*
X34527726Y-63947400D01*
X34274691Y-63947400D01*
X34274691Y-62603087D01*
G37*
G36*
X35329820Y-62603087D02*
G01*
X35582855Y-62603087D01*
X35582855Y-63947400D01*
X35329820Y-63947400D01*
X35329820Y-62603087D01*
G37*
G36*
X35270713Y-62134141D02*
G01*
X35272049Y-62110699D01*
X35276056Y-62088307D01*
X35282734Y-62066964D01*
X35292084Y-62046671D01*
X35304106Y-62027427D01*
X35318798Y-62009233D01*
X35325424Y-62002249D01*
X35343174Y-61986207D01*
X35361926Y-61972883D01*
X35381680Y-61962279D01*
X35402436Y-61954393D01*
X35424194Y-61949227D01*
X35446953Y-61946780D01*
X35456338Y-61946562D01*
X35479486Y-61947922D01*
X35501608Y-61952000D01*
X35522705Y-61958798D01*
X35542777Y-61968315D01*
X35561822Y-61980551D01*
X35579843Y-61995506D01*
X35586763Y-62002249D01*
X35602665Y-62020024D01*
X35615872Y-62038848D01*
X35626384Y-62058721D01*
X35634200Y-62079644D01*
X35639321Y-62101616D01*
X35641747Y-62124638D01*
X35641962Y-62134141D01*
X35640615Y-62157594D01*
X35636572Y-62180022D01*
X35629834Y-62201424D01*
X35620400Y-62221801D01*
X35608272Y-62241152D01*
X35593448Y-62259477D01*
X35586763Y-62266520D01*
X35569154Y-62282422D01*
X35550518Y-62295629D01*
X35530857Y-62306141D01*
X35510170Y-62313957D01*
X35488458Y-62319078D01*
X35465720Y-62321503D01*
X35456338Y-62321719D01*
X35433178Y-62320371D01*
X35411019Y-62316329D01*
X35389863Y-62309590D01*
X35369708Y-62300157D01*
X35350555Y-62288028D01*
X35332404Y-62273204D01*
X35325424Y-62266520D01*
X35309662Y-62248605D01*
X35296572Y-62229664D01*
X35286154Y-62209698D01*
X35278407Y-62188706D01*
X35273331Y-62166688D01*
X35270927Y-62143645D01*
X35270713Y-62134141D01*
G37*
G36*
X36935961Y-62946981D02*
G01*
X36918261Y-62932059D01*
X36900332Y-62918069D01*
X36882174Y-62905009D01*
X36863787Y-62892881D01*
X36845171Y-62881684D01*
X36826326Y-62871418D01*
X36807252Y-62862084D01*
X36787950Y-62853680D01*
X36768197Y-62846238D01*
X36747527Y-62839789D01*
X36725943Y-62834331D01*
X36703442Y-62829866D01*
X36680025Y-62826394D01*
X36655692Y-62823913D01*
X36630444Y-62822425D01*
X36610906Y-62821959D01*
X36604279Y-62821928D01*
X36578572Y-62822509D01*
X36553721Y-62824249D01*
X36529724Y-62827149D01*
X36506582Y-62831210D01*
X36484295Y-62836430D01*
X36462862Y-62842811D01*
X36442285Y-62850352D01*
X36422562Y-62859053D01*
X36403656Y-62868770D01*
X36385529Y-62879356D01*
X36368180Y-62890813D01*
X36351610Y-62903139D01*
X36335818Y-62916336D01*
X36320805Y-62930403D01*
X36306570Y-62945340D01*
X36293114Y-62961147D01*
X36280444Y-62977580D01*
X36268567Y-62994639D01*
X36257485Y-63012323D01*
X36247196Y-63030634D01*
X36237701Y-63049570D01*
X36229000Y-63069133D01*
X36221093Y-63089321D01*
X36213979Y-63110135D01*
X36207797Y-63131247D01*
X36202439Y-63152572D01*
X36197905Y-63174111D01*
X36194195Y-63195864D01*
X36191310Y-63217831D01*
X36189249Y-63240011D01*
X36188013Y-63262405D01*
X36187601Y-63285013D01*
X36188082Y-63307582D01*
X36189524Y-63329862D01*
X36191928Y-63351851D01*
X36195294Y-63373551D01*
X36199622Y-63394960D01*
X36204911Y-63416080D01*
X36211163Y-63436909D01*
X36218375Y-63457448D01*
X36226580Y-63477400D01*
X36235564Y-63496710D01*
X36245326Y-63515380D01*
X36255867Y-63533408D01*
X36267186Y-63550795D01*
X36279283Y-63567541D01*
X36292160Y-63583646D01*
X36305814Y-63599109D01*
X36320209Y-63613848D01*
X36335307Y-63627777D01*
X36351106Y-63640898D01*
X36367608Y-63653209D01*
X36384812Y-63664711D01*
X36402718Y-63675405D01*
X36421326Y-63685289D01*
X36440636Y-63694364D01*
X36460718Y-63702378D01*
X36481394Y-63709324D01*
X36502666Y-63715201D01*
X36524534Y-63720009D01*
X36546996Y-63723749D01*
X36570055Y-63726421D01*
X36593708Y-63728024D01*
X36617957Y-63728558D01*
X36637740Y-63728279D01*
X36663264Y-63727039D01*
X36687810Y-63724806D01*
X36711380Y-63721581D01*
X36733972Y-63717364D01*
X36755587Y-63712155D01*
X36776226Y-63705954D01*
X36795888Y-63698760D01*
X36800650Y-63696806D01*
X36819518Y-63688403D01*
X36838019Y-63679068D01*
X36856154Y-63668802D01*
X36873923Y-63657605D01*
X36891325Y-63645477D01*
X36908361Y-63632418D01*
X36925031Y-63618427D01*
X36941334Y-63603506D01*
X37121585Y-63778872D01*
X37102801Y-63798315D01*
X37083449Y-63816710D01*
X37063531Y-63834058D01*
X37043046Y-63850359D01*
X37021994Y-63865612D01*
X37000376Y-63879817D01*
X36978191Y-63892974D01*
X36955439Y-63905084D01*
X36932121Y-63916147D01*
X36908235Y-63926162D01*
X36891997Y-63932256D01*
X36867401Y-63940550D01*
X36842521Y-63948027D01*
X36817358Y-63954689D01*
X36791911Y-63960535D01*
X36766181Y-63965566D01*
X36740168Y-63969780D01*
X36713871Y-63973179D01*
X36687291Y-63975762D01*
X36660428Y-63977530D01*
X36633281Y-63978481D01*
X36615026Y-63978663D01*
X36586311Y-63978216D01*
X36558050Y-63976877D01*
X36530245Y-63974644D01*
X36502895Y-63971518D01*
X36476001Y-63967500D01*
X36449561Y-63962588D01*
X36423576Y-63956784D01*
X36398046Y-63950086D01*
X36372972Y-63942496D01*
X36348353Y-63934012D01*
X36332193Y-63927860D01*
X36308505Y-63917887D01*
X36285435Y-63907201D01*
X36262984Y-63895802D01*
X36241151Y-63883690D01*
X36219936Y-63870866D01*
X36199340Y-63857329D01*
X36179361Y-63843080D01*
X36160001Y-63828117D01*
X36141259Y-63812442D01*
X36123136Y-63796055D01*
X36111397Y-63784734D01*
X36094364Y-63767188D01*
X36078069Y-63748990D01*
X36062513Y-63730140D01*
X36047695Y-63710637D01*
X36033616Y-63690481D01*
X36020275Y-63669672D01*
X36007673Y-63648212D01*
X35995809Y-63626098D01*
X35984684Y-63603332D01*
X35974297Y-63579913D01*
X35967782Y-63563938D01*
X35958791Y-63539526D01*
X35950683Y-63514651D01*
X35943460Y-63489312D01*
X35937122Y-63463509D01*
X35931668Y-63437242D01*
X35927099Y-63410512D01*
X35923413Y-63383318D01*
X35920613Y-63355660D01*
X35918697Y-63327539D01*
X35917665Y-63298954D01*
X35917468Y-63279640D01*
X35917910Y-63250650D01*
X35919237Y-63222115D01*
X35921448Y-63194035D01*
X35924544Y-63166410D01*
X35928523Y-63139240D01*
X35933388Y-63112526D01*
X35939137Y-63086266D01*
X35945770Y-63060462D01*
X35953287Y-63035113D01*
X35961689Y-63010219D01*
X35967782Y-62993875D01*
X35977664Y-62969747D01*
X35988259Y-62946271D01*
X35999566Y-62923448D01*
X36011586Y-62901277D01*
X36024318Y-62879759D01*
X36037763Y-62858893D01*
X36051921Y-62838680D01*
X36066792Y-62819120D01*
X36082375Y-62800212D01*
X36098672Y-62781957D01*
X36109932Y-62770149D01*
X36127468Y-62752928D01*
X36145641Y-62736438D01*
X36164448Y-62720677D01*
X36183891Y-62705646D01*
X36203970Y-62691345D01*
X36224684Y-62677774D01*
X36246033Y-62664932D01*
X36268018Y-62652821D01*
X36290638Y-62641439D01*
X36313893Y-62630787D01*
X36329750Y-62624092D01*
X36354009Y-62614751D01*
X36378791Y-62606329D01*
X36404098Y-62598825D01*
X36429928Y-62592241D01*
X36456282Y-62586575D01*
X36483159Y-62581828D01*
X36510561Y-62578000D01*
X36538486Y-62575091D01*
X36566935Y-62573100D01*
X36595908Y-62572028D01*
X36615514Y-62571824D01*
X36642788Y-62572270D01*
X36669839Y-62573610D01*
X36696667Y-62575842D01*
X36723271Y-62578968D01*
X36749652Y-62582986D01*
X36775810Y-62587898D01*
X36801745Y-62593703D01*
X36827456Y-62600400D01*
X36852944Y-62607991D01*
X36878209Y-62616474D01*
X36894928Y-62622626D01*
X36919715Y-62632532D01*
X36943883Y-62643383D01*
X36967434Y-62655178D01*
X36990366Y-62667918D01*
X37012680Y-62681602D01*
X37034375Y-62696231D01*
X37055453Y-62711805D01*
X37075912Y-62728322D01*
X37095753Y-62745785D01*
X37114976Y-62764192D01*
X37127447Y-62776988D01*
X36935961Y-62946981D01*
G37*
G36*
X37892177Y-62572150D02*
G01*
X37918573Y-62573129D01*
X37944247Y-62574760D01*
X37969200Y-62577044D01*
X37993431Y-62579981D01*
X38016942Y-62583570D01*
X38039731Y-62587812D01*
X38061798Y-62592707D01*
X38083145Y-62598254D01*
X38103770Y-62604453D01*
X38117119Y-62608949D01*
X38136568Y-62616046D01*
X38155347Y-62623598D01*
X38173456Y-62631605D01*
X38196560Y-62642989D01*
X38218473Y-62655182D01*
X38239196Y-62668184D01*
X38258728Y-62681995D01*
X38277069Y-62696615D01*
X38290043Y-62708111D01*
X38306346Y-62723911D01*
X38321551Y-62740290D01*
X38335656Y-62757250D01*
X38348661Y-62774790D01*
X38360568Y-62792909D01*
X38371376Y-62811609D01*
X38381085Y-62830889D01*
X38389694Y-62850749D01*
X38397365Y-62871006D01*
X38404013Y-62891477D01*
X38409638Y-62912161D01*
X38414241Y-62933059D01*
X38417820Y-62954171D01*
X38420377Y-62975496D01*
X38421911Y-62997035D01*
X38422423Y-63018788D01*
X38422423Y-63704134D01*
X38422482Y-63725994D01*
X38422661Y-63747305D01*
X38422959Y-63768068D01*
X38423377Y-63788283D01*
X38423914Y-63807949D01*
X38424715Y-63830824D01*
X38424865Y-63834559D01*
X38426067Y-63856535D01*
X38427476Y-63878134D01*
X38429090Y-63899354D01*
X38430910Y-63920197D01*
X38432937Y-63940662D01*
X38433658Y-63947400D01*
X38208466Y-63947400D01*
X38206982Y-63927799D01*
X38205644Y-63908199D01*
X38204452Y-63888598D01*
X38203406Y-63868998D01*
X38202505Y-63849397D01*
X38201751Y-63829797D01*
X38201143Y-63810196D01*
X38200681Y-63790596D01*
X38200365Y-63770995D01*
X38200194Y-63751395D01*
X38200162Y-63738328D01*
X38194300Y-63738328D01*
X38178267Y-63762292D01*
X38161676Y-63784907D01*
X38144527Y-63806175D01*
X38126820Y-63826095D01*
X38108555Y-63844666D01*
X38089732Y-63861890D01*
X38070350Y-63877765D01*
X38050410Y-63892292D01*
X38029913Y-63905471D01*
X38008857Y-63917302D01*
X37994509Y-63924441D01*
X37972572Y-63934131D01*
X37949990Y-63942868D01*
X37926765Y-63950651D01*
X37902895Y-63957482D01*
X37878382Y-63963360D01*
X37853224Y-63968284D01*
X37827423Y-63972256D01*
X37800977Y-63975274D01*
X37773888Y-63977339D01*
X37746154Y-63978451D01*
X37727308Y-63978663D01*
X37704234Y-63978258D01*
X37681421Y-63977044D01*
X37658866Y-63975022D01*
X37636571Y-63972190D01*
X37614536Y-63968549D01*
X37592760Y-63964100D01*
X37571244Y-63958841D01*
X37549987Y-63952773D01*
X37529189Y-63946018D01*
X37509046Y-63938454D01*
X37489560Y-63930081D01*
X37470731Y-63920899D01*
X37452557Y-63910908D01*
X37435041Y-63900108D01*
X37418180Y-63888499D01*
X37401976Y-63876081D01*
X37386635Y-63862762D01*
X37372118Y-63848695D01*
X37358425Y-63833880D01*
X37345556Y-63818317D01*
X37333512Y-63802006D01*
X37322292Y-63784947D01*
X37311896Y-63767141D01*
X37302325Y-63748586D01*
X37293738Y-63729161D01*
X37286297Y-63708988D01*
X37280000Y-63688067D01*
X37274848Y-63666398D01*
X37270841Y-63643981D01*
X37267978Y-63620816D01*
X37266261Y-63596903D01*
X37265689Y-63572242D01*
X37266195Y-63547982D01*
X37266395Y-63544887D01*
X37519213Y-63544887D01*
X37519891Y-63565757D01*
X37521926Y-63585502D01*
X37526750Y-63610079D01*
X37533986Y-63632656D01*
X37543633Y-63653234D01*
X37555693Y-63671812D01*
X37570164Y-63688390D01*
X37587047Y-63702968D01*
X37596393Y-63709507D01*
X37616658Y-63721299D01*
X37638617Y-63731519D01*
X37662270Y-63740167D01*
X37681122Y-63745621D01*
X37700928Y-63750191D01*
X37721686Y-63753876D01*
X37743397Y-63756676D01*
X37766062Y-63758593D01*
X37789679Y-63759624D01*
X37805954Y-63759821D01*
X37831592Y-63759279D01*
X37856237Y-63757653D01*
X37879891Y-63754944D01*
X37902552Y-63751150D01*
X37924221Y-63746273D01*
X37944898Y-63740312D01*
X37964582Y-63733267D01*
X37983274Y-63725139D01*
X38001150Y-63716025D01*
X38018140Y-63706271D01*
X38038132Y-63693176D01*
X38056742Y-63679080D01*
X38073967Y-63663981D01*
X38089810Y-63647881D01*
X38101488Y-63634280D01*
X38114912Y-63616568D01*
X38127095Y-63598235D01*
X38138038Y-63579283D01*
X38147741Y-63559710D01*
X38156204Y-63539517D01*
X38163426Y-63518704D01*
X38165968Y-63510205D01*
X38171738Y-63488857D01*
X38176529Y-63467558D01*
X38180343Y-63446306D01*
X38183179Y-63425101D01*
X38185037Y-63403945D01*
X38185917Y-63382836D01*
X38185996Y-63374406D01*
X38185996Y-63290875D01*
X38051174Y-63290875D01*
X38028520Y-63291027D01*
X38005745Y-63291485D01*
X37982847Y-63292249D01*
X37959827Y-63293317D01*
X37936685Y-63294691D01*
X37913421Y-63296370D01*
X37890034Y-63298355D01*
X37866526Y-63300644D01*
X37843224Y-63303369D01*
X37820456Y-63306659D01*
X37798222Y-63310513D01*
X37776523Y-63314933D01*
X37755357Y-63319917D01*
X37734727Y-63325466D01*
X37714630Y-63331579D01*
X37695068Y-63338258D01*
X37676207Y-63345570D01*
X37658217Y-63353584D01*
X37636954Y-63364589D01*
X37617049Y-63376692D01*
X37598504Y-63389891D01*
X37581319Y-63404188D01*
X37568550Y-63416416D01*
X37554337Y-63432818D01*
X37542532Y-63450581D01*
X37533137Y-63469703D01*
X37526151Y-63490185D01*
X37521574Y-63512026D01*
X37519405Y-63535226D01*
X37519213Y-63544887D01*
X37266395Y-63544887D01*
X37267715Y-63524478D01*
X37270248Y-63501729D01*
X37273794Y-63479736D01*
X37278354Y-63458498D01*
X37283927Y-63438016D01*
X37290513Y-63418289D01*
X37298112Y-63399319D01*
X37306724Y-63381103D01*
X37316350Y-63363644D01*
X37323330Y-63352424D01*
X37334507Y-63336046D01*
X37346422Y-63320253D01*
X37359076Y-63305043D01*
X37372469Y-63290417D01*
X37386599Y-63276375D01*
X37401469Y-63262917D01*
X37417076Y-63250042D01*
X37433422Y-63237752D01*
X37450507Y-63226045D01*
X37468330Y-63214923D01*
X37480622Y-63207832D01*
X37499695Y-63197666D01*
X37519360Y-63188048D01*
X37539617Y-63178981D01*
X37560467Y-63170463D01*
X37581909Y-63162495D01*
X37603944Y-63155076D01*
X37626571Y-63148206D01*
X37649791Y-63141887D01*
X37673603Y-63136116D01*
X37698008Y-63130896D01*
X37714607Y-63127721D01*
X37739862Y-63123356D01*
X37765434Y-63119420D01*
X37791325Y-63115914D01*
X37817532Y-63112837D01*
X37844058Y-63110189D01*
X37870901Y-63107971D01*
X37898063Y-63106182D01*
X37925541Y-63104823D01*
X37953338Y-63103893D01*
X37981452Y-63103392D01*
X38000371Y-63103296D01*
X38185996Y-63103296D01*
X38185996Y-63051028D01*
X38185037Y-63030512D01*
X38182162Y-63009995D01*
X38177370Y-62989479D01*
X38170662Y-62968963D01*
X38165968Y-62957239D01*
X38156461Y-62937167D01*
X38145037Y-62917983D01*
X38131697Y-62899687D01*
X38118737Y-62884712D01*
X38106861Y-62872731D01*
X38091502Y-62859175D01*
X38074735Y-62846719D01*
X38056560Y-62835362D01*
X38036977Y-62825104D01*
X38015986Y-62815945D01*
X38008675Y-62813136D01*
X37989656Y-62806662D01*
X37969539Y-62801286D01*
X37948325Y-62797007D01*
X37926014Y-62793825D01*
X37902606Y-62791741D01*
X37878101Y-62790753D01*
X37867992Y-62790665D01*
X37845535Y-62790952D01*
X37823961Y-62791810D01*
X37803270Y-62793241D01*
X37783461Y-62795245D01*
X37760855Y-62798405D01*
X37739520Y-62802389D01*
X37719347Y-62806825D01*
X37699861Y-62811708D01*
X37681062Y-62817038D01*
X37659998Y-62823820D01*
X37639869Y-62831210D01*
X37620605Y-62839160D01*
X37602135Y-62847625D01*
X37584460Y-62856605D01*
X37565234Y-62867496D01*
X37558292Y-62871754D01*
X37540157Y-62883111D01*
X37522388Y-62894224D01*
X37504986Y-62905093D01*
X37487950Y-62915718D01*
X37336031Y-62762822D01*
X37356385Y-62745378D01*
X37377332Y-62728767D01*
X37398872Y-62712989D01*
X37421004Y-62698044D01*
X37443729Y-62683932D01*
X37467046Y-62670652D01*
X37490955Y-62658206D01*
X37515458Y-62646593D01*
X37540552Y-62635812D01*
X37566239Y-62625864D01*
X37583693Y-62619695D01*
X37610071Y-62611140D01*
X37636449Y-62603427D01*
X37662828Y-62596554D01*
X37689206Y-62590524D01*
X37715584Y-62585334D01*
X37741962Y-62580987D01*
X37768340Y-62577480D01*
X37794719Y-62574816D01*
X37821097Y-62572993D01*
X37847475Y-62572011D01*
X37865061Y-62571824D01*
X37892177Y-62572150D01*
G37*
G36*
X38801976Y-61821510D02*
G01*
X39055012Y-61821510D01*
X39055012Y-63947400D01*
X38801976Y-63947400D01*
X38801976Y-61821510D01*
G37*
G36*
X40296742Y-61946562D02*
G01*
X41582437Y-61946562D01*
X41582437Y-62196667D01*
X40566875Y-62196667D01*
X40566875Y-62790665D01*
X41512095Y-62790665D01*
X41512095Y-63040770D01*
X40566875Y-63040770D01*
X40566875Y-63697295D01*
X41633239Y-63697295D01*
X41633239Y-63947400D01*
X40296742Y-63947400D01*
X40296742Y-61946562D01*
G37*
G36*
X41941962Y-62603087D02*
G01*
X42194998Y-62603087D01*
X42194998Y-62812647D01*
X42200860Y-62812647D01*
X42210367Y-62792858D01*
X42221118Y-62773790D01*
X42233115Y-62755443D01*
X42246358Y-62737817D01*
X42260845Y-62720913D01*
X42276577Y-62704730D01*
X42293554Y-62689268D01*
X42311776Y-62674528D01*
X42331244Y-62660509D01*
X42351956Y-62647211D01*
X42366456Y-62638746D01*
X42388943Y-62626787D01*
X42412074Y-62616003D01*
X42435849Y-62606396D01*
X42460268Y-62597965D01*
X42485331Y-62590711D01*
X42511039Y-62584633D01*
X42537390Y-62579732D01*
X42564385Y-62576006D01*
X42592024Y-62573458D01*
X42620307Y-62572085D01*
X42639520Y-62571824D01*
X42663341Y-62572289D01*
X42686933Y-62573686D01*
X42710297Y-62576014D01*
X42733431Y-62579273D01*
X42756337Y-62583463D01*
X42779013Y-62588585D01*
X42801460Y-62594638D01*
X42823679Y-62601621D01*
X42845546Y-62609582D01*
X42866696Y-62618566D01*
X42887129Y-62628572D01*
X42906844Y-62639601D01*
X42925841Y-62651653D01*
X42944121Y-62664728D01*
X42961684Y-62678825D01*
X42978529Y-62693945D01*
X42994710Y-62710012D01*
X43010036Y-62727193D01*
X43024508Y-62745488D01*
X43038124Y-62764898D01*
X43050886Y-62785422D01*
X43062793Y-62807060D01*
X43073845Y-62829813D01*
X43084042Y-62853680D01*
X43091113Y-62872224D01*
X43097489Y-62891404D01*
X43103169Y-62911219D01*
X43108153Y-62931670D01*
X43112442Y-62952756D01*
X43116036Y-62974477D01*
X43118934Y-62996834D01*
X43121136Y-63019826D01*
X43122643Y-63043454D01*
X43123455Y-63067717D01*
X43123609Y-63084245D01*
X43123609Y-63947400D01*
X42870085Y-63947400D01*
X42870085Y-63163380D01*
X42869688Y-63140719D01*
X42868497Y-63118897D01*
X42866513Y-63097915D01*
X42863735Y-63077773D01*
X42860163Y-63058470D01*
X42854581Y-63035522D01*
X42847760Y-63013886D01*
X42844684Y-63005599D01*
X42836340Y-62985611D01*
X42827186Y-62966864D01*
X42817221Y-62949356D01*
X42804192Y-62929985D01*
X42789995Y-62912399D01*
X42777273Y-62899109D01*
X42761055Y-62884695D01*
X42743911Y-62871861D01*
X42725839Y-62860607D01*
X42706839Y-62850932D01*
X42686912Y-62842838D01*
X42680064Y-62840491D01*
X42659393Y-62834183D01*
X42638413Y-62829179D01*
X42617124Y-62825481D01*
X42595526Y-62823089D01*
X42573618Y-62822001D01*
X42566247Y-62821928D01*
X42541932Y-62822549D01*
X42518143Y-62824409D01*
X42494877Y-62827510D01*
X42472137Y-62831851D01*
X42449922Y-62837432D01*
X42428231Y-62844254D01*
X42419701Y-62847330D01*
X42399041Y-62855842D01*
X42379191Y-62865810D01*
X42360153Y-62877233D01*
X42341925Y-62890110D01*
X42324509Y-62904443D01*
X42307903Y-62920230D01*
X42301488Y-62926953D01*
X42286301Y-62944765D01*
X42272188Y-62964009D01*
X42259148Y-62984684D01*
X42249489Y-63002254D01*
X42240517Y-63020740D01*
X42232232Y-63040142D01*
X42224634Y-63060460D01*
X42222842Y-63065683D01*
X42216316Y-63087169D01*
X42210660Y-63109616D01*
X42205874Y-63133025D01*
X42201959Y-63157396D01*
X42198913Y-63182729D01*
X42197200Y-63202359D01*
X42195977Y-63222531D01*
X42195243Y-63243243D01*
X42194998Y-63264496D01*
X42194998Y-63947400D01*
X41941962Y-63947400D01*
X41941962Y-62603087D01*
G37*
G36*
X44135657Y-62572352D02*
G01*
X44160834Y-62573936D01*
X44185883Y-62576577D01*
X44210803Y-62580273D01*
X44235594Y-62585026D01*
X44260256Y-62590835D01*
X44284790Y-62597700D01*
X44309194Y-62605621D01*
X44333470Y-62614598D01*
X44357617Y-62624632D01*
X44373644Y-62631908D01*
X44397156Y-62643598D01*
X44419697Y-62656139D01*
X44441268Y-62669530D01*
X44461869Y-62683771D01*
X44481500Y-62698862D01*
X44500160Y-62714803D01*
X44517850Y-62731594D01*
X44534570Y-62749236D01*
X44550319Y-62767727D01*
X44565098Y-62787069D01*
X44574412Y-62800435D01*
X44580273Y-62800435D01*
X44580273Y-62603087D01*
X44833798Y-62603087D01*
X44833798Y-63940561D01*
X44833338Y-63969171D01*
X44831960Y-63997301D01*
X44829663Y-64024950D01*
X44826447Y-64052119D01*
X44822313Y-64078806D01*
X44817260Y-64105012D01*
X44811288Y-64130738D01*
X44804397Y-64155983D01*
X44796587Y-64180747D01*
X44787859Y-64205030D01*
X44781530Y-64220951D01*
X44771435Y-64244460D01*
X44760567Y-64267360D01*
X44748926Y-64289649D01*
X44736513Y-64311329D01*
X44723326Y-64332399D01*
X44709367Y-64352860D01*
X44694635Y-64372711D01*
X44679131Y-64391952D01*
X44662853Y-64410584D01*
X44645803Y-64428606D01*
X44634007Y-64440282D01*
X44615707Y-64457232D01*
X44596712Y-64473460D01*
X44577022Y-64488968D01*
X44556635Y-64503754D01*
X44535554Y-64517819D01*
X44513776Y-64531163D01*
X44491304Y-64543785D01*
X44468135Y-64555686D01*
X44444272Y-64566866D01*
X44419712Y-64577325D01*
X44402953Y-64583896D01*
X44377425Y-64593063D01*
X44351399Y-64601327D01*
X44324875Y-64608690D01*
X44297852Y-64615152D01*
X44270332Y-64620712D01*
X44242314Y-64625370D01*
X44213798Y-64629127D01*
X44184783Y-64631982D01*
X44165164Y-64633384D01*
X44145323Y-64634386D01*
X44125260Y-64634987D01*
X44104977Y-64635187D01*
X44081226Y-64634970D01*
X44057724Y-64634317D01*
X44034469Y-64633230D01*
X44011462Y-64631707D01*
X43988704Y-64629749D01*
X43966194Y-64627356D01*
X43943931Y-64624528D01*
X43921917Y-64621266D01*
X43900151Y-64617568D01*
X43878632Y-64613434D01*
X43857362Y-64608866D01*
X43836340Y-64603863D01*
X43815566Y-64598425D01*
X43795040Y-64592552D01*
X43774762Y-64586243D01*
X43754733Y-64579500D01*
X43734947Y-64572281D01*
X43715280Y-64564426D01*
X43695731Y-64555932D01*
X43676300Y-64546802D01*
X43656988Y-64537034D01*
X43637794Y-64526629D01*
X43618718Y-64515587D01*
X43599761Y-64503907D01*
X43580921Y-64491590D01*
X43562201Y-64478635D01*
X43543598Y-64465044D01*
X43525114Y-64450815D01*
X43506748Y-64435948D01*
X43488500Y-64420444D01*
X43470371Y-64404303D01*
X43452360Y-64387525D01*
X43623818Y-64166241D01*
X43642466Y-64186019D01*
X43661405Y-64204870D01*
X43680636Y-64222793D01*
X43700160Y-64239789D01*
X43719975Y-64255857D01*
X43740082Y-64270998D01*
X43760481Y-64285212D01*
X43781172Y-64298499D01*
X43802155Y-64310858D01*
X43823430Y-64322289D01*
X43837775Y-64329395D01*
X43859661Y-64339347D01*
X43882088Y-64348320D01*
X43905056Y-64356315D01*
X43928565Y-64363330D01*
X43952615Y-64369366D01*
X43977205Y-64374424D01*
X44002337Y-64378502D01*
X44028010Y-64381602D01*
X44054224Y-64383723D01*
X44080978Y-64384865D01*
X44099115Y-64385083D01*
X44125073Y-64384731D01*
X44150189Y-64383674D01*
X44174463Y-64381914D01*
X44197896Y-64379450D01*
X44220488Y-64376281D01*
X44242238Y-64372409D01*
X44263146Y-64367832D01*
X44283213Y-64362551D01*
X44302439Y-64356566D01*
X44320823Y-64349877D01*
X44332611Y-64345027D01*
X44355219Y-64334647D01*
X44376636Y-64323533D01*
X44396862Y-64311688D01*
X44415898Y-64299109D01*
X44433743Y-64285798D01*
X44450397Y-64271754D01*
X44465861Y-64256977D01*
X44480134Y-64241468D01*
X44493422Y-64225310D01*
X44505688Y-64208587D01*
X44516931Y-64191299D01*
X44527151Y-64173446D01*
X44536348Y-64155029D01*
X44544522Y-64136047D01*
X44551674Y-64116500D01*
X44557803Y-64096388D01*
X44563070Y-64075970D01*
X44567634Y-64055507D01*
X44571496Y-64034999D01*
X44574656Y-64014444D01*
X44577114Y-63993844D01*
X44578869Y-63973198D01*
X44579922Y-63952506D01*
X44580273Y-63931768D01*
X44580273Y-63738328D01*
X44571969Y-63738328D01*
X44557771Y-63760842D01*
X44542654Y-63782223D01*
X44526619Y-63802470D01*
X44509664Y-63821584D01*
X44491791Y-63839564D01*
X44472999Y-63856411D01*
X44453289Y-63872125D01*
X44432659Y-63886705D01*
X44411111Y-63900152D01*
X44388644Y-63912465D01*
X44373156Y-63920044D01*
X44349597Y-63930520D01*
X44325814Y-63939965D01*
X44301809Y-63948380D01*
X44277580Y-63955765D01*
X44253128Y-63962119D01*
X44228453Y-63967443D01*
X44203555Y-63971736D01*
X44178433Y-63974999D01*
X44153088Y-63977231D01*
X44127520Y-63978434D01*
X44110350Y-63978663D01*
X44083145Y-63978199D01*
X44056300Y-63976808D01*
X44029816Y-63974489D01*
X44003692Y-63971244D01*
X43977930Y-63967071D01*
X43952527Y-63961970D01*
X43927486Y-63955942D01*
X43902805Y-63948987D01*
X43878485Y-63941105D01*
X43854525Y-63932295D01*
X43838752Y-63925906D01*
X43815610Y-63915575D01*
X43793077Y-63904548D01*
X43771154Y-63892826D01*
X43749840Y-63880408D01*
X43729136Y-63867295D01*
X43709042Y-63853486D01*
X43689557Y-63838982D01*
X43670683Y-63823782D01*
X43652417Y-63807887D01*
X43634762Y-63791296D01*
X43623330Y-63779849D01*
X43606821Y-63762146D01*
X43590998Y-63743842D01*
X43575863Y-63724937D01*
X43561414Y-63705431D01*
X43547653Y-63685324D01*
X43534578Y-63664616D01*
X43522191Y-63643307D01*
X43510490Y-63621396D01*
X43499476Y-63598885D01*
X43489149Y-63575773D01*
X43482646Y-63560030D01*
X43473654Y-63535940D01*
X43465547Y-63511481D01*
X43458324Y-63486653D01*
X43451986Y-63461455D01*
X43446532Y-63435889D01*
X43441963Y-63409953D01*
X43438277Y-63383647D01*
X43435477Y-63356973D01*
X43433560Y-63329929D01*
X43432529Y-63302516D01*
X43432332Y-63284036D01*
X43432339Y-63283547D01*
X43702465Y-63283547D01*
X43702926Y-63308453D01*
X43704312Y-63332732D01*
X43706621Y-63356385D01*
X43709853Y-63379413D01*
X43714009Y-63401814D01*
X43719088Y-63423590D01*
X43725091Y-63444740D01*
X43732018Y-63465264D01*
X43739868Y-63485162D01*
X43748642Y-63504435D01*
X43758339Y-63523081D01*
X43768960Y-63541102D01*
X43780504Y-63558496D01*
X43792972Y-63575265D01*
X43806363Y-63591408D01*
X43820678Y-63606925D01*
X43835783Y-63621654D01*
X43851544Y-63635433D01*
X43867962Y-63648261D01*
X43885036Y-63660139D01*
X43902767Y-63671067D01*
X43921154Y-63681045D01*
X43940197Y-63690072D01*
X43959897Y-63698150D01*
X43980253Y-63705277D01*
X44001265Y-63711453D01*
X44022934Y-63716680D01*
X44045260Y-63720956D01*
X44068241Y-63724282D01*
X44091879Y-63726657D01*
X44116174Y-63728083D01*
X44141125Y-63728558D01*
X44166135Y-63728083D01*
X44190485Y-63726657D01*
X44214174Y-63724282D01*
X44237204Y-63720956D01*
X44259573Y-63716680D01*
X44281282Y-63711453D01*
X44302331Y-63705277D01*
X44322719Y-63698150D01*
X44342448Y-63690072D01*
X44361516Y-63681045D01*
X44379924Y-63671067D01*
X44397671Y-63660139D01*
X44414759Y-63648261D01*
X44431186Y-63635433D01*
X44446953Y-63621654D01*
X44462060Y-63606925D01*
X44476375Y-63591408D01*
X44489766Y-63575265D01*
X44502234Y-63558496D01*
X44513778Y-63541102D01*
X44524399Y-63523081D01*
X44534096Y-63504435D01*
X44542870Y-63485162D01*
X44550720Y-63465264D01*
X44557647Y-63444740D01*
X44563650Y-63423590D01*
X44568729Y-63401814D01*
X44572885Y-63379413D01*
X44576118Y-63356385D01*
X44578426Y-63332732D01*
X44579812Y-63308453D01*
X44580273Y-63283547D01*
X44579785Y-63258635D01*
X44578320Y-63234210D01*
X44575877Y-63210275D01*
X44572458Y-63186827D01*
X44568061Y-63163868D01*
X44562688Y-63141398D01*
X44556338Y-63119416D01*
X44549010Y-63097923D01*
X44540920Y-63076949D01*
X44532036Y-63056768D01*
X44522357Y-63037381D01*
X44511885Y-63018788D01*
X44500620Y-63000989D01*
X44488560Y-62983984D01*
X44475707Y-62967772D01*
X44462060Y-62952354D01*
X44447619Y-62937616D01*
X44432384Y-62923686D01*
X44416356Y-62910566D01*
X44399534Y-62898254D01*
X44381918Y-62886752D01*
X44363508Y-62876059D01*
X44344304Y-62866175D01*
X44324307Y-62857099D01*
X44303600Y-62848856D01*
X44282267Y-62841712D01*
X44260308Y-62835667D01*
X44237723Y-62830721D01*
X44214512Y-62826874D01*
X44190676Y-62824127D01*
X44166213Y-62822478D01*
X44141125Y-62821928D01*
X44116151Y-62822478D01*
X44091788Y-62824127D01*
X44068035Y-62826874D01*
X44044893Y-62830721D01*
X44022362Y-62835667D01*
X44000441Y-62841712D01*
X43979131Y-62848856D01*
X43958431Y-62857099D01*
X43938434Y-62866175D01*
X43919230Y-62876059D01*
X43900820Y-62886752D01*
X43883204Y-62898254D01*
X43866382Y-62910566D01*
X43850354Y-62923686D01*
X43835119Y-62937616D01*
X43820678Y-62952354D01*
X43807024Y-62967772D01*
X43794147Y-62983984D01*
X43782050Y-63000989D01*
X43770731Y-63018788D01*
X43760190Y-63037381D01*
X43750428Y-63056768D01*
X43741444Y-63076949D01*
X43733239Y-63097923D01*
X43726026Y-63119416D01*
X43719775Y-63141398D01*
X43714486Y-63163868D01*
X43710158Y-63186827D01*
X43706792Y-63210275D01*
X43704388Y-63234210D01*
X43702946Y-63258635D01*
X43702465Y-63283547D01*
X43432339Y-63283547D01*
X43432753Y-63256268D01*
X43434015Y-63228835D01*
X43436119Y-63201737D01*
X43439064Y-63174974D01*
X43442851Y-63148546D01*
X43447479Y-63122452D01*
X43452949Y-63096694D01*
X43459260Y-63071270D01*
X43466413Y-63046181D01*
X43474407Y-63021427D01*
X43480204Y-63005111D01*
X43489536Y-62980948D01*
X43499581Y-62957369D01*
X43510339Y-62934374D01*
X43521809Y-62911962D01*
X43533992Y-62890135D01*
X43546888Y-62868892D01*
X43560496Y-62848232D01*
X43574817Y-62828157D01*
X43589851Y-62808665D01*
X43605598Y-62789757D01*
X43616491Y-62777476D01*
X43633478Y-62759627D01*
X43651101Y-62742534D01*
X43669359Y-62726197D01*
X43688253Y-62710615D01*
X43707782Y-62695788D01*
X43727946Y-62681718D01*
X43748746Y-62668403D01*
X43770181Y-62655843D01*
X43792252Y-62644040D01*
X43814958Y-62632991D01*
X43830448Y-62626046D01*
X43854157Y-62616356D01*
X43878390Y-62607619D01*
X43903147Y-62599835D01*
X43928427Y-62593004D01*
X43954232Y-62587127D01*
X43980560Y-62582202D01*
X44007412Y-62578231D01*
X44034788Y-62575213D01*
X44062687Y-62573148D01*
X44091110Y-62572036D01*
X44110350Y-62571824D01*
X44135657Y-62572352D01*
G37*
G36*
X45226540Y-62603087D02*
G01*
X45479576Y-62603087D01*
X45479576Y-63947400D01*
X45226540Y-63947400D01*
X45226540Y-62603087D01*
G37*
G36*
X45167433Y-62134141D02*
G01*
X45168769Y-62110699D01*
X45172776Y-62088307D01*
X45179455Y-62066964D01*
X45188805Y-62046671D01*
X45200826Y-62027427D01*
X45215519Y-62009233D01*
X45222144Y-62002249D01*
X45239894Y-61986207D01*
X45258647Y-61972883D01*
X45278401Y-61962279D01*
X45299156Y-61954393D01*
X45320914Y-61949227D01*
X45343674Y-61946780D01*
X45353058Y-61946562D01*
X45376206Y-61947922D01*
X45398329Y-61952000D01*
X45419426Y-61958798D01*
X45439497Y-61968315D01*
X45458543Y-61980551D01*
X45476563Y-61995506D01*
X45483484Y-62002249D01*
X45499386Y-62020024D01*
X45512592Y-62038848D01*
X45523104Y-62058721D01*
X45530920Y-62079644D01*
X45536041Y-62101616D01*
X45538467Y-62124638D01*
X45538682Y-62134141D01*
X45537335Y-62157594D01*
X45533292Y-62180022D01*
X45526554Y-62201424D01*
X45517120Y-62221801D01*
X45504992Y-62241152D01*
X45490168Y-62259477D01*
X45483484Y-62266520D01*
X45465874Y-62282422D01*
X45447238Y-62295629D01*
X45427577Y-62306141D01*
X45406890Y-62313957D01*
X45385178Y-62319078D01*
X45362440Y-62321503D01*
X45353058Y-62321719D01*
X45329898Y-62320371D01*
X45307739Y-62316329D01*
X45286583Y-62309590D01*
X45266428Y-62300157D01*
X45247275Y-62288028D01*
X45229124Y-62273204D01*
X45222144Y-62266520D01*
X45206382Y-62248605D01*
X45193292Y-62229664D01*
X45182874Y-62209698D01*
X45175127Y-62188706D01*
X45170051Y-62166688D01*
X45167647Y-62143645D01*
X45167433Y-62134141D01*
G37*
G36*
X45879157Y-62603087D02*
G01*
X46132193Y-62603087D01*
X46132193Y-62812647D01*
X46138054Y-62812647D01*
X46147561Y-62792858D01*
X46158313Y-62773790D01*
X46170310Y-62755443D01*
X46183552Y-62737817D01*
X46198039Y-62720913D01*
X46213772Y-62704730D01*
X46230749Y-62689268D01*
X46248971Y-62674528D01*
X46268439Y-62660509D01*
X46289151Y-62647211D01*
X46303651Y-62638746D01*
X46326138Y-62626787D01*
X46349269Y-62616003D01*
X46373044Y-62606396D01*
X46397463Y-62597965D01*
X46422526Y-62590711D01*
X46448233Y-62584633D01*
X46474584Y-62579732D01*
X46501579Y-62576006D01*
X46529218Y-62573458D01*
X46557501Y-62572085D01*
X46576715Y-62571824D01*
X46600536Y-62572289D01*
X46624128Y-62573686D01*
X46647492Y-62576014D01*
X46670626Y-62579273D01*
X46693531Y-62583463D01*
X46716208Y-62588585D01*
X46738655Y-62594638D01*
X46760874Y-62601621D01*
X46782741Y-62609582D01*
X46803891Y-62618566D01*
X46824323Y-62628572D01*
X46844038Y-62639601D01*
X46863036Y-62651653D01*
X46881316Y-62664728D01*
X46898878Y-62678825D01*
X46915724Y-62693945D01*
X46931905Y-62710012D01*
X46947231Y-62727193D01*
X46961702Y-62745488D01*
X46975319Y-62764898D01*
X46988081Y-62785422D01*
X46999987Y-62807060D01*
X47011039Y-62829813D01*
X47021236Y-62853680D01*
X47028308Y-62872224D01*
X47034683Y-62891404D01*
X47040363Y-62911219D01*
X47045348Y-62931670D01*
X47049637Y-62952756D01*
X47053230Y-62974477D01*
X47056128Y-62996834D01*
X47058331Y-63019826D01*
X47059838Y-63043454D01*
X47060649Y-63067717D01*
X47060804Y-63084245D01*
X47060804Y-63947400D01*
X46807280Y-63947400D01*
X46807280Y-63163380D01*
X46806883Y-63140719D01*
X46805692Y-63118897D01*
X46803708Y-63097915D01*
X46800929Y-63077773D01*
X46797357Y-63058470D01*
X46791776Y-63035522D01*
X46784954Y-63013886D01*
X46781878Y-63005599D01*
X46773535Y-62985611D01*
X46764381Y-62966864D01*
X46754415Y-62949356D01*
X46741387Y-62929985D01*
X46727190Y-62912399D01*
X46714467Y-62899109D01*
X46698250Y-62884695D01*
X46681105Y-62871861D01*
X46663033Y-62860607D01*
X46644034Y-62850932D01*
X46624107Y-62842838D01*
X46617259Y-62840491D01*
X46596588Y-62834183D01*
X46575608Y-62829179D01*
X46554319Y-62825481D01*
X46532720Y-62823089D01*
X46510813Y-62822001D01*
X46503442Y-62821928D01*
X46479127Y-62822549D01*
X46455337Y-62824409D01*
X46432072Y-62827510D01*
X46409332Y-62831851D01*
X46387116Y-62837432D01*
X46365425Y-62844254D01*
X46356896Y-62847330D01*
X46336235Y-62855842D01*
X46316386Y-62865810D01*
X46297347Y-62877233D01*
X46279120Y-62890110D01*
X46261703Y-62904443D01*
X46245098Y-62920230D01*
X46238682Y-62926953D01*
X46223496Y-62944765D01*
X46209383Y-62964009D01*
X46196343Y-62984684D01*
X46186684Y-63002254D01*
X46177712Y-63020740D01*
X46169427Y-63040142D01*
X46161828Y-63060460D01*
X46160036Y-63065683D01*
X46153510Y-63087169D01*
X46147855Y-63109616D01*
X46143069Y-63133025D01*
X46139153Y-63157396D01*
X46136108Y-63182729D01*
X46134395Y-63202359D01*
X46133171Y-63222531D01*
X46132437Y-63243243D01*
X46132193Y-63264496D01*
X46132193Y-63947400D01*
X45879157Y-63947400D01*
X45879157Y-62603087D01*
G37*
G36*
X48066563Y-62572062D02*
G01*
X48088082Y-62572778D01*
X48109169Y-62573970D01*
X48129824Y-62575640D01*
X48150049Y-62577787D01*
X48169842Y-62580410D01*
X48189204Y-62583511D01*
X48217438Y-62589057D01*
X48244702Y-62595676D01*
X48270996Y-62603368D01*
X48296320Y-62612133D01*
X48320673Y-62621972D01*
X48344056Y-62632884D01*
X48366659Y-62644660D01*
X48388489Y-62657087D01*
X48409546Y-62670168D01*
X48429831Y-62683901D01*
X48449343Y-62698286D01*
X48468082Y-62713324D01*
X48486048Y-62729015D01*
X48503241Y-62745358D01*
X48519662Y-62762354D01*
X48535309Y-62780003D01*
X48545312Y-62792131D01*
X48559763Y-62810764D01*
X48573442Y-62829843D01*
X48586348Y-62849370D01*
X48598480Y-62869342D01*
X48609841Y-62889761D01*
X48620428Y-62910627D01*
X48630243Y-62931939D01*
X48639284Y-62953697D01*
X48647553Y-62975903D01*
X48655049Y-62998554D01*
X48659618Y-63013903D01*
X48665903Y-63037023D01*
X48671570Y-63060220D01*
X48676619Y-63083494D01*
X48681050Y-63106845D01*
X48684862Y-63130274D01*
X48688057Y-63153780D01*
X48690633Y-63177363D01*
X48692590Y-63201024D01*
X48693930Y-63224762D01*
X48694651Y-63248577D01*
X48694788Y-63264496D01*
X48694788Y-63353401D01*
X47625493Y-63353401D01*
X47626089Y-63375986D01*
X47627875Y-63398067D01*
X47630851Y-63419644D01*
X47635019Y-63440718D01*
X47640377Y-63461288D01*
X47646926Y-63481354D01*
X47654665Y-63500916D01*
X47663595Y-63519975D01*
X47673487Y-63538323D01*
X47684112Y-63556000D01*
X47695469Y-63573006D01*
X47707559Y-63589339D01*
X47720382Y-63605002D01*
X47733937Y-63619992D01*
X47748225Y-63634311D01*
X47763246Y-63647958D01*
X47779061Y-63660788D01*
X47795486Y-63672901D01*
X47812522Y-63684297D01*
X47830169Y-63694975D01*
X47848426Y-63704935D01*
X47867294Y-63714178D01*
X47886772Y-63722704D01*
X47906861Y-63730512D01*
X47927347Y-63737381D01*
X47948016Y-63743335D01*
X47968868Y-63748372D01*
X47989904Y-63752494D01*
X48011122Y-63755699D01*
X48032524Y-63757989D01*
X48054109Y-63759363D01*
X48075877Y-63759821D01*
X48097767Y-63759370D01*
X48119108Y-63758018D01*
X48139899Y-63755764D01*
X48160141Y-63752608D01*
X48179833Y-63748551D01*
X48198975Y-63743592D01*
X48223644Y-63735578D01*
X48247336Y-63725961D01*
X48270050Y-63714741D01*
X48281041Y-63708530D01*
X48302679Y-63695074D01*
X48323875Y-63680595D01*
X48344628Y-63665093D01*
X48359902Y-63652795D01*
X48374928Y-63639923D01*
X48389704Y-63626474D01*
X48404231Y-63612451D01*
X48418509Y-63597852D01*
X48432538Y-63582678D01*
X48441753Y-63572242D01*
X48632751Y-63713903D01*
X48619397Y-63730192D01*
X48605712Y-63745964D01*
X48591698Y-63761219D01*
X48577353Y-63775956D01*
X48562679Y-63790177D01*
X48547674Y-63803880D01*
X48532339Y-63817066D01*
X48516674Y-63829736D01*
X48500679Y-63841888D01*
X48484354Y-63853522D01*
X48467699Y-63864640D01*
X48450714Y-63875241D01*
X48433398Y-63885325D01*
X48415752Y-63894891D01*
X48397777Y-63903940D01*
X48379471Y-63912473D01*
X48360835Y-63920488D01*
X48341869Y-63927986D01*
X48322573Y-63934967D01*
X48302947Y-63941431D01*
X48282990Y-63947378D01*
X48262704Y-63952807D01*
X48242087Y-63957720D01*
X48221141Y-63962115D01*
X48199864Y-63965993D01*
X48178257Y-63969355D01*
X48156320Y-63972199D01*
X48134053Y-63974526D01*
X48111455Y-63976336D01*
X48088528Y-63977628D01*
X48065271Y-63978404D01*
X48041683Y-63978663D01*
X48022136Y-63978453D01*
X47993245Y-63977351D01*
X47964869Y-63975304D01*
X47937008Y-63972313D01*
X47909662Y-63968378D01*
X47882832Y-63963498D01*
X47856516Y-63957673D01*
X47830716Y-63950904D01*
X47805432Y-63943190D01*
X47780662Y-63934532D01*
X47756407Y-63924929D01*
X47732754Y-63914498D01*
X47709788Y-63903354D01*
X47687508Y-63891497D01*
X47665915Y-63878928D01*
X47645010Y-63865645D01*
X47624791Y-63851651D01*
X47605259Y-63836943D01*
X47586414Y-63821523D01*
X47568257Y-63805390D01*
X47550786Y-63788544D01*
X47539520Y-63776918D01*
X47523298Y-63758853D01*
X47507789Y-63740196D01*
X47492993Y-63720946D01*
X47478909Y-63701103D01*
X47465539Y-63680669D01*
X47452880Y-63659641D01*
X47440935Y-63638022D01*
X47429702Y-63615809D01*
X47419182Y-63593005D01*
X47409375Y-63569607D01*
X47403232Y-63553680D01*
X47394677Y-63529403D01*
X47386963Y-63504748D01*
X47380091Y-63479715D01*
X47374061Y-63454304D01*
X47368871Y-63428515D01*
X47364524Y-63402349D01*
X47361017Y-63375804D01*
X47358353Y-63348882D01*
X47356529Y-63321583D01*
X47355548Y-63293905D01*
X47355361Y-63275243D01*
X47355816Y-63247314D01*
X47357181Y-63219762D01*
X47359457Y-63192588D01*
X47362638Y-63165822D01*
X47625493Y-63165822D01*
X48424656Y-63165822D01*
X48423595Y-63145642D01*
X48421878Y-63125889D01*
X48418808Y-63101798D01*
X48414713Y-63078376D01*
X48409592Y-63055621D01*
X48403445Y-63033534D01*
X48397789Y-63016346D01*
X48389725Y-62995557D01*
X48380492Y-62975626D01*
X48370090Y-62956554D01*
X48358520Y-62938341D01*
X48345780Y-62920986D01*
X48331872Y-62904490D01*
X48325982Y-62898132D01*
X48310438Y-62882946D01*
X48293725Y-62868833D01*
X48275843Y-62855793D01*
X48256792Y-62843826D01*
X48236573Y-62832933D01*
X48215185Y-62823113D01*
X48206303Y-62819486D01*
X48183419Y-62811183D01*
X48164254Y-62805554D01*
X48144325Y-62800826D01*
X48123633Y-62796998D01*
X48102178Y-62794071D01*
X48079960Y-62792044D01*
X48056978Y-62790919D01*
X48039241Y-62790665D01*
X48016274Y-62791200D01*
X47993781Y-62792803D01*
X47971761Y-62795474D01*
X47950214Y-62799214D01*
X47929141Y-62804022D01*
X47908540Y-62809900D01*
X47888413Y-62816845D01*
X47868759Y-62824859D01*
X47849830Y-62833614D01*
X47831634Y-62843025D01*
X47814171Y-62853092D01*
X47797440Y-62863816D01*
X47781442Y-62875196D01*
X47762475Y-62890345D01*
X47744653Y-62906519D01*
X47737845Y-62913275D01*
X47721778Y-62930518D01*
X47706857Y-62948357D01*
X47693080Y-62966792D01*
X47680448Y-62985823D01*
X47668961Y-63005451D01*
X47658619Y-63025675D01*
X47654802Y-63033931D01*
X47646359Y-63054668D01*
X47639346Y-63075357D01*
X47633765Y-63095999D01*
X47629615Y-63116592D01*
X47626896Y-63137138D01*
X47625608Y-63157636D01*
X47625493Y-63165822D01*
X47362638Y-63165822D01*
X47362642Y-63165792D01*
X47366738Y-63139374D01*
X47371744Y-63113333D01*
X47377660Y-63087670D01*
X47384487Y-63062386D01*
X47392223Y-63037478D01*
X47400870Y-63012949D01*
X47407140Y-62996806D01*
X47417284Y-62973018D01*
X47428115Y-62949832D01*
X47439632Y-62927246D01*
X47451837Y-62905261D01*
X47464728Y-62883877D01*
X47478306Y-62863095D01*
X47492572Y-62842913D01*
X47507524Y-62823333D01*
X47523163Y-62804353D01*
X47539489Y-62785975D01*
X47550755Y-62774057D01*
X47568279Y-62756649D01*
X47586413Y-62739962D01*
X47605156Y-62723997D01*
X47624509Y-62708752D01*
X47644471Y-62694230D01*
X47665043Y-62680428D01*
X47686225Y-62667348D01*
X47708017Y-62654988D01*
X47730418Y-62643351D01*
X47753429Y-62632434D01*
X47769108Y-62625557D01*
X47793028Y-62615954D01*
X47817342Y-62607296D01*
X47842052Y-62599583D01*
X47867156Y-62592813D01*
X47892656Y-62586989D01*
X47918550Y-62582109D01*
X47944840Y-62578173D01*
X47971524Y-62575182D01*
X47998604Y-62573136D01*
X48026078Y-62572034D01*
X48044614Y-62571824D01*
X48066563Y-62572062D01*
G37*
G36*
X49621902Y-62572062D02*
G01*
X49643420Y-62572778D01*
X49664507Y-62573970D01*
X49685163Y-62575640D01*
X49705387Y-62577787D01*
X49725180Y-62580410D01*
X49744542Y-62583511D01*
X49772777Y-62589057D01*
X49800041Y-62595676D01*
X49826335Y-62603368D01*
X49851658Y-62612133D01*
X49876011Y-62621972D01*
X49899394Y-62632884D01*
X49921997Y-62644660D01*
X49943827Y-62657087D01*
X49964885Y-62670168D01*
X49985169Y-62683901D01*
X50004681Y-62698286D01*
X50023420Y-62713324D01*
X50041386Y-62729015D01*
X50058579Y-62745358D01*
X50075000Y-62762354D01*
X50090648Y-62780003D01*
X50100650Y-62792131D01*
X50115102Y-62810764D01*
X50128780Y-62829843D01*
X50141686Y-62849370D01*
X50153819Y-62869342D01*
X50165179Y-62889761D01*
X50175766Y-62910627D01*
X50185581Y-62931939D01*
X50194623Y-62953697D01*
X50202892Y-62975903D01*
X50210388Y-62998554D01*
X50214956Y-63013903D01*
X50221241Y-63037023D01*
X50226909Y-63060220D01*
X50231958Y-63083494D01*
X50236388Y-63106845D01*
X50240201Y-63130274D01*
X50243395Y-63153780D01*
X50245971Y-63177363D01*
X50247929Y-63201024D01*
X50249268Y-63224762D01*
X50249990Y-63248577D01*
X50250127Y-63264496D01*
X50250127Y-63353401D01*
X49180832Y-63353401D01*
X49181427Y-63375986D01*
X49183213Y-63398067D01*
X49186190Y-63419644D01*
X49190357Y-63440718D01*
X49195715Y-63461288D01*
X49202264Y-63481354D01*
X49210003Y-63500916D01*
X49218934Y-63519975D01*
X49228825Y-63538323D01*
X49239450Y-63556000D01*
X49250807Y-63573006D01*
X49262897Y-63589339D01*
X49275720Y-63605002D01*
X49289276Y-63619992D01*
X49303564Y-63634311D01*
X49318585Y-63647958D01*
X49334399Y-63660788D01*
X49350825Y-63672901D01*
X49367861Y-63684297D01*
X49385507Y-63694975D01*
X49403764Y-63704935D01*
X49422632Y-63714178D01*
X49442111Y-63722704D01*
X49462200Y-63730512D01*
X49482685Y-63737381D01*
X49503354Y-63743335D01*
X49524207Y-63748372D01*
X49545242Y-63752494D01*
X49566461Y-63755699D01*
X49587862Y-63757989D01*
X49609447Y-63759363D01*
X49631216Y-63759821D01*
X49653106Y-63759370D01*
X49674447Y-63758018D01*
X49695238Y-63755764D01*
X49715479Y-63752608D01*
X49735171Y-63748551D01*
X49754314Y-63743592D01*
X49778982Y-63735578D01*
X49802674Y-63725961D01*
X49825389Y-63714741D01*
X49836380Y-63708530D01*
X49858018Y-63695074D01*
X49879214Y-63680595D01*
X49899967Y-63665093D01*
X49915241Y-63652795D01*
X49930266Y-63639923D01*
X49945042Y-63626474D01*
X49959570Y-63612451D01*
X49973848Y-63597852D01*
X49987877Y-63582678D01*
X49997091Y-63572242D01*
X50188089Y-63713903D01*
X50174735Y-63730192D01*
X50161051Y-63745964D01*
X50147036Y-63761219D01*
X50132692Y-63775956D01*
X50118017Y-63790177D01*
X50103013Y-63803880D01*
X50087678Y-63817066D01*
X50072013Y-63829736D01*
X50056018Y-63841888D01*
X50039693Y-63853522D01*
X50023037Y-63864640D01*
X50006052Y-63875241D01*
X49988737Y-63885325D01*
X49971091Y-63894891D01*
X49953115Y-63903940D01*
X49934809Y-63912473D01*
X49916173Y-63920488D01*
X49897207Y-63927986D01*
X49877911Y-63934967D01*
X49858285Y-63941431D01*
X49838329Y-63947378D01*
X49818042Y-63952807D01*
X49797426Y-63957720D01*
X49776479Y-63962115D01*
X49755202Y-63965993D01*
X49733595Y-63969355D01*
X49711658Y-63972199D01*
X49689391Y-63974526D01*
X49666794Y-63976336D01*
X49643867Y-63977628D01*
X49620609Y-63978404D01*
X49597022Y-63978663D01*
X49577474Y-63978453D01*
X49548583Y-63977351D01*
X49520207Y-63975304D01*
X49492346Y-63972313D01*
X49465001Y-63968378D01*
X49438170Y-63963498D01*
X49411855Y-63957673D01*
X49386055Y-63950904D01*
X49360770Y-63943190D01*
X49336000Y-63934532D01*
X49311746Y-63924929D01*
X49288093Y-63914498D01*
X49265126Y-63903354D01*
X49242847Y-63891497D01*
X49221254Y-63878928D01*
X49200348Y-63865645D01*
X49180130Y-63851651D01*
X49160598Y-63836943D01*
X49141753Y-63821523D01*
X49123595Y-63805390D01*
X49106124Y-63788544D01*
X49094858Y-63776918D01*
X49078637Y-63758853D01*
X49063128Y-63740196D01*
X49048331Y-63720946D01*
X49034248Y-63701103D01*
X49020877Y-63680669D01*
X49008219Y-63659641D01*
X48996273Y-63638022D01*
X48985041Y-63615809D01*
X48974520Y-63593005D01*
X48964713Y-63569607D01*
X48958571Y-63553680D01*
X48950016Y-63529403D01*
X48942302Y-63504748D01*
X48935430Y-63479715D01*
X48929399Y-63454304D01*
X48924210Y-63428515D01*
X48919862Y-63402349D01*
X48916356Y-63375804D01*
X48913691Y-63348882D01*
X48911868Y-63321583D01*
X48910886Y-63293905D01*
X48910699Y-63275243D01*
X48911154Y-63247314D01*
X48912520Y-63219762D01*
X48914795Y-63192588D01*
X48917977Y-63165822D01*
X49180832Y-63165822D01*
X49979994Y-63165822D01*
X49978933Y-63145642D01*
X49977216Y-63125889D01*
X49974146Y-63101798D01*
X49970051Y-63078376D01*
X49964930Y-63055621D01*
X49958783Y-63033534D01*
X49953128Y-63016346D01*
X49945063Y-62995557D01*
X49935830Y-62975626D01*
X49925428Y-62956554D01*
X49913858Y-62938341D01*
X49901119Y-62920986D01*
X49887211Y-62904490D01*
X49881320Y-62898132D01*
X49865776Y-62882946D01*
X49849063Y-62868833D01*
X49831181Y-62855793D01*
X49812131Y-62843826D01*
X49791912Y-62832933D01*
X49770524Y-62823113D01*
X49761641Y-62819486D01*
X49738758Y-62811183D01*
X49719592Y-62805554D01*
X49699664Y-62800826D01*
X49678972Y-62796998D01*
X49657516Y-62794071D01*
X49635298Y-62792044D01*
X49612316Y-62790919D01*
X49594579Y-62790665D01*
X49571613Y-62791200D01*
X49549119Y-62792803D01*
X49527099Y-62795474D01*
X49505553Y-62799214D01*
X49484479Y-62804022D01*
X49463879Y-62809900D01*
X49443752Y-62816845D01*
X49424098Y-62824859D01*
X49405169Y-62833614D01*
X49386973Y-62843025D01*
X49369509Y-62853092D01*
X49352779Y-62863816D01*
X49336781Y-62875196D01*
X49317814Y-62890345D01*
X49299992Y-62906519D01*
X49293183Y-62913275D01*
X49277117Y-62930518D01*
X49262195Y-62948357D01*
X49248418Y-62966792D01*
X49235786Y-62985823D01*
X49224299Y-63005451D01*
X49213957Y-63025675D01*
X49210141Y-63033931D01*
X49201697Y-63054668D01*
X49194685Y-63075357D01*
X49189104Y-63095999D01*
X49184953Y-63116592D01*
X49182234Y-63137138D01*
X49180946Y-63157636D01*
X49180832Y-63165822D01*
X48917977Y-63165822D01*
X48917981Y-63165792D01*
X48922076Y-63139374D01*
X48927083Y-63113333D01*
X48932999Y-63087670D01*
X48939825Y-63062386D01*
X48947562Y-63037478D01*
X48956208Y-63012949D01*
X48962479Y-62996806D01*
X48972622Y-62973018D01*
X48983453Y-62949832D01*
X48994971Y-62927246D01*
X49007175Y-62905261D01*
X49020067Y-62883877D01*
X49033645Y-62863095D01*
X49047910Y-62842913D01*
X49062862Y-62823333D01*
X49078502Y-62804353D01*
X49094828Y-62785975D01*
X49106093Y-62774057D01*
X49123617Y-62756649D01*
X49141751Y-62739962D01*
X49160494Y-62723997D01*
X49179847Y-62708752D01*
X49199810Y-62694230D01*
X49220382Y-62680428D01*
X49241564Y-62667348D01*
X49263355Y-62654988D01*
X49285756Y-62643351D01*
X49308767Y-62632434D01*
X49324447Y-62625557D01*
X49348366Y-62615954D01*
X49372681Y-62607296D01*
X49397390Y-62599583D01*
X49422495Y-62592813D01*
X49447994Y-62586989D01*
X49473889Y-62582109D01*
X49500178Y-62578173D01*
X49526863Y-62575182D01*
X49553942Y-62573136D01*
X49581417Y-62572034D01*
X49599952Y-62571824D01*
X49621902Y-62572062D01*
G37*
G36*
X50545172Y-62603087D02*
G01*
X50798208Y-62603087D01*
X50798208Y-62812647D01*
X50804070Y-62812647D01*
X50814013Y-62792841D01*
X50825159Y-62773721D01*
X50837506Y-62755288D01*
X50851056Y-62737543D01*
X50865808Y-62720484D01*
X50870992Y-62714950D01*
X50887255Y-62698910D01*
X50904171Y-62683763D01*
X50921739Y-62669509D01*
X50939960Y-62656149D01*
X50958834Y-62643681D01*
X50965270Y-62639723D01*
X50985214Y-62628463D01*
X51005845Y-62618131D01*
X51027163Y-62608725D01*
X51045452Y-62601596D01*
X51064219Y-62595111D01*
X51079576Y-62590386D01*
X51098962Y-62585039D01*
X51118349Y-62580597D01*
X51137736Y-62577063D01*
X51157123Y-62574434D01*
X51180387Y-62572476D01*
X51203651Y-62571824D01*
X51226354Y-62572373D01*
X51248302Y-62574022D01*
X51269494Y-62576770D01*
X51289930Y-62580617D01*
X51309610Y-62585562D01*
X51316003Y-62587455D01*
X51304768Y-62841468D01*
X51285486Y-62836564D01*
X51266108Y-62832232D01*
X51246636Y-62828473D01*
X51242730Y-62827790D01*
X51221515Y-62824453D01*
X51200184Y-62822501D01*
X51180692Y-62821928D01*
X51157829Y-62822346D01*
X51135645Y-62823600D01*
X51114140Y-62825689D01*
X51093314Y-62828615D01*
X51073168Y-62832376D01*
X51053701Y-62836972D01*
X51034914Y-62842405D01*
X51008006Y-62852121D01*
X50982626Y-62863717D01*
X50958776Y-62877194D01*
X50936453Y-62892551D01*
X50915659Y-62909789D01*
X50896393Y-62928907D01*
X50878847Y-62949917D01*
X50863026Y-62973014D01*
X50848931Y-62998197D01*
X50840493Y-63016145D01*
X50832822Y-63035020D01*
X50825918Y-63054823D01*
X50819782Y-63075553D01*
X50814412Y-63097211D01*
X50809810Y-63119795D01*
X50805975Y-63143308D01*
X50802906Y-63167747D01*
X50800605Y-63193114D01*
X50799071Y-63219408D01*
X50798304Y-63246630D01*
X50798208Y-63260589D01*
X50798208Y-63947400D01*
X50545172Y-63947400D01*
X50545172Y-62603087D01*
G37*
D13*
D14*
G36*
X30396847Y-58338980D02*
G01*
X30367622Y-58305373D01*
X30336794Y-58273797D01*
X30304363Y-58244252D01*
X30270329Y-58216736D01*
X30234693Y-58191251D01*
X30197453Y-58167796D01*
X30158611Y-58146371D01*
X30118166Y-58126977D01*
X30076118Y-58109746D01*
X30043530Y-58098331D01*
X30010041Y-58088208D01*
X29975650Y-58079377D01*
X29940357Y-58071839D01*
X29904163Y-58065593D01*
X29867067Y-58060639D01*
X29829070Y-58056978D01*
X29790171Y-58054609D01*
X29750370Y-58053532D01*
X29736903Y-58053460D01*
X29696476Y-58054196D01*
X29656620Y-58056405D01*
X29617336Y-58060087D01*
X29578622Y-58065241D01*
X29540479Y-58071867D01*
X29502908Y-58079967D01*
X29465907Y-58089539D01*
X29429478Y-58100583D01*
X29393619Y-58113101D01*
X29358331Y-58127090D01*
X29335123Y-58137235D01*
X29300938Y-58153529D01*
X29267624Y-58170995D01*
X29235181Y-58189633D01*
X29203610Y-58209443D01*
X29172911Y-58230425D01*
X29143083Y-58252580D01*
X29114126Y-58275906D01*
X29086042Y-58300405D01*
X29058828Y-58326075D01*
X29032487Y-58352918D01*
X29015410Y-58371464D01*
X28990596Y-58400017D01*
X28966803Y-58429577D01*
X28944033Y-58460144D01*
X28922284Y-58491717D01*
X28901558Y-58524298D01*
X28881853Y-58557885D01*
X28863169Y-58592479D01*
X28845508Y-58628079D01*
X28828869Y-58664687D01*
X28813251Y-58702301D01*
X28803407Y-58727936D01*
X28789810Y-58766873D01*
X28777551Y-58806426D01*
X28766629Y-58846594D01*
X28757045Y-58887379D01*
X28748797Y-58928780D01*
X28741888Y-58970797D01*
X28736315Y-59013430D01*
X28732080Y-59056680D01*
X28729183Y-59100545D01*
X28727622Y-59145026D01*
X28727325Y-59175023D01*
X28727994Y-59220817D01*
X28730000Y-59265874D01*
X28733343Y-59310195D01*
X28738024Y-59353780D01*
X28744042Y-59396629D01*
X28751398Y-59438741D01*
X28760091Y-59480117D01*
X28770121Y-59520756D01*
X28781489Y-59560660D01*
X28794194Y-59599827D01*
X28803407Y-59625529D01*
X28818321Y-59663211D01*
X28834211Y-59699961D01*
X28851079Y-59735780D01*
X28868923Y-59770666D01*
X28887744Y-59804622D01*
X28907542Y-59837645D01*
X28928316Y-59869737D01*
X28950067Y-59900897D01*
X28972795Y-59931126D01*
X28996499Y-59960423D01*
X29012845Y-59979437D01*
X29038255Y-60006908D01*
X29064477Y-60033222D01*
X29091510Y-60058379D01*
X29119354Y-60082379D01*
X29148010Y-60105222D01*
X29177477Y-60126908D01*
X29207756Y-60147437D01*
X29238846Y-60166809D01*
X29270748Y-60185024D01*
X29303461Y-60202082D01*
X29325720Y-60212811D01*
X29359620Y-60227782D01*
X29394001Y-60241281D01*
X29428863Y-60253308D01*
X29464206Y-60263861D01*
X29500029Y-60272943D01*
X29536334Y-60280551D01*
X29573119Y-60286687D01*
X29610385Y-60291350D01*
X29648132Y-60294541D01*
X29686360Y-60296259D01*
X29712112Y-60296586D01*
X29755877Y-60295722D01*
X29798696Y-60293130D01*
X29840568Y-60288810D01*
X29881493Y-60282762D01*
X29921471Y-60274985D01*
X29960503Y-60265481D01*
X29998588Y-60254249D01*
X30035726Y-60241288D01*
X30071918Y-60226599D01*
X30107163Y-60210183D01*
X30130134Y-60198278D01*
X30163864Y-60179147D01*
X30196452Y-60158618D01*
X30227897Y-60136692D01*
X30258201Y-60113368D01*
X30287363Y-60088646D01*
X30315383Y-60062528D01*
X30342260Y-60035011D01*
X30367996Y-60006097D01*
X30392590Y-59975786D01*
X30416041Y-59944077D01*
X30431041Y-59922162D01*
X31071324Y-60400023D01*
X31043184Y-60438284D01*
X31014116Y-60475276D01*
X30984119Y-60511000D01*
X30953194Y-60545454D01*
X30921341Y-60578640D01*
X30888559Y-60610556D01*
X30854850Y-60641204D01*
X30820212Y-60670583D01*
X30784645Y-60698693D01*
X30748150Y-60725534D01*
X30710727Y-60751106D01*
X30672376Y-60775409D01*
X30633096Y-60798443D01*
X30592888Y-60820208D01*
X30551752Y-60840705D01*
X30509687Y-60859932D01*
X30467185Y-60877841D01*
X30424523Y-60894594D01*
X30381700Y-60910191D01*
X30338717Y-60924634D01*
X30295574Y-60937921D01*
X30252271Y-60950052D01*
X30208807Y-60961028D01*
X30165183Y-60970849D01*
X30121398Y-60979514D01*
X30077454Y-60987024D01*
X30033349Y-60993379D01*
X29989084Y-60998578D01*
X29944658Y-61002622D01*
X29900072Y-61005511D01*
X29855326Y-61007244D01*
X29810420Y-61007821D01*
X29759593Y-61007320D01*
X29709267Y-61005818D01*
X29659442Y-61003313D01*
X29610118Y-60999807D01*
X29561295Y-60995299D01*
X29512972Y-60989789D01*
X29465151Y-60983278D01*
X29417830Y-60975764D01*
X29371010Y-60967249D01*
X29324692Y-60957732D01*
X29278874Y-60947214D01*
X29233557Y-60935693D01*
X29188740Y-60923171D01*
X29144425Y-60909647D01*
X29100611Y-60895121D01*
X29057297Y-60879594D01*
X29014598Y-60863135D01*
X28972627Y-60845814D01*
X28931384Y-60827632D01*
X28890869Y-60808588D01*
X28851081Y-60788683D01*
X28812022Y-60767916D01*
X28773691Y-60746287D01*
X28736087Y-60723797D01*
X28699212Y-60700446D01*
X28663064Y-60676233D01*
X28627645Y-60651159D01*
X28592953Y-60625223D01*
X28558990Y-60598425D01*
X28525754Y-60570766D01*
X28493246Y-60542245D01*
X28461467Y-60512863D01*
X28430485Y-60482553D01*
X28400372Y-60451461D01*
X28371126Y-60419588D01*
X28342749Y-60386933D01*
X28315241Y-60353497D01*
X28288600Y-60319280D01*
X28262828Y-60284281D01*
X28237924Y-60248501D01*
X28213888Y-60211939D01*
X28190720Y-60174596D01*
X28168420Y-60136472D01*
X28146989Y-60097566D01*
X28126426Y-60057879D01*
X28106731Y-60017411D01*
X28087904Y-59976161D01*
X28069945Y-59934130D01*
X28052969Y-59891294D01*
X28037087Y-59847843D01*
X28022301Y-59803778D01*
X28008610Y-59759099D01*
X27996014Y-59713806D01*
X27984514Y-59667897D01*
X27974109Y-59621375D01*
X27964799Y-59574238D01*
X27956584Y-59526487D01*
X27949465Y-59478121D01*
X27943441Y-59429140D01*
X27938512Y-59379546D01*
X27934679Y-59329337D01*
X27931941Y-59278513D01*
X27930298Y-59227075D01*
X27929750Y-59175023D01*
X27930298Y-59122974D01*
X27931941Y-59071546D01*
X27934679Y-59020739D01*
X27938512Y-58970554D01*
X27943441Y-58920989D01*
X27949465Y-58872045D01*
X27956584Y-58823723D01*
X27964799Y-58776022D01*
X27974109Y-58728942D01*
X27984514Y-58682482D01*
X27996014Y-58636644D01*
X28008610Y-58591428D01*
X28022301Y-58546832D01*
X28037087Y-58502857D01*
X28052969Y-58459504D01*
X28069945Y-58416771D01*
X28087904Y-58374640D01*
X28106731Y-58333303D01*
X28126426Y-58292761D01*
X28146989Y-58253014D01*
X28168420Y-58214061D01*
X28190720Y-58175904D01*
X28213888Y-58138541D01*
X28237924Y-58101973D01*
X28262828Y-58066199D01*
X28288600Y-58031220D01*
X28315241Y-57997036D01*
X28342749Y-57963647D01*
X28371126Y-57931053D01*
X28400372Y-57899253D01*
X28430485Y-57868248D01*
X28461467Y-57838038D01*
X28493246Y-57808552D01*
X28525754Y-57779935D01*
X28558990Y-57752185D01*
X28592953Y-57725304D01*
X28627645Y-57699291D01*
X28663064Y-57674147D01*
X28699212Y-57649870D01*
X28736087Y-57626462D01*
X28773691Y-57603922D01*
X28812022Y-57582250D01*
X28851081Y-57561447D01*
X28890869Y-57541512D01*
X28931384Y-57522444D01*
X28972627Y-57504245D01*
X29014598Y-57486915D01*
X29057297Y-57470452D01*
X29100611Y-57454925D01*
X29144425Y-57440399D01*
X29188740Y-57426875D01*
X29233557Y-57414353D01*
X29278874Y-57402832D01*
X29324692Y-57392314D01*
X29371010Y-57382797D01*
X29417830Y-57374282D01*
X29465151Y-57366768D01*
X29512972Y-57360257D01*
X29561295Y-57354747D01*
X29610118Y-57350239D01*
X29659442Y-57346733D01*
X29709267Y-57344228D01*
X29759593Y-57342726D01*
X29810420Y-57342225D01*
X29847579Y-57342652D01*
X29885113Y-57343934D01*
X29923020Y-57346071D01*
X29961301Y-57349063D01*
X29999956Y-57352910D01*
X30038986Y-57357612D01*
X30078389Y-57363168D01*
X30118166Y-57369580D01*
X30158050Y-57376913D01*
X30197774Y-57385234D01*
X30237337Y-57394544D01*
X30276741Y-57404842D01*
X30315984Y-57416129D01*
X30355066Y-57428404D01*
X30393989Y-57441668D01*
X30432751Y-57455920D01*
X30471446Y-57471294D01*
X30509741Y-57487923D01*
X30547635Y-57505808D01*
X30585128Y-57524949D01*
X30622220Y-57545345D01*
X30658912Y-57566997D01*
X30695203Y-57589904D01*
X30731093Y-57614067D01*
X30766329Y-57639352D01*
X30800657Y-57666052D01*
X30834076Y-57694169D01*
X30866587Y-57723701D01*
X30898190Y-57754650D01*
X30928884Y-57787014D01*
X30958671Y-57820794D01*
X30987548Y-57855989D01*
X30396847Y-58338980D01*
G37*
G36*
X32652990Y-58436780D02*
G01*
X32704095Y-58438603D01*
X32754630Y-58441989D01*
X32804594Y-58446938D01*
X32853986Y-58453449D01*
X32902808Y-58461524D01*
X32951059Y-58471161D01*
X32998738Y-58482361D01*
X33045847Y-58495123D01*
X33092384Y-58509449D01*
X33138351Y-58525337D01*
X33183468Y-58542683D01*
X33227459Y-58561381D01*
X33270323Y-58581432D01*
X33312059Y-58602834D01*
X33352669Y-58625590D01*
X33392151Y-58649698D01*
X33430507Y-58675158D01*
X33467735Y-58701970D01*
X33503837Y-58730135D01*
X33538811Y-58759653D01*
X33561502Y-58780082D01*
X33594493Y-58811603D01*
X33626146Y-58844296D01*
X33656463Y-58878161D01*
X33685442Y-58913198D01*
X33713083Y-58949408D01*
X33739387Y-58986789D01*
X33764354Y-59025342D01*
X33787983Y-59065068D01*
X33810276Y-59105965D01*
X33831230Y-59148035D01*
X33844457Y-59176733D01*
X33862942Y-59220651D01*
X33879609Y-59265530D01*
X33894458Y-59311372D01*
X33907489Y-59358175D01*
X33918701Y-59405939D01*
X33928095Y-59454666D01*
X33935671Y-59504354D01*
X33941429Y-59555004D01*
X33944257Y-59589305D01*
X33946278Y-59624033D01*
X33947490Y-59659189D01*
X33947894Y-59694772D01*
X33947490Y-59730355D01*
X33946278Y-59765511D01*
X33944257Y-59800239D01*
X33941429Y-59834540D01*
X33935671Y-59885190D01*
X33928095Y-59934878D01*
X33918701Y-59983604D01*
X33907489Y-60031369D01*
X33894458Y-60078172D01*
X33879609Y-60124013D01*
X33862942Y-60168893D01*
X33844457Y-60212811D01*
X33824394Y-60255669D01*
X33802993Y-60297371D01*
X33780256Y-60337915D01*
X33756180Y-60377303D01*
X33730768Y-60415533D01*
X33704018Y-60452606D01*
X33675931Y-60488522D01*
X33646506Y-60523282D01*
X33615744Y-60556884D01*
X33583644Y-60589329D01*
X33561502Y-60610316D01*
X33527278Y-60640582D01*
X33491928Y-60669511D01*
X33455451Y-60697103D01*
X33417847Y-60723357D01*
X33379116Y-60748273D01*
X33339257Y-60771853D01*
X33298272Y-60794095D01*
X33256160Y-60814999D01*
X33212921Y-60834566D01*
X33168555Y-60852796D01*
X33138351Y-60864207D01*
X33092384Y-60880095D01*
X33045847Y-60894420D01*
X32998738Y-60907183D01*
X32951059Y-60918383D01*
X32902808Y-60928020D01*
X32853986Y-60936094D01*
X32804594Y-60942606D01*
X32754630Y-60947554D01*
X32704095Y-60950940D01*
X32652990Y-60952764D01*
X32618602Y-60953111D01*
X32584214Y-60952764D01*
X32533109Y-60950940D01*
X32482574Y-60947554D01*
X32432611Y-60942606D01*
X32383218Y-60936094D01*
X32334396Y-60928020D01*
X32286146Y-60918383D01*
X32238466Y-60907183D01*
X32191357Y-60894420D01*
X32144820Y-60880095D01*
X32098853Y-60864207D01*
X32053736Y-60846868D01*
X32009745Y-60828193D01*
X31966882Y-60808180D01*
X31925145Y-60786829D01*
X31884536Y-60764141D01*
X31845053Y-60740116D01*
X31806698Y-60714754D01*
X31769469Y-60688054D01*
X31733367Y-60660017D01*
X31698393Y-60630642D01*
X31675703Y-60610316D01*
X31642712Y-60578642D01*
X31611058Y-60545812D01*
X31580742Y-60511824D01*
X31551763Y-60476679D01*
X31524121Y-60440377D01*
X31497817Y-60402918D01*
X31472850Y-60364302D01*
X31449221Y-60324529D01*
X31426929Y-60283599D01*
X31405974Y-60241512D01*
X31392747Y-60212811D01*
X31374262Y-60168893D01*
X31357595Y-60124013D01*
X31342746Y-60078172D01*
X31329715Y-60031369D01*
X31318503Y-59983604D01*
X31309109Y-59934878D01*
X31301533Y-59885190D01*
X31295775Y-59834540D01*
X31292947Y-59800239D01*
X31290927Y-59765511D01*
X31289715Y-59730355D01*
X31289310Y-59694772D01*
X32027901Y-59694772D01*
X32029261Y-59744360D01*
X32033340Y-59792145D01*
X32040140Y-59838126D01*
X32049659Y-59882304D01*
X32061899Y-59924680D01*
X32076858Y-59965252D01*
X32094537Y-60004020D01*
X32114935Y-60040986D01*
X32138054Y-60076148D01*
X32163892Y-60109508D01*
X32182629Y-60130745D01*
X32212897Y-60160383D01*
X32245360Y-60187105D01*
X32280016Y-60210912D01*
X32316867Y-60231805D01*
X32355911Y-60249781D01*
X32397149Y-60264843D01*
X32440581Y-60276990D01*
X32486207Y-60286221D01*
X32534027Y-60292537D01*
X32584041Y-60295938D01*
X32618602Y-60296586D01*
X32653160Y-60295938D01*
X32703156Y-60292537D01*
X32750944Y-60286221D01*
X32796522Y-60276990D01*
X32839891Y-60264843D01*
X32881052Y-60249781D01*
X32920004Y-60231805D01*
X32956746Y-60210912D01*
X32991280Y-60187105D01*
X33023605Y-60160383D01*
X33053721Y-60130745D01*
X33081525Y-60098588D01*
X33106595Y-60064628D01*
X33128929Y-60028864D01*
X33148529Y-59991298D01*
X33165394Y-59951928D01*
X33179524Y-59910755D01*
X33190919Y-59867779D01*
X33199580Y-59822999D01*
X33205505Y-59776417D01*
X33208696Y-59728031D01*
X33209303Y-59694772D01*
X33207936Y-59645191D01*
X33203834Y-59597429D01*
X33196997Y-59551485D01*
X33187425Y-59507359D01*
X33175118Y-59465052D01*
X33160076Y-59424562D01*
X33142300Y-59385891D01*
X33121788Y-59349038D01*
X33098542Y-59314004D01*
X33072561Y-59280787D01*
X33053721Y-59259653D01*
X33023605Y-59229863D01*
X32991280Y-59203003D01*
X32956746Y-59179073D01*
X32920004Y-59158073D01*
X32881052Y-59140003D01*
X32839891Y-59124864D01*
X32796522Y-59112655D01*
X32750944Y-59103376D01*
X32703156Y-59097027D01*
X32653160Y-59093609D01*
X32618602Y-59092957D01*
X32584041Y-59093609D01*
X32534027Y-59097027D01*
X32486207Y-59103376D01*
X32440581Y-59112655D01*
X32397149Y-59124864D01*
X32355911Y-59140003D01*
X32316867Y-59158073D01*
X32280016Y-59179073D01*
X32245360Y-59203003D01*
X32212897Y-59229863D01*
X32182629Y-59259653D01*
X32154977Y-59291657D01*
X32130045Y-59325480D01*
X32107833Y-59361121D01*
X32088341Y-59398580D01*
X32071569Y-59437857D01*
X32057517Y-59478952D01*
X32046184Y-59521866D01*
X32037571Y-59566598D01*
X32031678Y-59613148D01*
X32028505Y-59661516D01*
X32027901Y-59694772D01*
X31289310Y-59694772D01*
X31289715Y-59659189D01*
X31290927Y-59624033D01*
X31292947Y-59589305D01*
X31295775Y-59555004D01*
X31301533Y-59504354D01*
X31309109Y-59454666D01*
X31318503Y-59405939D01*
X31329715Y-59358175D01*
X31342746Y-59311372D01*
X31357595Y-59265530D01*
X31374262Y-59220651D01*
X31392747Y-59176733D01*
X31412810Y-59133882D01*
X31434211Y-59092203D01*
X31456949Y-59051696D01*
X31481024Y-59012361D01*
X31506437Y-58974198D01*
X31533186Y-58937208D01*
X31561274Y-58901389D01*
X31590698Y-58866743D01*
X31621461Y-58833268D01*
X31653560Y-58800966D01*
X31675703Y-58780082D01*
X31709926Y-58749663D01*
X31745276Y-58720597D01*
X31781753Y-58692883D01*
X31819358Y-58666521D01*
X31858089Y-58641511D01*
X31897947Y-58617854D01*
X31938932Y-58595550D01*
X31981044Y-58574598D01*
X32024284Y-58554998D01*
X32068650Y-58536751D01*
X32098853Y-58525337D01*
X32144820Y-58509449D01*
X32191357Y-58495123D01*
X32238466Y-58482361D01*
X32286146Y-58471161D01*
X32334396Y-58461524D01*
X32383218Y-58453449D01*
X32432611Y-58446938D01*
X32482574Y-58441989D01*
X32533109Y-58438603D01*
X32584214Y-58436780D01*
X32618602Y-58436433D01*
X32652990Y-58436780D01*
G37*
G36*
X34376174Y-57175529D02*
G01*
X35114764Y-57175529D01*
X35114764Y-60898401D01*
X34376174Y-60898401D01*
X34376174Y-57175529D01*
G37*
G36*
X35648190Y-58491143D02*
G01*
X36386781Y-58491143D01*
X36386781Y-60898401D01*
X35648190Y-60898401D01*
X35648190Y-58491143D01*
G37*
G36*
X35589206Y-57779908D02*
G01*
X35591169Y-57735429D01*
X35597060Y-57692606D01*
X35606877Y-57651440D01*
X35620622Y-57611930D01*
X35638293Y-57574076D01*
X35659891Y-57537878D01*
X35685416Y-57503337D01*
X35714869Y-57470452D01*
X35747086Y-57440399D01*
X35780906Y-57414353D01*
X35816329Y-57392314D01*
X35853354Y-57374282D01*
X35891983Y-57360257D01*
X35932214Y-57350239D01*
X35974049Y-57344228D01*
X36017486Y-57342225D01*
X36060923Y-57344228D01*
X36102757Y-57350239D01*
X36142988Y-57360257D01*
X36181617Y-57374282D01*
X36218642Y-57392314D01*
X36254065Y-57414353D01*
X36287885Y-57440399D01*
X36320103Y-57470452D01*
X36349555Y-57503337D01*
X36375080Y-57537878D01*
X36396678Y-57574076D01*
X36414350Y-57611930D01*
X36428094Y-57651440D01*
X36437912Y-57692606D01*
X36443802Y-57735429D01*
X36445765Y-57779908D01*
X36443802Y-57824387D01*
X36437912Y-57867209D01*
X36428094Y-57908376D01*
X36414350Y-57947886D01*
X36396678Y-57985740D01*
X36375080Y-58021937D01*
X36349555Y-58056479D01*
X36320103Y-58089364D01*
X36287885Y-58119417D01*
X36254065Y-58145463D01*
X36218642Y-58167502D01*
X36181617Y-58185534D01*
X36142988Y-58199559D01*
X36102757Y-58209577D01*
X36060923Y-58215587D01*
X36017486Y-58217591D01*
X35974049Y-58215587D01*
X35932214Y-58209577D01*
X35891983Y-58199559D01*
X35853354Y-58185534D01*
X35816329Y-58167502D01*
X35780906Y-58145463D01*
X35747086Y-58119417D01*
X35714869Y-58089364D01*
X35685416Y-58056479D01*
X35659891Y-58021937D01*
X35638293Y-57985740D01*
X35620622Y-57947886D01*
X35606877Y-57908376D01*
X35597060Y-57867209D01*
X35591169Y-57824387D01*
X35589206Y-57779908D01*
G37*
G36*
X36909949Y-58491143D02*
G01*
X37619474Y-58491143D01*
X37619474Y-58821970D01*
X37628878Y-58821970D01*
X37645269Y-58791676D01*
X37664524Y-58761382D01*
X37686643Y-58731089D01*
X37711625Y-58700795D01*
X37727186Y-58683484D01*
X37752070Y-58658059D01*
X37778637Y-58633716D01*
X37806887Y-58610455D01*
X37836820Y-58588275D01*
X37868436Y-58567178D01*
X37879349Y-58560386D01*
X37913529Y-58540591D01*
X37949393Y-58522238D01*
X37980565Y-58508046D01*
X38012906Y-58494856D01*
X38046415Y-58482668D01*
X38081093Y-58471481D01*
X38117103Y-58461384D01*
X38154073Y-58452999D01*
X38192003Y-58446324D01*
X38230893Y-58441361D01*
X38270742Y-58438110D01*
X38311552Y-58436570D01*
X38328145Y-58436433D01*
X38362773Y-58436770D01*
X38413138Y-58438541D01*
X38461609Y-58441829D01*
X38508186Y-58446635D01*
X38552870Y-58452959D01*
X38595661Y-58460800D01*
X38636559Y-58470159D01*
X38675563Y-58481036D01*
X38712674Y-58493430D01*
X38747891Y-58507343D01*
X38781216Y-58522772D01*
X38812917Y-58539555D01*
X38843266Y-58557524D01*
X38872262Y-58576681D01*
X38899906Y-58597024D01*
X38934661Y-58625996D01*
X38967012Y-58657077D01*
X38996958Y-58690270D01*
X39024501Y-58725572D01*
X39049638Y-58762985D01*
X39072613Y-58802095D01*
X39088581Y-58832549D01*
X39103467Y-58863964D01*
X39117272Y-58896342D01*
X39129994Y-58929681D01*
X39141635Y-58963982D01*
X39152194Y-58999244D01*
X39161671Y-59035469D01*
X39170065Y-59072655D01*
X39177378Y-59110802D01*
X39179576Y-59123732D01*
X39185839Y-59162982D01*
X39191487Y-59202832D01*
X39196518Y-59243284D01*
X39200934Y-59284337D01*
X39204733Y-59325991D01*
X39207916Y-59368246D01*
X39210483Y-59411102D01*
X39212434Y-59454559D01*
X39213769Y-59498617D01*
X39214488Y-59543276D01*
X39214624Y-59573383D01*
X39214624Y-60898401D01*
X38476034Y-60898401D01*
X38476034Y-59724691D01*
X38475764Y-59685372D01*
X38474952Y-59645631D01*
X38473600Y-59605470D01*
X38471706Y-59564888D01*
X38469715Y-59530748D01*
X38468340Y-59510124D01*
X38465452Y-59475813D01*
X38460002Y-59435742D01*
X38452389Y-59396873D01*
X38442611Y-59359206D01*
X38430670Y-59322742D01*
X38423888Y-59304960D01*
X38408721Y-59270930D01*
X38390790Y-59239364D01*
X38370093Y-59210262D01*
X38346631Y-59183625D01*
X38320405Y-59159452D01*
X38311048Y-59151942D01*
X38280173Y-59131896D01*
X38244610Y-59115998D01*
X38211393Y-59105918D01*
X38174920Y-59098718D01*
X38135191Y-59094397D01*
X38092206Y-59092957D01*
X38057158Y-59093772D01*
X38015751Y-59097082D01*
X37977015Y-59102938D01*
X37940951Y-59111341D01*
X37907559Y-59122289D01*
X37871014Y-59138789D01*
X37859687Y-59145103D01*
X37828111Y-59165570D01*
X37799420Y-59188500D01*
X37773615Y-59213895D01*
X37750694Y-59241755D01*
X37730658Y-59272078D01*
X37724621Y-59282734D01*
X37708392Y-59315893D01*
X37694327Y-59350614D01*
X37682426Y-59386899D01*
X37672689Y-59424746D01*
X37665115Y-59464156D01*
X37663072Y-59477640D01*
X37658885Y-59511817D01*
X37655408Y-59546495D01*
X37652641Y-59581674D01*
X37650583Y-59617354D01*
X37649235Y-59653535D01*
X37648596Y-59690217D01*
X37648539Y-59705030D01*
X37648539Y-60898401D01*
X36909949Y-60898401D01*
X36909949Y-58491143D01*
G37*
G36*
X43066578Y-59739224D02*
G01*
X43066210Y-59784777D01*
X43065106Y-59830075D01*
X43063265Y-59875118D01*
X43060688Y-59919905D01*
X43057375Y-59964436D01*
X43053325Y-60008712D01*
X43048539Y-60052733D01*
X43043017Y-60096498D01*
X43036758Y-60140007D01*
X43029763Y-60183262D01*
X43024691Y-60211956D01*
X43016161Y-60254454D01*
X43006278Y-60296035D01*
X42995043Y-60336700D01*
X42982456Y-60376448D01*
X42968516Y-60415279D01*
X42953224Y-60453194D01*
X42936579Y-60490192D01*
X42918583Y-60526274D01*
X42899233Y-60561439D01*
X42878531Y-60595687D01*
X42863979Y-60618010D01*
X42840973Y-60650420D01*
X42816194Y-60681613D01*
X42789642Y-60711588D01*
X42761317Y-60740347D01*
X42731218Y-60767888D01*
X42699347Y-60794212D01*
X42665702Y-60819319D01*
X42630284Y-60843209D01*
X42593093Y-60865882D01*
X42554129Y-60887338D01*
X42527168Y-60900965D01*
X42484941Y-60920061D01*
X42440324Y-60937279D01*
X42393318Y-60952619D01*
X42343923Y-60966081D01*
X42309666Y-60974011D01*
X42274346Y-60981107D01*
X42237965Y-60987368D01*
X42200522Y-60992795D01*
X42162017Y-60997386D01*
X42122450Y-61001143D01*
X42081821Y-61004065D01*
X42040131Y-61006152D01*
X41997378Y-61007404D01*
X41953564Y-61007821D01*
X41902346Y-61007080D01*
X41852130Y-61004856D01*
X41802916Y-61001149D01*
X41754704Y-60995960D01*
X41707494Y-60989288D01*
X41661285Y-60981134D01*
X41616078Y-60971497D01*
X41571873Y-60960377D01*
X41528670Y-60947775D01*
X41486468Y-60933690D01*
X41445269Y-60918122D01*
X41405071Y-60901072D01*
X41365874Y-60882539D01*
X41327680Y-60862524D01*
X41290487Y-60841025D01*
X41254296Y-60818045D01*
X41219395Y-60793361D01*
X41186069Y-60766967D01*
X41154319Y-60738864D01*
X41124146Y-60709051D01*
X41095548Y-60677529D01*
X41068527Y-60644296D01*
X41043082Y-60609354D01*
X41019213Y-60572703D01*
X40996920Y-60534341D01*
X40976203Y-60494270D01*
X40957062Y-60452489D01*
X40939498Y-60408999D01*
X40923510Y-60363799D01*
X40909097Y-60316889D01*
X40896261Y-60268269D01*
X40885001Y-60217940D01*
X41589398Y-60046115D01*
X41596047Y-60084980D01*
X41606912Y-60121966D01*
X41621993Y-60157074D01*
X41641290Y-60190304D01*
X41664802Y-60221656D01*
X41692531Y-60251129D01*
X41704802Y-60262392D01*
X41736993Y-60288004D01*
X41770519Y-60309275D01*
X41805381Y-60326205D01*
X41841578Y-60338794D01*
X41879112Y-60347042D01*
X41917981Y-60350949D01*
X41933902Y-60351297D01*
X41974115Y-60349648D01*
X42011406Y-60344701D01*
X42045776Y-60336458D01*
X42083162Y-60322212D01*
X42116341Y-60303219D01*
X42140776Y-60283763D01*
X42166962Y-60257006D01*
X42190384Y-60228024D01*
X42211041Y-60196819D01*
X42228932Y-60163390D01*
X42244059Y-60127737D01*
X42248487Y-60115358D01*
X42260639Y-60076930D01*
X42270807Y-60037299D01*
X42277765Y-60003356D01*
X42283346Y-59968578D01*
X42287549Y-59932964D01*
X42290375Y-59896516D01*
X42292591Y-59860068D01*
X42294432Y-59824455D01*
X42295897Y-59789677D01*
X42297159Y-59749045D01*
X42297880Y-59709615D01*
X42298068Y-59677675D01*
X42298068Y-57396935D01*
X43066578Y-57396935D01*
X43066578Y-59739224D01*
G37*
G36*
X44747190Y-58436753D02*
G01*
X44786443Y-58437715D01*
X44824794Y-58439318D01*
X44862244Y-58441562D01*
X44898792Y-58444447D01*
X44934439Y-58447973D01*
X44969184Y-58452140D01*
X45019611Y-58459594D01*
X45068009Y-58468489D01*
X45114379Y-58478828D01*
X45158720Y-58490609D01*
X45201033Y-58503832D01*
X45241317Y-58518498D01*
X45279850Y-58534401D01*
X45316911Y-58551657D01*
X45352499Y-58570265D01*
X45386615Y-58590225D01*
X45419257Y-58611538D01*
X45450428Y-58634203D01*
X45480125Y-58658221D01*
X45508350Y-58683591D01*
X45535103Y-58710314D01*
X45560383Y-58738388D01*
X45576418Y-58757856D01*
X45599304Y-58788140D01*
X45620837Y-58819686D01*
X45641018Y-58852494D01*
X45659846Y-58886565D01*
X45677322Y-58921897D01*
X45693446Y-58958492D01*
X45708217Y-58996349D01*
X45721636Y-59035469D01*
X45733702Y-59075850D01*
X45744416Y-59117494D01*
X45750807Y-59145958D01*
X45759668Y-59189706D01*
X45767657Y-59234716D01*
X45774775Y-59280988D01*
X45781021Y-59328522D01*
X45786395Y-59377319D01*
X45790898Y-59427377D01*
X45794530Y-59478698D01*
X45796467Y-59513614D01*
X45798016Y-59549090D01*
X45799178Y-59585127D01*
X45799953Y-59621725D01*
X45800340Y-59658885D01*
X45800389Y-59677675D01*
X45800389Y-60898401D01*
X45120783Y-60898401D01*
X45120783Y-60600913D01*
X45111380Y-60600913D01*
X45087585Y-60635244D01*
X45062363Y-60667711D01*
X45035713Y-60698316D01*
X45007635Y-60727057D01*
X44978131Y-60753934D01*
X44947198Y-60778949D01*
X44914838Y-60802100D01*
X44881051Y-60823387D01*
X44845836Y-60842812D01*
X44809193Y-60860373D01*
X44783972Y-60871045D01*
X44745469Y-60885711D01*
X44706575Y-60898935D01*
X44667290Y-60910716D01*
X44627615Y-60921054D01*
X44587549Y-60929950D01*
X44547092Y-60937403D01*
X44506244Y-60943414D01*
X44465006Y-60947982D01*
X44423377Y-60951107D01*
X44381358Y-60952790D01*
X44353128Y-60953111D01*
X44311427Y-60952376D01*
X44270100Y-60950172D01*
X44229148Y-60946499D01*
X44188569Y-60941357D01*
X44148364Y-60934745D01*
X44108534Y-60926664D01*
X44069077Y-60917114D01*
X44029994Y-60906094D01*
X43991873Y-60893605D01*
X43954874Y-60879647D01*
X43918997Y-60864220D01*
X43884242Y-60847323D01*
X43850609Y-60828957D01*
X43818098Y-60809122D01*
X43786709Y-60787818D01*
X43756442Y-60765044D01*
X43727711Y-60740854D01*
X43700503Y-60715302D01*
X43674818Y-60688388D01*
X43650655Y-60660111D01*
X43628014Y-60630472D01*
X43606897Y-60599470D01*
X43587302Y-60567106D01*
X43569230Y-60533380D01*
X43553202Y-60498064D01*
X43539310Y-60461358D01*
X43527556Y-60423264D01*
X43517939Y-60383781D01*
X43510459Y-60342908D01*
X43505116Y-60300647D01*
X43501911Y-60256996D01*
X43500842Y-60211956D01*
X43501021Y-60201698D01*
X44209513Y-60201698D01*
X44212268Y-60241189D01*
X44220532Y-60277382D01*
X44234307Y-60310278D01*
X44253591Y-60339876D01*
X44278385Y-60366177D01*
X44308689Y-60389180D01*
X44322353Y-60397458D01*
X44358112Y-60415682D01*
X44394331Y-60430818D01*
X44431008Y-60442864D01*
X44468145Y-60451822D01*
X44505741Y-60457690D01*
X44543796Y-60460470D01*
X44559146Y-60460717D01*
X44599588Y-60459696D01*
X44639489Y-60456630D01*
X44678849Y-60451521D01*
X44717668Y-60444368D01*
X44755946Y-60435172D01*
X44768585Y-60431652D01*
X44805630Y-60419591D01*
X44841113Y-60405847D01*
X44875034Y-60390419D01*
X44907391Y-60373309D01*
X44938186Y-60354516D01*
X44948103Y-60347877D01*
X44976744Y-60326659D01*
X45003041Y-60303398D01*
X45026993Y-60278093D01*
X45048601Y-60250745D01*
X45067866Y-60221353D01*
X45073766Y-60211101D01*
X45089744Y-60178954D01*
X45102417Y-60144703D01*
X45111784Y-60108349D01*
X45117844Y-60069891D01*
X45120599Y-60029329D01*
X45120783Y-60015340D01*
X45120783Y-59858903D01*
X44938700Y-59858903D01*
X44900044Y-59859271D01*
X44863719Y-59860173D01*
X44824450Y-59861615D01*
X44789475Y-59863231D01*
X44752455Y-59865222D01*
X44729262Y-59866597D01*
X44690222Y-59869402D01*
X44651641Y-59873542D01*
X44613519Y-59879019D01*
X44575856Y-59885831D01*
X44538653Y-59893979D01*
X44501908Y-59903462D01*
X44487339Y-59907629D01*
X44452110Y-59919171D01*
X44418550Y-59932423D01*
X44386660Y-59947387D01*
X44356440Y-59964063D01*
X44322380Y-59986332D01*
X44290724Y-60011066D01*
X44263125Y-60038605D01*
X44241236Y-60069931D01*
X44225057Y-60105043D01*
X44214589Y-60143942D01*
X44210227Y-60179250D01*
X44209513Y-60201698D01*
X43501021Y-60201698D01*
X43501511Y-60173578D01*
X43503517Y-60136342D01*
X43506860Y-60100248D01*
X43511541Y-60065296D01*
X43517559Y-60031486D01*
X43527664Y-59988182D01*
X43540146Y-59946909D01*
X43555006Y-59907666D01*
X43572243Y-59870453D01*
X43576924Y-59861467D01*
X43596986Y-59826339D01*
X43618705Y-59792759D01*
X43642079Y-59760729D01*
X43667111Y-59730248D01*
X43693798Y-59701317D01*
X43722141Y-59673935D01*
X43752141Y-59648102D01*
X43783798Y-59623819D01*
X43817070Y-59600965D01*
X43851491Y-59579420D01*
X43887061Y-59559185D01*
X43923779Y-59540258D01*
X43961646Y-59522640D01*
X44000662Y-59506331D01*
X44040827Y-59491331D01*
X44082140Y-59477640D01*
X44124215Y-59465044D01*
X44166663Y-59453330D01*
X44209486Y-59442498D01*
X44252683Y-59432547D01*
X44296253Y-59423477D01*
X44340198Y-59415289D01*
X44384517Y-59407983D01*
X44429209Y-59401558D01*
X44474089Y-59395668D01*
X44518969Y-59390392D01*
X44563848Y-59385730D01*
X44608728Y-59381683D01*
X44653607Y-59378250D01*
X44698487Y-59375432D01*
X44743367Y-59373228D01*
X44788246Y-59371638D01*
X44832712Y-59370436D01*
X44876349Y-59369394D01*
X44919159Y-59368513D01*
X44961140Y-59367792D01*
X45002293Y-59367231D01*
X45042618Y-59366830D01*
X45082114Y-59366590D01*
X45120783Y-59366509D01*
X45119551Y-59329571D01*
X45115854Y-59294091D01*
X45109693Y-59260068D01*
X45097645Y-59216972D01*
X45081216Y-59176466D01*
X45060406Y-59138552D01*
X45035214Y-59103230D01*
X45005642Y-59070498D01*
X44980587Y-59047650D01*
X44944724Y-59019801D01*
X44907231Y-58995665D01*
X44868108Y-58975242D01*
X44827356Y-58958532D01*
X44784974Y-58945536D01*
X44740962Y-58936253D01*
X44706884Y-58931727D01*
X44671890Y-58929290D01*
X44648051Y-58928826D01*
X44603024Y-58930028D01*
X44558986Y-58933635D01*
X44515936Y-58939645D01*
X44473875Y-58948060D01*
X44432802Y-58958879D01*
X44392718Y-58972103D01*
X44353622Y-58987731D01*
X44315514Y-59005763D01*
X44278595Y-59025665D01*
X44242638Y-59047330D01*
X44207643Y-59070758D01*
X44173609Y-59095949D01*
X44140537Y-59122904D01*
X44108427Y-59151621D01*
X44077278Y-59182102D01*
X44047091Y-59214346D01*
X43653860Y-58812567D01*
X43679987Y-58789426D01*
X43706647Y-58767019D01*
X43733842Y-58745347D01*
X43761571Y-58724410D01*
X43789835Y-58704208D01*
X43818633Y-58684740D01*
X43847965Y-58666007D01*
X43877831Y-58648008D01*
X43908232Y-58630744D01*
X43939167Y-58614215D01*
X43970636Y-58598420D01*
X44002639Y-58583360D01*
X44035177Y-58569035D01*
X44068249Y-58555444D01*
X44101855Y-58542588D01*
X44135996Y-58530466D01*
X44170584Y-58519079D01*
X44205319Y-58508427D01*
X44240201Y-58498509D01*
X44275229Y-58489326D01*
X44310405Y-58480878D01*
X44345728Y-58473164D01*
X44381197Y-58466185D01*
X44416814Y-58459941D01*
X44452577Y-58454431D01*
X44488488Y-58449656D01*
X44524545Y-58445616D01*
X44560749Y-58442310D01*
X44597100Y-58439738D01*
X44633599Y-58437902D01*
X44670244Y-58436800D01*
X44707036Y-58436433D01*
X44747190Y-58436753D01*
G37*
G36*
X47868271Y-59275040D02*
G01*
X47846512Y-59246510D01*
X47821628Y-59219903D01*
X47793618Y-59195219D01*
X47762483Y-59172458D01*
X47728222Y-59151621D01*
X47716107Y-59145103D01*
X47685011Y-59130081D01*
X47653162Y-59117604D01*
X47613953Y-59105994D01*
X47580452Y-59099119D01*
X47546199Y-59094791D01*
X47511196Y-59093008D01*
X47504105Y-59092957D01*
X47469543Y-59093609D01*
X47419530Y-59097027D01*
X47371710Y-59103376D01*
X47326084Y-59112655D01*
X47282652Y-59124864D01*
X47241414Y-59140003D01*
X47202369Y-59158073D01*
X47165519Y-59179073D01*
X47130862Y-59203003D01*
X47098400Y-59229863D01*
X47068131Y-59259653D01*
X47040480Y-59291657D01*
X47015548Y-59325480D01*
X46993336Y-59361121D01*
X46973844Y-59398580D01*
X46957072Y-59437857D01*
X46943019Y-59478952D01*
X46931687Y-59521866D01*
X46923074Y-59566598D01*
X46917181Y-59613148D01*
X46914008Y-59661516D01*
X46913403Y-59694772D01*
X46914763Y-59744360D01*
X46918843Y-59792145D01*
X46925642Y-59838126D01*
X46935162Y-59882304D01*
X46947401Y-59924680D01*
X46962360Y-59965252D01*
X46980039Y-60004020D01*
X47000438Y-60040986D01*
X47023556Y-60076148D01*
X47049395Y-60109508D01*
X47068131Y-60130745D01*
X47098400Y-60160383D01*
X47130862Y-60187105D01*
X47165519Y-60210912D01*
X47202369Y-60231805D01*
X47241414Y-60249781D01*
X47282652Y-60264843D01*
X47326084Y-60276990D01*
X47371710Y-60286221D01*
X47419530Y-60292537D01*
X47469543Y-60295938D01*
X47504105Y-60296586D01*
X47541717Y-60295271D01*
X47577618Y-60291327D01*
X47611808Y-60284753D01*
X47650577Y-60273392D01*
X47686881Y-60258246D01*
X47715253Y-60242731D01*
X47747720Y-60221553D01*
X47778445Y-60199053D01*
X47807426Y-60175231D01*
X47834664Y-60150086D01*
X47860160Y-60123619D01*
X47868271Y-60114503D01*
X48356390Y-60629978D01*
X48323472Y-60662545D01*
X48289471Y-60693250D01*
X48254389Y-60722091D01*
X48218225Y-60749069D01*
X48180979Y-60774183D01*
X48142651Y-60797435D01*
X48103241Y-60818823D01*
X48062749Y-60838347D01*
X48021175Y-60856009D01*
X47978520Y-60871807D01*
X47949481Y-60881304D01*
X47905912Y-60894136D01*
X47862717Y-60905707D01*
X47819899Y-60916015D01*
X47777456Y-60925061D01*
X47735389Y-60932845D01*
X47693698Y-60939367D01*
X47652382Y-60944626D01*
X47611442Y-60948623D01*
X47570877Y-60951358D01*
X47530688Y-60952830D01*
X47504105Y-60953111D01*
X47469817Y-60952764D01*
X47418837Y-60950940D01*
X47368397Y-60947554D01*
X47318499Y-60942606D01*
X47269141Y-60936094D01*
X47220324Y-60928020D01*
X47172049Y-60918383D01*
X47124314Y-60907183D01*
X47077120Y-60894420D01*
X47030468Y-60880095D01*
X46984356Y-60864207D01*
X46939238Y-60846868D01*
X46895248Y-60828193D01*
X46852384Y-60808180D01*
X46810648Y-60786829D01*
X46770038Y-60764141D01*
X46730556Y-60740116D01*
X46692200Y-60714754D01*
X46654971Y-60688054D01*
X46618870Y-60660017D01*
X46583895Y-60630642D01*
X46561205Y-60610316D01*
X46528214Y-60578642D01*
X46496560Y-60545812D01*
X46466244Y-60511824D01*
X46437265Y-60476679D01*
X46409624Y-60440377D01*
X46383319Y-60402918D01*
X46358353Y-60364302D01*
X46334723Y-60324529D01*
X46312431Y-60283599D01*
X46291477Y-60241512D01*
X46278250Y-60212811D01*
X46259764Y-60168893D01*
X46243097Y-60124013D01*
X46228249Y-60078172D01*
X46215218Y-60031369D01*
X46204006Y-59983604D01*
X46194611Y-59934878D01*
X46187035Y-59885190D01*
X46181278Y-59834540D01*
X46178449Y-59800239D01*
X46176429Y-59765511D01*
X46175217Y-59730355D01*
X46174813Y-59694772D01*
X46175217Y-59659189D01*
X46176429Y-59624033D01*
X46178449Y-59589305D01*
X46181278Y-59555004D01*
X46187035Y-59504354D01*
X46194611Y-59454666D01*
X46204006Y-59405939D01*
X46215218Y-59358175D01*
X46228249Y-59311372D01*
X46243097Y-59265530D01*
X46259764Y-59220651D01*
X46278250Y-59176733D01*
X46298313Y-59133882D01*
X46319713Y-59092203D01*
X46342451Y-59051696D01*
X46366526Y-59012361D01*
X46391939Y-58974198D01*
X46418689Y-58937208D01*
X46446776Y-58901389D01*
X46476201Y-58866743D01*
X46506963Y-58833268D01*
X46539062Y-58800966D01*
X46561205Y-58780082D01*
X46595428Y-58749663D01*
X46630779Y-58720597D01*
X46667256Y-58692883D01*
X46704860Y-58666521D01*
X46743591Y-58641511D01*
X46783449Y-58617854D01*
X46824435Y-58595550D01*
X46866547Y-58574598D01*
X46909786Y-58554998D01*
X46954152Y-58536751D01*
X46984356Y-58525337D01*
X47030468Y-58509449D01*
X47077120Y-58495123D01*
X47124314Y-58482361D01*
X47172049Y-58471161D01*
X47220324Y-58461524D01*
X47269141Y-58453449D01*
X47318499Y-58446938D01*
X47368397Y-58441989D01*
X47418837Y-58438603D01*
X47469817Y-58436780D01*
X47504105Y-58436433D01*
X47544043Y-58437071D01*
X47584357Y-58438987D01*
X47625047Y-58442180D01*
X47666112Y-58446651D01*
X47707553Y-58452398D01*
X47749370Y-58459423D01*
X47791562Y-58467726D01*
X47834130Y-58477305D01*
X47877074Y-58488162D01*
X47920393Y-58500296D01*
X47949481Y-58509095D01*
X47992858Y-58523498D01*
X48035153Y-58539779D01*
X48076367Y-58557939D01*
X48116498Y-58577977D01*
X48155547Y-58599893D01*
X48193514Y-58623688D01*
X48230400Y-58649361D01*
X48266203Y-58676913D01*
X48300925Y-58706342D01*
X48334565Y-58737650D01*
X48356390Y-58759566D01*
X47868271Y-59275040D01*
G37*
G36*
X48607716Y-57166126D02*
G01*
X49346306Y-57166126D01*
X49346306Y-59441736D01*
X50163543Y-58491143D01*
X51069684Y-58491143D01*
X50119945Y-59575948D01*
X51094474Y-60898401D01*
X50163543Y-60898401D01*
X49356564Y-59680239D01*
X49346306Y-59680239D01*
X49346306Y-60898401D01*
X48607716Y-60898401D01*
X48607716Y-57166126D01*
G37*
G36*
X52683641Y-59185281D02*
G01*
X52652277Y-59149227D01*
X52619096Y-59116720D01*
X52584096Y-59087758D01*
X52547279Y-59062343D01*
X52508643Y-59040474D01*
X52468188Y-59022152D01*
X52425916Y-59007376D01*
X52381825Y-58996146D01*
X52335916Y-58988462D01*
X52288189Y-58984325D01*
X52255361Y-58983537D01*
X52220569Y-58985129D01*
X52186078Y-58989908D01*
X52151887Y-58997872D01*
X52117997Y-59009022D01*
X52084407Y-59023357D01*
X52073278Y-59028844D01*
X52043064Y-59047797D01*
X52015716Y-59075683D01*
X51996875Y-59109787D01*
X51987499Y-59143968D01*
X51984373Y-59182717D01*
X51988709Y-59219403D01*
X52001717Y-59251672D01*
X52023397Y-59279523D01*
X52053750Y-59302957D01*
X52074987Y-59314364D01*
X52111001Y-59329741D01*
X52143630Y-59342050D01*
X52178638Y-59353900D01*
X52216025Y-59365291D01*
X52255791Y-59376223D01*
X52289318Y-59384638D01*
X52306652Y-59388735D01*
X52342208Y-59396937D01*
X52378352Y-59405298D01*
X52415084Y-59413820D01*
X52452404Y-59422502D01*
X52490311Y-59431344D01*
X52528806Y-59440347D01*
X52567889Y-59449510D01*
X52607559Y-59458833D01*
X52647216Y-59468691D01*
X52686259Y-59479884D01*
X52724687Y-59492413D01*
X52762500Y-59506277D01*
X52799700Y-59521478D01*
X52836285Y-59538014D01*
X52872255Y-59555885D01*
X52907611Y-59575093D01*
X52942086Y-59595863D01*
X52974984Y-59618423D01*
X53006306Y-59642773D01*
X53036052Y-59668913D01*
X53064222Y-59696842D01*
X53090816Y-59726561D01*
X53115834Y-59758071D01*
X53139276Y-59791370D01*
X53160714Y-59827006D01*
X53179293Y-59865528D01*
X53195014Y-59906935D01*
X53204930Y-59939883D01*
X53213237Y-59974455D01*
X53219936Y-60010649D01*
X53225028Y-60048466D01*
X53228511Y-60087906D01*
X53230387Y-60128969D01*
X53230745Y-60157246D01*
X53229858Y-60200435D01*
X53227198Y-60242166D01*
X53222765Y-60282440D01*
X53216559Y-60321257D01*
X53208580Y-60358615D01*
X53198828Y-60394517D01*
X53187302Y-60428960D01*
X53174004Y-60461946D01*
X53158932Y-60493475D01*
X53142087Y-60523545D01*
X53129872Y-60542783D01*
X53103759Y-60579688D01*
X53075856Y-60614751D01*
X53046164Y-60647970D01*
X53014681Y-60679345D01*
X52981409Y-60708878D01*
X52946347Y-60736567D01*
X52909495Y-60762413D01*
X52870853Y-60786415D01*
X52841007Y-60803237D01*
X52810456Y-60819083D01*
X52779198Y-60833952D01*
X52747233Y-60847844D01*
X52714563Y-60860760D01*
X52681186Y-60872698D01*
X52647103Y-60883660D01*
X52612314Y-60893645D01*
X52576819Y-60902654D01*
X52540617Y-60910686D01*
X52516090Y-60915497D01*
X52479262Y-60922219D01*
X52442509Y-60928280D01*
X52405832Y-60933680D01*
X52369229Y-60938418D01*
X52332702Y-60942495D01*
X52296250Y-60945911D01*
X52259873Y-60948666D01*
X52223571Y-60950760D01*
X52187344Y-60952193D01*
X52151193Y-60952964D01*
X52127133Y-60953111D01*
X52080117Y-60952502D01*
X52032996Y-60950677D01*
X51985770Y-60947634D01*
X51938438Y-60943374D01*
X51891002Y-60937896D01*
X51843460Y-60931202D01*
X51795813Y-60923290D01*
X51748061Y-60914162D01*
X51700203Y-60903816D01*
X51652241Y-60892253D01*
X51620207Y-60883868D01*
X51572966Y-60869778D01*
X51527092Y-60853795D01*
X51482586Y-60835918D01*
X51439446Y-60816148D01*
X51397675Y-60794484D01*
X51357271Y-60770928D01*
X51318234Y-60745478D01*
X51280565Y-60718134D01*
X51244263Y-60688897D01*
X51209328Y-60657767D01*
X51186798Y-60635962D01*
X51634740Y-60145278D01*
X51660946Y-60176373D01*
X51687847Y-60205545D01*
X51715443Y-60232793D01*
X51743733Y-60258118D01*
X51772718Y-60281519D01*
X51802397Y-60302997D01*
X51832771Y-60322552D01*
X51863839Y-60340183D01*
X51895910Y-60355611D01*
X51929289Y-60368981D01*
X51963977Y-60380295D01*
X51999974Y-60389551D01*
X52037280Y-60396750D01*
X52075896Y-60401893D01*
X52115820Y-60404978D01*
X52157053Y-60406007D01*
X52196519Y-60405109D01*
X52234774Y-60402417D01*
X52271819Y-60397930D01*
X52307653Y-60391648D01*
X52342277Y-60383571D01*
X52375691Y-60373700D01*
X52388717Y-60369248D01*
X52423870Y-60352949D01*
X52451749Y-60332263D01*
X52475083Y-60302583D01*
X52488518Y-60266930D01*
X52492154Y-60231618D01*
X52487777Y-60192728D01*
X52474646Y-60158338D01*
X52452762Y-60128447D01*
X52422123Y-60103056D01*
X52400685Y-60090567D01*
X52364932Y-60073186D01*
X52332428Y-60059575D01*
X52297462Y-60046756D01*
X52260033Y-60034731D01*
X52220142Y-60023498D01*
X52186455Y-60015083D01*
X52169021Y-60011066D01*
X52133665Y-60002865D01*
X52097694Y-59994504D01*
X52061109Y-59985982D01*
X52023910Y-59977300D01*
X51986096Y-59968457D01*
X51947668Y-59959455D01*
X51908626Y-59950292D01*
X51868969Y-59940969D01*
X51829298Y-59930991D01*
X51790215Y-59919864D01*
X51751721Y-59907589D01*
X51713813Y-59894166D01*
X51676494Y-59879593D01*
X51639762Y-59863872D01*
X51603618Y-59847002D01*
X51568061Y-59828983D01*
X51533774Y-59809415D01*
X51501009Y-59787897D01*
X51469767Y-59764429D01*
X51440048Y-59739010D01*
X51411851Y-59711642D01*
X51385177Y-59682323D01*
X51360026Y-59651054D01*
X51336397Y-59617835D01*
X51315159Y-59582199D01*
X51296753Y-59543677D01*
X51281179Y-59502270D01*
X51271357Y-59469322D01*
X51263127Y-59434750D01*
X51256490Y-59398556D01*
X51251446Y-59360739D01*
X51247995Y-59321299D01*
X51246137Y-59280236D01*
X51245783Y-59251959D01*
X51246542Y-59212414D01*
X51248818Y-59173921D01*
X51252613Y-59136480D01*
X51257924Y-59100090D01*
X51264754Y-59064752D01*
X51273101Y-59030467D01*
X51282966Y-58997233D01*
X51298481Y-58954557D01*
X51316693Y-58913751D01*
X51332123Y-58884374D01*
X51354549Y-58846560D01*
X51378659Y-58810483D01*
X51404451Y-58776142D01*
X51431926Y-58743537D01*
X51461085Y-58712669D01*
X51491926Y-58683538D01*
X51524451Y-58656142D01*
X51558658Y-58630484D01*
X51594361Y-58606508D01*
X51631374Y-58584161D01*
X51669695Y-58563445D01*
X51709325Y-58544357D01*
X51750265Y-58526900D01*
X51792513Y-58511072D01*
X51825058Y-58500270D01*
X51858340Y-58490385D01*
X51880936Y-58484304D01*
X51915267Y-58475749D01*
X51949658Y-58468035D01*
X51984109Y-58461163D01*
X52018621Y-58455132D01*
X52053192Y-58449943D01*
X52087823Y-58445596D01*
X52122515Y-58442089D01*
X52157267Y-58439425D01*
X52192078Y-58437601D01*
X52226950Y-58436620D01*
X52250232Y-58436433D01*
X52294668Y-58437026D01*
X52339179Y-58438807D01*
X52383766Y-58441775D01*
X52428428Y-58445929D01*
X52473165Y-58451271D01*
X52517977Y-58457801D01*
X52562864Y-58465517D01*
X52607826Y-58474420D01*
X52652863Y-58484510D01*
X52697976Y-58495788D01*
X52728093Y-58503966D01*
X52772647Y-58517400D01*
X52815909Y-58532697D01*
X52857878Y-58549857D01*
X52898555Y-58568881D01*
X52937940Y-58589768D01*
X52976033Y-58612518D01*
X53012833Y-58637132D01*
X53048341Y-58663609D01*
X53082557Y-58691949D01*
X53115480Y-58722153D01*
X53136711Y-58743324D01*
X52683641Y-59185281D01*
G37*
G36*
X54872250Y-58436780D02*
G01*
X54923356Y-58438603D01*
X54973890Y-58441989D01*
X55023854Y-58446938D01*
X55073247Y-58453449D01*
X55122068Y-58461524D01*
X55170319Y-58471161D01*
X55217999Y-58482361D01*
X55265107Y-58495123D01*
X55311645Y-58509449D01*
X55357611Y-58525337D01*
X55402729Y-58542683D01*
X55446719Y-58561381D01*
X55489583Y-58581432D01*
X55531319Y-58602834D01*
X55571929Y-58625590D01*
X55611412Y-58649698D01*
X55649767Y-58675158D01*
X55686996Y-58701970D01*
X55723097Y-58730135D01*
X55758072Y-58759653D01*
X55780762Y-58780082D01*
X55813753Y-58811603D01*
X55845407Y-58844296D01*
X55875723Y-58878161D01*
X55904702Y-58913198D01*
X55932343Y-58949408D01*
X55958648Y-58986789D01*
X55983614Y-59025342D01*
X56007244Y-59065068D01*
X56029536Y-59105965D01*
X56050490Y-59148035D01*
X56063717Y-59176733D01*
X56082203Y-59220651D01*
X56098870Y-59265530D01*
X56113719Y-59311372D01*
X56126749Y-59358175D01*
X56137962Y-59405939D01*
X56147356Y-59454666D01*
X56154932Y-59504354D01*
X56160689Y-59555004D01*
X56163518Y-59589305D01*
X56165538Y-59624033D01*
X56166750Y-59659189D01*
X56167154Y-59694772D01*
X56166750Y-59730355D01*
X56165538Y-59765511D01*
X56163518Y-59800239D01*
X56160689Y-59834540D01*
X56154932Y-59885190D01*
X56147356Y-59934878D01*
X56137962Y-59983604D01*
X56126749Y-60031369D01*
X56113719Y-60078172D01*
X56098870Y-60124013D01*
X56082203Y-60168893D01*
X56063717Y-60212811D01*
X56043654Y-60255669D01*
X56022254Y-60297371D01*
X55999516Y-60337915D01*
X55975441Y-60377303D01*
X55950028Y-60415533D01*
X55923278Y-60452606D01*
X55895191Y-60488522D01*
X55865766Y-60523282D01*
X55835004Y-60556884D01*
X55802905Y-60589329D01*
X55780762Y-60610316D01*
X55746539Y-60640582D01*
X55711189Y-60669511D01*
X55674711Y-60697103D01*
X55637107Y-60723357D01*
X55598376Y-60748273D01*
X55558518Y-60771853D01*
X55517532Y-60794095D01*
X55475420Y-60814999D01*
X55432181Y-60834566D01*
X55387815Y-60852796D01*
X55357611Y-60864207D01*
X55311645Y-60880095D01*
X55265107Y-60894420D01*
X55217999Y-60907183D01*
X55170319Y-60918383D01*
X55122068Y-60928020D01*
X55073247Y-60936094D01*
X55023854Y-60942606D01*
X54973890Y-60947554D01*
X54923356Y-60950940D01*
X54872250Y-60952764D01*
X54837862Y-60953111D01*
X54803475Y-60952764D01*
X54752369Y-60950940D01*
X54701834Y-60947554D01*
X54651871Y-60942606D01*
X54602478Y-60936094D01*
X54553657Y-60928020D01*
X54505406Y-60918383D01*
X54457726Y-60907183D01*
X54410618Y-60894420D01*
X54364080Y-60880095D01*
X54318114Y-60864207D01*
X54272996Y-60846868D01*
X54229006Y-60828193D01*
X54186142Y-60808180D01*
X54144405Y-60786829D01*
X54103796Y-60764141D01*
X54064313Y-60740116D01*
X54025958Y-60714754D01*
X53988729Y-60688054D01*
X53952628Y-60660017D01*
X53917653Y-60630642D01*
X53894963Y-60610316D01*
X53861972Y-60578642D01*
X53830318Y-60545812D01*
X53800002Y-60511824D01*
X53771023Y-60476679D01*
X53743382Y-60440377D01*
X53717077Y-60402918D01*
X53692111Y-60364302D01*
X53668481Y-60324529D01*
X53646189Y-60283599D01*
X53625234Y-60241512D01*
X53612008Y-60212811D01*
X53593522Y-60168893D01*
X53576855Y-60124013D01*
X53562006Y-60078172D01*
X53548976Y-60031369D01*
X53537763Y-59983604D01*
X53528369Y-59934878D01*
X53520793Y-59885190D01*
X53515036Y-59834540D01*
X53512207Y-59800239D01*
X53510187Y-59765511D01*
X53508975Y-59730355D01*
X53508571Y-59694772D01*
X54247161Y-59694772D01*
X54248521Y-59744360D01*
X54252601Y-59792145D01*
X54259400Y-59838126D01*
X54268920Y-59882304D01*
X54281159Y-59924680D01*
X54296118Y-59965252D01*
X54313797Y-60004020D01*
X54334196Y-60040986D01*
X54357314Y-60076148D01*
X54383152Y-60109508D01*
X54401889Y-60130745D01*
X54432158Y-60160383D01*
X54464620Y-60187105D01*
X54499277Y-60210912D01*
X54536127Y-60231805D01*
X54575171Y-60249781D01*
X54616410Y-60264843D01*
X54659842Y-60276990D01*
X54705468Y-60286221D01*
X54753287Y-60292537D01*
X54803301Y-60295938D01*
X54837862Y-60296586D01*
X54872420Y-60295938D01*
X54922417Y-60292537D01*
X54970204Y-60286221D01*
X55015782Y-60276990D01*
X55059152Y-60264843D01*
X55100312Y-60249781D01*
X55139264Y-60231805D01*
X55176007Y-60210912D01*
X55210540Y-60187105D01*
X55242865Y-60160383D01*
X55272981Y-60130745D01*
X55300785Y-60098588D01*
X55325855Y-60064628D01*
X55348190Y-60028864D01*
X55367789Y-59991298D01*
X55384654Y-59951928D01*
X55398784Y-59910755D01*
X55410179Y-59867779D01*
X55418840Y-59822999D01*
X55424765Y-59776417D01*
X55427956Y-59728031D01*
X55428564Y-59694772D01*
X55427196Y-59645191D01*
X55423094Y-59597429D01*
X55416257Y-59551485D01*
X55406685Y-59507359D01*
X55394378Y-59465052D01*
X55379336Y-59424562D01*
X55361560Y-59385891D01*
X55341049Y-59349038D01*
X55317802Y-59314004D01*
X55291821Y-59280787D01*
X55272981Y-59259653D01*
X55242865Y-59229863D01*
X55210540Y-59203003D01*
X55176007Y-59179073D01*
X55139264Y-59158073D01*
X55100312Y-59140003D01*
X55059152Y-59124864D01*
X55015782Y-59112655D01*
X54970204Y-59103376D01*
X54922417Y-59097027D01*
X54872420Y-59093609D01*
X54837862Y-59092957D01*
X54803301Y-59093609D01*
X54753287Y-59097027D01*
X54705468Y-59103376D01*
X54659842Y-59112655D01*
X54616410Y-59124864D01*
X54575171Y-59140003D01*
X54536127Y-59158073D01*
X54499277Y-59179073D01*
X54464620Y-59203003D01*
X54432158Y-59229863D01*
X54401889Y-59259653D01*
X54374237Y-59291657D01*
X54349306Y-59325480D01*
X54327094Y-59361121D01*
X54307602Y-59398580D01*
X54290829Y-59437857D01*
X54276777Y-59478952D01*
X54265444Y-59521866D01*
X54256832Y-59566598D01*
X54250939Y-59613148D01*
X54247766Y-59661516D01*
X54247161Y-59694772D01*
X53508571Y-59694772D01*
X53508975Y-59659189D01*
X53510187Y-59624033D01*
X53512207Y-59589305D01*
X53515036Y-59555004D01*
X53520793Y-59504354D01*
X53528369Y-59454666D01*
X53537763Y-59405939D01*
X53548976Y-59358175D01*
X53562006Y-59311372D01*
X53576855Y-59265530D01*
X53593522Y-59220651D01*
X53612008Y-59176733D01*
X53632071Y-59133882D01*
X53653471Y-59092203D01*
X53676209Y-59051696D01*
X53700284Y-59012361D01*
X53725697Y-58974198D01*
X53752447Y-58937208D01*
X53780534Y-58901389D01*
X53809959Y-58866743D01*
X53840721Y-58833268D01*
X53872820Y-58800966D01*
X53894963Y-58780082D01*
X53929186Y-58749663D01*
X53964536Y-58720597D01*
X54001014Y-58692883D01*
X54038618Y-58666521D01*
X54077349Y-58641511D01*
X54117207Y-58617854D01*
X54158192Y-58595550D01*
X54200305Y-58574598D01*
X54243544Y-58554998D01*
X54287910Y-58536751D01*
X54318114Y-58525337D01*
X54364080Y-58509449D01*
X54410618Y-58495123D01*
X54457726Y-58482361D01*
X54505406Y-58471161D01*
X54553657Y-58461524D01*
X54602478Y-58453449D01*
X54651871Y-58446938D01*
X54701834Y-58441989D01*
X54752369Y-58438603D01*
X54803475Y-58436780D01*
X54837862Y-58436433D01*
X54872250Y-58436780D01*
G37*
G36*
X56585176Y-58491143D02*
G01*
X57294701Y-58491143D01*
X57294701Y-58821970D01*
X57304105Y-58821970D01*
X57320496Y-58791676D01*
X57339751Y-58761382D01*
X57361870Y-58731089D01*
X57386851Y-58700795D01*
X57402412Y-58683484D01*
X57427296Y-58658059D01*
X57453864Y-58633716D01*
X57482114Y-58610455D01*
X57512047Y-58588275D01*
X57543663Y-58567178D01*
X57554576Y-58560386D01*
X57588756Y-58540591D01*
X57624620Y-58522238D01*
X57655792Y-58508046D01*
X57688133Y-58494856D01*
X57721642Y-58482668D01*
X57756320Y-58471481D01*
X57792330Y-58461384D01*
X57829300Y-58452999D01*
X57867229Y-58446324D01*
X57906119Y-58441361D01*
X57945969Y-58438110D01*
X57986779Y-58436570D01*
X58003372Y-58436433D01*
X58038000Y-58436770D01*
X58088364Y-58438541D01*
X58136835Y-58441829D01*
X58183413Y-58446635D01*
X58228097Y-58452959D01*
X58270888Y-58460800D01*
X58311786Y-58470159D01*
X58350790Y-58481036D01*
X58387901Y-58493430D01*
X58423118Y-58507343D01*
X58456442Y-58522772D01*
X58488144Y-58539555D01*
X58518492Y-58557524D01*
X58547489Y-58576681D01*
X58575133Y-58597024D01*
X58609888Y-58625996D01*
X58642239Y-58657077D01*
X58672185Y-58690270D01*
X58699727Y-58725572D01*
X58724865Y-58762985D01*
X58747839Y-58802095D01*
X58763808Y-58832549D01*
X58778694Y-58863964D01*
X58792499Y-58896342D01*
X58805221Y-58929681D01*
X58816862Y-58963982D01*
X58827421Y-58999244D01*
X58836897Y-59035469D01*
X58845292Y-59072655D01*
X58852605Y-59110802D01*
X58854802Y-59123732D01*
X58861066Y-59162982D01*
X58866714Y-59202832D01*
X58871745Y-59243284D01*
X58876160Y-59284337D01*
X58879960Y-59325991D01*
X58883143Y-59368246D01*
X58885710Y-59411102D01*
X58887661Y-59454559D01*
X58888996Y-59498617D01*
X58889714Y-59543276D01*
X58889851Y-59573383D01*
X58889851Y-60898401D01*
X58151261Y-60898401D01*
X58151261Y-59724691D01*
X58150990Y-59685372D01*
X58150179Y-59645631D01*
X58148827Y-59605470D01*
X58146933Y-59564888D01*
X58144942Y-59530748D01*
X58143567Y-59510124D01*
X58140679Y-59475813D01*
X58135229Y-59435742D01*
X58127616Y-59396873D01*
X58117838Y-59359206D01*
X58105897Y-59322742D01*
X58099115Y-59304960D01*
X58083948Y-59270930D01*
X58066016Y-59239364D01*
X58045320Y-59210262D01*
X58021858Y-59183625D01*
X57995631Y-59159452D01*
X57986275Y-59151942D01*
X57955400Y-59131896D01*
X57919837Y-59115998D01*
X57886620Y-59105918D01*
X57850147Y-59098718D01*
X57810418Y-59094397D01*
X57767433Y-59092957D01*
X57732384Y-59093772D01*
X57690978Y-59097082D01*
X57652242Y-59102938D01*
X57616178Y-59111341D01*
X57582786Y-59122289D01*
X57546241Y-59138789D01*
X57534914Y-59145103D01*
X57503338Y-59165570D01*
X57474647Y-59188500D01*
X57448841Y-59213895D01*
X57425921Y-59241755D01*
X57405885Y-59272078D01*
X57399848Y-59282734D01*
X57383619Y-59315893D01*
X57369554Y-59350614D01*
X57357653Y-59386899D01*
X57347916Y-59424746D01*
X57340342Y-59464156D01*
X57338299Y-59477640D01*
X57334112Y-59511817D01*
X57330635Y-59546495D01*
X57327868Y-59581674D01*
X57325810Y-59617354D01*
X57324462Y-59653535D01*
X57323823Y-59690217D01*
X57323766Y-59705030D01*
X57323766Y-60898401D01*
X56585176Y-60898401D01*
X56585176Y-58491143D01*
G37*
D15*
%TO.C,J1*%
X85322400Y-28626400D02*
X85322400Y-26126400D01*
X85322403Y-41026400D02*
X85322403Y-38526400D01*
D16*
X85372403Y-38876400D02*
X85372403Y-39276400D01*
D15*
X86422400Y-24976398D02*
X101872400Y-24976398D01*
X101872400Y-24976398D02*
X101872400Y-29776398D01*
X101872400Y-29776398D02*
X86422400Y-29776398D01*
X86422400Y-29776398D02*
X86422400Y-24976398D01*
G36*
X86422400Y-24976398D02*
G01*
X101872400Y-24976398D01*
X101872400Y-29776398D01*
X86422400Y-29776398D01*
X86422400Y-24976398D01*
G37*
X86472400Y-37376400D02*
X101922400Y-37376400D01*
X101922400Y-37376400D02*
X101922400Y-42176400D01*
X101922400Y-42176400D02*
X86472400Y-42176400D01*
X86472400Y-42176400D02*
X86472400Y-37376400D01*
G36*
X86472400Y-37376400D02*
G01*
X101922400Y-37376400D01*
X101922400Y-42176400D01*
X86472400Y-42176400D01*
X86472400Y-37376400D01*
G37*
D17*
X87072400Y-26126400D02*
G75*
G03*
X87072400Y-26126400I-600000J0D01*
G01*
X87072400Y-28626402D02*
G75*
G03*
X87072400Y-28626402I-600000J0D01*
G01*
X87072403Y-38526400D02*
G75*
G03*
X87072403Y-38526400I-600000J0D01*
G01*
X87072403Y-41026402D02*
G75*
G03*
X87072403Y-41026402I-600000J0D01*
G01*
D15*
X87672398Y-26226400D02*
X87672400Y-28726402D01*
X85372400Y-28326400D01*
X85372400Y-26676400D01*
X87472400Y-25926400D01*
X87672398Y-26226400D01*
%TA.AperFunction,EtchedComponent*%
G36*
X87672398Y-26226400D02*
G01*
X87672400Y-28726402D01*
X85372400Y-28326400D01*
X85372400Y-26676400D01*
X87472400Y-25926400D01*
X87672398Y-26226400D01*
G37*
%TD.AperFunction*%
X87672401Y-38626400D02*
X87672403Y-41126402D01*
X85372403Y-40726400D01*
X85372403Y-39076400D01*
X87472403Y-38326400D01*
X87672401Y-38626400D01*
%TA.AperFunction,EtchedComponent*%
G36*
X87672401Y-38626400D02*
G01*
X87672403Y-41126402D01*
X85372403Y-40726400D01*
X85372403Y-39076400D01*
X87472403Y-38326400D01*
X87672401Y-38626400D01*
G37*
%TD.AperFunction*%
%TD*%
D18*
%TO.P,D20,1,K*%
%TO.N,Net-(D12-K)*%
X48668913Y-40286913D03*
%TO.P,D20,2,A*%
%TO.N,Row3*%
X47343087Y-38961087D03*
%TD*%
%TO.P,D28,1,K*%
%TO.N,Net-(D12-K)*%
X44858913Y-40286913D03*
%TO.P,D28,2,A*%
%TO.N,Row4*%
X43533087Y-38961087D03*
%TD*%
%TO.P,D60,1,K*%
%TO.N,Net-(D15-K)*%
X29718000Y-28829000D03*
%TO.P,D60,2,A*%
%TO.N,Row8*%
X28392174Y-27503174D03*
%TD*%
%TO.P,D61,1,K*%
%TO.N,Net-(D16-K)*%
X41048913Y-25046913D03*
%TO.P,D61,2,A*%
%TO.N,Row5*%
X39723087Y-23721087D03*
%TD*%
%TO.P,D58,1,K*%
%TO.N,Net-(D15-K)*%
X37338000Y-28829000D03*
%TO.P,D58,2,A*%
%TO.N,Row6*%
X36012174Y-27503174D03*
%TD*%
%TO.P,D46,1,K*%
%TO.N,Net-(D12-K)*%
X37338001Y-40231087D03*
%TO.P,D46,2,A*%
%TO.N,Row6*%
X36012175Y-38905261D03*
%TD*%
%TO.P,D64,1,K*%
%TO.N,Net-(D16-K)*%
X29618913Y-25046913D03*
%TO.P,D64,2,A*%
%TO.N,Row8*%
X28293087Y-23721087D03*
%TD*%
%TO.P,D41,1,K*%
%TO.N,Net-(D11-K)*%
X41175914Y-44069000D03*
%TO.P,D41,2,A*%
%TO.N,Row5*%
X39850088Y-42743174D03*
%TD*%
%TO.P,D25,1,K*%
%TO.N,Net-(D1-K)*%
X44858912Y-51716913D03*
%TO.P,D25,2,A*%
%TO.N,Row4*%
X43533086Y-50391087D03*
%TD*%
%TO.P,D35,1,K*%
%TO.N,Net-(D1-K)*%
X33528000Y-51661087D03*
%TO.P,D35,2,A*%
%TO.N,Row7*%
X32202174Y-50335261D03*
%TD*%
%TO.P,D16,1,K*%
%TO.N,Net-(D16-K)*%
X52450999Y-24919913D03*
%TO.P,D16,2,A*%
%TO.N,Row2*%
X51125173Y-23594087D03*
%TD*%
%TO.P,D14,1,K*%
%TO.N,Net-(D14-K)*%
X52534739Y-32611087D03*
%TO.P,D14,2,A*%
%TO.N,Row2*%
X51208913Y-31285261D03*
%TD*%
%TO.P,D1,1,K*%
%TO.N,Net-(D1-K)*%
X56288913Y-51716913D03*
%TO.P,D1,2,A*%
%TO.N,Row1*%
X54963087Y-50391087D03*
%TD*%
D19*
%TO.P,Y1,1,TRI_STATE*%
%TO.N,unconnected-(Y1-TRI_STATE-Pad1)*%
X65111800Y-55666200D03*
%TO.P,Y1,2,GND*%
%TO.N,GND*%
X65111800Y-57516200D03*
%TO.P,Y1,3,OUTPUT*%
%TO.N,CLK*%
X66561800Y-57516200D03*
%TO.P,Y1,4,VDD*%
%TO.N,+3V0*%
X66561800Y-55666200D03*
%TD*%
D18*
%TO.P,D3,1,K*%
%TO.N,Net-(D11-K)*%
X56062826Y-44168087D03*
%TO.P,D3,2,A*%
%TO.N,Row1*%
X54737000Y-42842261D03*
%TD*%
D20*
%TO.P,J1,1,Pin_1*%
%TO.N,+3V0*%
X102472400Y-39776400D03*
D21*
X102497400Y-27376400D03*
%TD*%
D18*
%TO.P,D21,1,K*%
%TO.N,Net-(D13-K)*%
X48569826Y-36576000D03*
%TO.P,D21,2,A*%
%TO.N,Row3*%
X47244000Y-35250174D03*
%TD*%
%TO.P,D52,1,K*%
%TO.N,Net-(D13-K)*%
X29718001Y-36421087D03*
%TO.P,D52,2,A*%
%TO.N,Row8*%
X28392175Y-35095261D03*
%TD*%
%TO.P,D34,1,K*%
%TO.N,Net-(D1-K)*%
X37338000Y-51661087D03*
%TO.P,D34,2,A*%
%TO.N,Row6*%
X36012174Y-50335261D03*
%TD*%
%TO.P,D37,1,K*%
%TO.N,Net-(D10-K)*%
X41148001Y-47851087D03*
%TO.P,D37,2,A*%
%TO.N,Row5*%
X39822175Y-46525261D03*
%TD*%
%TO.P,D18,1,K*%
%TO.N,Net-(D10-K)*%
X48641000Y-47879000D03*
%TO.P,D18,2,A*%
%TO.N,Row3*%
X47315174Y-46553174D03*
%TD*%
%TO.P,D39,1,K*%
%TO.N,Net-(D10-K)*%
X33528001Y-47851087D03*
%TO.P,D39,2,A*%
%TO.N,Row7*%
X32202175Y-46525261D03*
%TD*%
%TO.P,D10,1,K*%
%TO.N,Net-(D10-K)*%
X52478913Y-47851087D03*
%TO.P,D10,2,A*%
%TO.N,Row2*%
X51153087Y-46525261D03*
%TD*%
%TO.P,D29,1,K*%
%TO.N,Net-(D13-K)*%
X44731913Y-36603913D03*
%TO.P,D29,2,A*%
%TO.N,Row4*%
X43406087Y-35278087D03*
%TD*%
D22*
%TO.P,SW2,1,1*%
%TO.N,BUTTON2*%
X99796200Y-57790000D03*
X106096200Y-57790000D03*
%TO.P,SW2,2,2*%
%TO.N,Net-(R11-Pad1)*%
X99796200Y-61590000D03*
X106096200Y-61590000D03*
%TD*%
D18*
%TO.P,D32,1,K*%
%TO.N,Net-(D16-K)*%
X44830999Y-24919913D03*
%TO.P,D32,2,A*%
%TO.N,Row4*%
X43505173Y-23594087D03*
%TD*%
D23*
%TO.P,R4,1*%
%TO.N,Net-(D11-K)*%
X58675000Y-44450000D03*
%TO.P,R4,2*%
%TO.N,Col3*%
X60325000Y-44450000D03*
%TD*%
D24*
%TO.P,J2,1,Pin_1*%
%TO.N,SW_DIO*%
X83667600Y-46075600D03*
D25*
%TO.P,J2,2,Pin_2*%
%TO.N,SW_CLK*%
X86207600Y-46075600D03*
%TO.P,J2,3,Pin_3*%
%TO.N,RESET*%
X88747600Y-46075600D03*
%TO.P,J2,4,Pin_4*%
%TO.N,+3V0*%
X91287600Y-46075600D03*
%TO.P,J2,5,Pin_5*%
%TO.N,GND*%
X93827600Y-46075600D03*
%TD*%
D18*
%TO.P,D19,1,K*%
%TO.N,Net-(D11-K)*%
X48414913Y-44196000D03*
%TO.P,D19,2,A*%
%TO.N,Row3*%
X47089087Y-42870174D03*
%TD*%
%TO.P,D50,1,K*%
%TO.N,Net-(D13-K)*%
X37338001Y-36421087D03*
%TO.P,D50,2,A*%
%TO.N,Row6*%
X36012175Y-35095261D03*
%TD*%
%TO.P,D59,1,K*%
%TO.N,Net-(D15-K)*%
X33528000Y-28829000D03*
%TO.P,D59,2,A*%
%TO.N,Row7*%
X32202174Y-27503174D03*
%TD*%
D26*
%TO.P,C1,1*%
%TO.N,+3V0*%
X71615000Y-61874400D03*
%TO.P,C1,2*%
%TO.N,GND*%
X73165000Y-61874400D03*
%TD*%
D18*
%TO.P,D17,1,K*%
%TO.N,Net-(D1-K)*%
X48668912Y-51716913D03*
%TO.P,D17,2,A*%
%TO.N,Row3*%
X47343086Y-50391087D03*
%TD*%
D27*
%TO.P,U1,1,PB9*%
%TO.N,BUTTON2*%
X69545200Y-54346800D03*
%TO.P,U1,2,PC14*%
%TO.N,Row2*%
X69545200Y-54996800D03*
%TO.P,U1,3,PC15*%
%TO.N,Row1*%
X69545200Y-55646800D03*
%TO.P,U1,4,NRST*%
%TO.N,RESET*%
X69545200Y-56296800D03*
%TO.P,U1,5,VDDA*%
%TO.N,+3V0*%
X69545200Y-56946800D03*
%TO.P,U1,6,PA0*%
%TO.N,CLK*%
X69545200Y-57596800D03*
%TO.P,U1,7,PA1*%
%TO.N,SER*%
X69545200Y-58246800D03*
%TO.P,U1,8,PA2*%
%TO.N,RCLK*%
X69545200Y-58896800D03*
%TO.P,U1,9,PA3*%
%TO.N,SRCLK*%
X69545200Y-59546800D03*
%TO.P,U1,10,PA4*%
%TO.N,Row8*%
X69545200Y-60196800D03*
%TO.P,U1,11,PA5*%
%TO.N,Row7*%
X75270200Y-60196800D03*
%TO.P,U1,12,PA6*%
%TO.N,Row6*%
X75270200Y-59546800D03*
%TO.P,U1,13,PA7*%
%TO.N,Row5*%
X75270200Y-58896800D03*
%TO.P,U1,14,PB1*%
%TO.N,BUTTON*%
X75270200Y-58246800D03*
%TO.P,U1,15,VSS*%
%TO.N,GND*%
X75270200Y-57596800D03*
%TO.P,U1,16,VDD*%
%TO.N,+3V0*%
X75270200Y-56946800D03*
%TO.P,U1,17,PA9*%
%TO.N,Row4*%
X75270200Y-56296800D03*
%TO.P,U1,18,PA10*%
%TO.N,Row3*%
X75270200Y-55646800D03*
%TO.P,U1,19,PA13*%
%TO.N,SW_DIO*%
X75270200Y-54996800D03*
%TO.P,U1,20,PA14*%
%TO.N,SW_CLK*%
X75270200Y-54346800D03*
%TD*%
D18*
%TO.P,D38,1,K*%
%TO.N,Net-(D10-K)*%
X37338001Y-47851087D03*
%TO.P,D38,2,A*%
%TO.N,Row6*%
X36012175Y-46525261D03*
%TD*%
D28*
%TO.P,R12,1*%
%TO.N,BUTTON*%
X87350600Y-53506400D03*
%TO.P,R12,2*%
%TO.N,GND*%
X87350600Y-55156400D03*
%TD*%
D18*
%TO.P,D48,1,K*%
%TO.N,Net-(D12-K)*%
X29745914Y-40259000D03*
%TO.P,D48,2,A*%
%TO.N,Row8*%
X28420088Y-38933174D03*
%TD*%
D29*
%TO.P,R1,1*%
%TO.N,BUTTON2*%
X87376000Y-58255200D03*
%TO.P,R1,2*%
%TO.N,GND*%
X87376000Y-56605200D03*
%TD*%
D18*
%TO.P,D40,1,K*%
%TO.N,Net-(D10-K)*%
X29718001Y-47851087D03*
%TO.P,D40,2,A*%
%TO.N,Row8*%
X28392175Y-46525261D03*
%TD*%
%TO.P,D45,1,K*%
%TO.N,Net-(D12-K)*%
X41148001Y-40231087D03*
%TO.P,D45,2,A*%
%TO.N,Row5*%
X39822175Y-38905261D03*
%TD*%
%TO.P,D57,1,K*%
%TO.N,Net-(D15-K)*%
X41148000Y-28829000D03*
%TO.P,D57,2,A*%
%TO.N,Row5*%
X39822174Y-27503174D03*
%TD*%
%TO.P,D23,1,K*%
%TO.N,Net-(D15-K)*%
X48613086Y-28829000D03*
%TO.P,D23,2,A*%
%TO.N,Row3*%
X47287260Y-27503174D03*
%TD*%
%TO.P,D44,1,K*%
%TO.N,Net-(D11-K)*%
X29718001Y-44041087D03*
%TO.P,D44,2,A*%
%TO.N,Row8*%
X28392175Y-42715261D03*
%TD*%
%TO.P,D30,1,K*%
%TO.N,Net-(D14-K)*%
X44886826Y-32639000D03*
%TO.P,D30,2,A*%
%TO.N,Row4*%
X43561000Y-31313174D03*
%TD*%
%TO.P,D11,1,K*%
%TO.N,Net-(D11-K)*%
X52224913Y-44196000D03*
%TO.P,D11,2,A*%
%TO.N,Row2*%
X50899087Y-42870174D03*
%TD*%
%TO.P,D51,1,K*%
%TO.N,Net-(D13-K)*%
X33528001Y-36421087D03*
%TO.P,D51,2,A*%
%TO.N,Row7*%
X32202175Y-35095261D03*
%TD*%
D23*
%TO.P,R7,1*%
%TO.N,Net-(D14-K)*%
X58675000Y-33020000D03*
%TO.P,R7,2*%
%TO.N,Col6*%
X60325000Y-33020000D03*
%TD*%
%TO.P,R6,1*%
%TO.N,Net-(D13-K)*%
X58675000Y-36830000D03*
%TO.P,R6,2*%
%TO.N,Col5*%
X60325000Y-36830000D03*
%TD*%
D18*
%TO.P,D13,1,K*%
%TO.N,Net-(D13-K)*%
X52407739Y-36548087D03*
%TO.P,D13,2,A*%
%TO.N,Row2*%
X51081913Y-35222261D03*
%TD*%
%TO.P,D7,1,K*%
%TO.N,Net-(D15-K)*%
X56261000Y-28801087D03*
%TO.P,D7,2,A*%
%TO.N,Row1*%
X54935174Y-27475261D03*
%TD*%
%TO.P,D22,1,K*%
%TO.N,Net-(D14-K)*%
X48668913Y-32666913D03*
%TO.P,D22,2,A*%
%TO.N,Row3*%
X47343087Y-31341087D03*
%TD*%
D28*
%TO.P,R10,1*%
%TO.N,Net-(R10-Pad1)*%
X83185000Y-53442400D03*
%TO.P,R10,2*%
%TO.N,+3V0*%
X83185000Y-55092400D03*
%TD*%
D18*
%TO.P,D42,1,K*%
%TO.N,Net-(D11-K)*%
X37365914Y-44069000D03*
%TO.P,D42,2,A*%
%TO.N,Row6*%
X36040088Y-42743174D03*
%TD*%
D27*
%TO.P,U3,1,QB*%
%TO.N,Col7*%
X67190700Y-33031000D03*
%TO.P,U3,2,QC*%
%TO.N,Col6*%
X67190700Y-33681000D03*
%TO.P,U3,3,QD*%
%TO.N,Col5*%
X67190700Y-34331000D03*
%TO.P,U3,4,QE*%
%TO.N,Col4*%
X67190700Y-34981000D03*
%TO.P,U3,5,QF*%
%TO.N,Col3*%
X67190700Y-35631000D03*
%TO.P,U3,6,QG*%
%TO.N,Col2*%
X67190700Y-36281000D03*
%TO.P,U3,7,QH*%
%TO.N,Col1*%
X67190700Y-36931000D03*
%TO.P,U3,8,GND*%
%TO.N,GND*%
X67190700Y-37581000D03*
%TO.P,U3,9,QH'*%
%TO.N,unconnected-(U3-QH'-Pad9)*%
X72915700Y-37581000D03*
%TO.P,U3,10,~{SRCLR}*%
%TO.N,+3V0*%
X72915700Y-36931000D03*
%TO.P,U3,11,SRCLK*%
%TO.N,SRCLK*%
X72915700Y-36281000D03*
%TO.P,U3,12,RCLK*%
%TO.N,RCLK*%
X72915700Y-35631000D03*
%TO.P,U3,13,~{OE}*%
%TO.N,GND*%
X72915700Y-34981000D03*
%TO.P,U3,14,SER*%
%TO.N,SER*%
X72915700Y-34331000D03*
%TO.P,U3,15,QA*%
%TO.N,Col8*%
X72915700Y-33681000D03*
%TO.P,U3,16,VCC*%
%TO.N,+3V0*%
X72915700Y-33031000D03*
%TD*%
D18*
%TO.P,D15,1,K*%
%TO.N,Net-(D15-K)*%
X52450999Y-28801087D03*
%TO.P,D15,2,A*%
%TO.N,Row2*%
X51125173Y-27475261D03*
%TD*%
%TO.P,D12,1,K*%
%TO.N,Net-(D12-K)*%
X52506826Y-40259000D03*
%TO.P,D12,2,A*%
%TO.N,Row2*%
X51181000Y-38933174D03*
%TD*%
%TO.P,D2,1,K*%
%TO.N,Net-(D10-K)*%
X56288913Y-47851087D03*
%TO.P,D2,2,A*%
%TO.N,Row1*%
X54963087Y-46525261D03*
%TD*%
%TO.P,D43,1,K*%
%TO.N,Net-(D11-K)*%
X33555914Y-44069000D03*
%TO.P,D43,2,A*%
%TO.N,Row7*%
X32230088Y-42743174D03*
%TD*%
%TO.P,D62,1,K*%
%TO.N,Net-(D16-K)*%
X37238913Y-25046913D03*
%TO.P,D62,2,A*%
%TO.N,Row6*%
X35913087Y-23721087D03*
%TD*%
D29*
%TO.P,R11,1*%
%TO.N,Net-(R11-Pad1)*%
X83210400Y-58267400D03*
%TO.P,R11,2*%
%TO.N,+3V0*%
X83210400Y-56617400D03*
%TD*%
D18*
%TO.P,D53,1,K*%
%TO.N,Net-(D14-K)*%
X41148001Y-32611087D03*
%TO.P,D53,2,A*%
%TO.N,Row5*%
X39822175Y-31285261D03*
%TD*%
D23*
%TO.P,R8,1*%
%TO.N,Net-(D15-K)*%
X58675000Y-29210000D03*
%TO.P,R8,2*%
%TO.N,Col7*%
X60325000Y-29210000D03*
%TD*%
D18*
%TO.P,D33,1,K*%
%TO.N,Net-(D1-K)*%
X41120087Y-51633174D03*
%TO.P,D33,2,A*%
%TO.N,Row5*%
X39794261Y-50307348D03*
%TD*%
%TO.P,D47,1,K*%
%TO.N,Net-(D12-K)*%
X33528001Y-40231087D03*
%TO.P,D47,2,A*%
%TO.N,Row7*%
X32202175Y-38905261D03*
%TD*%
D22*
%TO.P,SW1,1,1*%
%TO.N,BUTTON*%
X106197800Y-54097000D03*
X99897800Y-54097000D03*
%TO.P,SW1,2,2*%
%TO.N,Net-(R10-Pad1)*%
X106197800Y-50297000D03*
X99897800Y-50297000D03*
%TD*%
D18*
%TO.P,D54,1,K*%
%TO.N,Net-(D14-K)*%
X37338001Y-32611087D03*
%TO.P,D54,2,A*%
%TO.N,Row6*%
X36012175Y-31285261D03*
%TD*%
D30*
%TO.P,C4,1*%
%TO.N,+3V0*%
X85369400Y-55093200D03*
%TO.P,C4,2*%
%TO.N,BUTTON*%
X85369400Y-53543200D03*
%TD*%
D18*
%TO.P,D26,1,K*%
%TO.N,Net-(D10-K)*%
X44831000Y-47879000D03*
%TO.P,D26,2,A*%
%TO.N,Row4*%
X43505174Y-46553174D03*
%TD*%
%TO.P,D31,1,K*%
%TO.N,Net-(D15-K)*%
X44803086Y-28829000D03*
%TO.P,D31,2,A*%
%TO.N,Row4*%
X43477260Y-27503174D03*
%TD*%
D31*
%TO.P,C2,1*%
%TO.N,GND*%
X68796200Y-39319200D03*
%TO.P,C2,2*%
%TO.N,+3V0*%
X67246200Y-39319200D03*
%TD*%
D23*
%TO.P,R3,1*%
%TO.N,Net-(D10-K)*%
X58675000Y-48260000D03*
%TO.P,R3,2*%
%TO.N,Col2*%
X60325000Y-48260000D03*
%TD*%
D18*
%TO.P,D24,1,K*%
%TO.N,Net-(D16-K)*%
X48640999Y-24919913D03*
%TO.P,D24,2,A*%
%TO.N,Row3*%
X47315173Y-23594087D03*
%TD*%
%TO.P,D36,1,K*%
%TO.N,Net-(D1-K)*%
X29690087Y-51633174D03*
%TO.P,D36,2,A*%
%TO.N,Row8*%
X28364261Y-50307348D03*
%TD*%
%TO.P,D4,1,K*%
%TO.N,Net-(D12-K)*%
X56316826Y-40259000D03*
%TO.P,D4,2,A*%
%TO.N,Row1*%
X54991000Y-38933174D03*
%TD*%
%TO.P,D56,1,K*%
%TO.N,Net-(D14-K)*%
X29773827Y-32666913D03*
%TO.P,D56,2,A*%
%TO.N,Row8*%
X28448001Y-31341087D03*
%TD*%
D32*
%TO.P,C3,1*%
%TO.N,+3V0*%
X85369400Y-56642000D03*
%TO.P,C3,2*%
%TO.N,BUTTON2*%
X85369400Y-58192000D03*
%TD*%
D23*
%TO.P,R9,1*%
%TO.N,Net-(D16-K)*%
X58675000Y-25400000D03*
%TO.P,R9,2*%
%TO.N,Col8*%
X60325000Y-25400000D03*
%TD*%
%TO.P,R2,1*%
%TO.N,Net-(D1-K)*%
X58675000Y-52070000D03*
%TO.P,R2,2*%
%TO.N,Col1*%
X60325000Y-52070000D03*
%TD*%
D18*
%TO.P,D27,1,K*%
%TO.N,Net-(D11-K)*%
X44604913Y-44196000D03*
%TO.P,D27,2,A*%
%TO.N,Row4*%
X43279087Y-42870174D03*
%TD*%
%TO.P,D55,1,K*%
%TO.N,Net-(D14-K)*%
X33528001Y-32611087D03*
%TO.P,D55,2,A*%
%TO.N,Row7*%
X32202175Y-31285261D03*
%TD*%
%TO.P,D5,1,K*%
%TO.N,Net-(D13-K)*%
X56217739Y-36548087D03*
%TO.P,D5,2,A*%
%TO.N,Row1*%
X54891913Y-35222261D03*
%TD*%
%TO.P,D63,1,K*%
%TO.N,Net-(D16-K)*%
X33428913Y-25046913D03*
%TO.P,D63,2,A*%
%TO.N,Row7*%
X32103087Y-23721087D03*
%TD*%
D23*
%TO.P,R5,1*%
%TO.N,Net-(D12-K)*%
X58675000Y-40640000D03*
%TO.P,R5,2*%
%TO.N,Col4*%
X60325000Y-40640000D03*
%TD*%
D18*
%TO.P,D9,1,K*%
%TO.N,Net-(D1-K)*%
X52506826Y-51689000D03*
%TO.P,D9,2,A*%
%TO.N,Row2*%
X51181000Y-50363174D03*
%TD*%
%TO.P,D6,1,K*%
%TO.N,Net-(D14-K)*%
X56344739Y-32611087D03*
%TO.P,D6,2,A*%
%TO.N,Row1*%
X55018913Y-31285261D03*
%TD*%
%TO.P,D49,1,K*%
%TO.N,Net-(D13-K)*%
X41148001Y-36421087D03*
%TO.P,D49,2,A*%
%TO.N,Row5*%
X39822175Y-35095261D03*
%TD*%
%TO.P,D8,1,K*%
%TO.N,Net-(D16-K)*%
X56288912Y-24892000D03*
%TO.P,D8,2,A*%
%TO.N,Row1*%
X54963086Y-23566174D03*
%TD*%
D33*
%TO.N,Row1*%
X53975000Y-34290000D03*
X53975000Y-30226000D03*
X53975000Y-49403000D03*
X67360800Y-50190400D03*
X53975000Y-38100000D03*
X53975000Y-41910000D03*
X53975000Y-45593000D03*
X53975000Y-26543000D03*
X53975000Y-22733000D03*
%TO.N,Row2*%
X50165000Y-34417000D03*
X68935600Y-50952400D03*
X50165000Y-42037000D03*
X50165000Y-26670000D03*
X50165000Y-30353000D03*
X50292000Y-38227000D03*
X50165000Y-49530000D03*
X50292000Y-45720000D03*
X50165000Y-22860000D03*
%TO.N,Row3*%
X77657799Y-55362800D03*
X46355000Y-45593000D03*
X46355000Y-38100000D03*
X46355000Y-30226000D03*
X46355000Y-22733000D03*
X46355000Y-49403000D03*
X46355000Y-34290000D03*
X46355000Y-41910000D03*
X46355000Y-26543000D03*
%TO.N,Row4*%
X78943200Y-55981600D03*
X42545000Y-41910000D03*
X42545000Y-22733000D03*
X42545000Y-49403000D03*
X42545000Y-45593000D03*
X42545000Y-26543000D03*
X42545000Y-38100000D03*
X42545000Y-34290000D03*
X42545000Y-30226000D03*
%TO.N,Row5*%
X38608000Y-38100000D03*
X38608000Y-41910000D03*
X78638400Y-59436000D03*
X38608000Y-34290000D03*
X38608000Y-30226000D03*
X38608000Y-26543000D03*
X38608000Y-22733000D03*
X38608000Y-45593000D03*
X38608000Y-49403000D03*
%TO.N,Row6*%
X34925000Y-34417000D03*
X34925000Y-22860000D03*
X78384400Y-60909200D03*
X34925000Y-38227000D03*
X34925000Y-49530000D03*
X34925000Y-26670000D03*
X34925000Y-42037000D03*
X34925000Y-45720000D03*
X34925000Y-30353000D03*
%TO.N,Row7*%
X30988000Y-42164000D03*
X30988000Y-26797000D03*
X30988000Y-34544000D03*
X77063600Y-61163200D03*
X30988000Y-22987000D03*
X30988000Y-45847000D03*
X30988000Y-38354000D03*
X30988000Y-30480000D03*
X30988000Y-49657000D03*
%TO.N,Row8*%
X27432000Y-30353000D03*
X27432000Y-49530000D03*
X27432000Y-22860000D03*
X67564000Y-59486800D03*
X27432000Y-38227000D03*
X27432000Y-42037000D03*
X27432000Y-45720000D03*
X27432000Y-26670000D03*
X27432000Y-34417000D03*
%TO.N,+3V0*%
X74422000Y-33020000D03*
X70104000Y-61874400D03*
X67360800Y-40894000D03*
X63550800Y-56489600D03*
X107086400Y-29108400D03*
X107035600Y-25654000D03*
X81076800Y-55880000D03*
X107086400Y-41503600D03*
X107035600Y-38049200D03*
X69189600Y-49225200D03*
%TO.N,GND*%
X89255600Y-55880000D03*
X87731600Y-48564800D03*
X81127600Y-57556400D03*
X74747000Y-34981000D03*
%TO.N,BUTTON*%
X79908400Y-58775600D03*
X86410800Y-52451000D03*
%TO.N,BUTTON2*%
X86360000Y-59359800D03*
X62026800Y-56896000D03*
%TO.N,SRCLK*%
X70713600Y-37084000D03*
X73914000Y-47955200D03*
%TO.N,RCLK*%
X73253600Y-46990000D03*
X69850000Y-36220400D03*
%TO.N,SER*%
X68681600Y-33883600D03*
X72644000Y-45872400D03*
%TD*%
D34*
%TO.N,Net-(D1-K)*%
X49021999Y-52070000D02*
X45211999Y-52070000D01*
X29971999Y-52070000D02*
X29590999Y-51689000D01*
X37591999Y-52070000D02*
X33781999Y-52070000D01*
X45211999Y-52070000D02*
X41401999Y-52070000D01*
X37591999Y-52070000D02*
X37238912Y-51716913D01*
X56642000Y-52070000D02*
X52887826Y-52070000D01*
X41401999Y-52070000D02*
X37591999Y-52070000D01*
X52887826Y-52070000D02*
X49021999Y-52070000D01*
X33781999Y-52070000D02*
X33428912Y-51716913D01*
X52887826Y-52070000D02*
X52506826Y-51689000D01*
X56642000Y-52070000D02*
X56288913Y-51716913D01*
X49021999Y-52070000D02*
X48668912Y-51716913D01*
X45211999Y-52070000D02*
X44858912Y-51716913D01*
X33781999Y-52070000D02*
X29971999Y-52070000D01*
X41401999Y-52070000D02*
X41020999Y-51689000D01*
X58675000Y-52070000D02*
X56642000Y-52070000D01*
D35*
%TO.N,Row1*%
X67360800Y-54610000D02*
X67360800Y-50190400D01*
D34*
X54808174Y-23566174D02*
X53975000Y-22733000D01*
X54907261Y-27475261D02*
X53975000Y-26543000D01*
X54891913Y-35206913D02*
X53975000Y-34290000D01*
D35*
X68397600Y-55646800D02*
X67360800Y-54610000D01*
D34*
X54737000Y-42672000D02*
X53975000Y-41910000D01*
X54737000Y-42842261D02*
X54737000Y-42672000D01*
X54935174Y-27475261D02*
X54907261Y-27475261D01*
X54963087Y-46525261D02*
X54907261Y-46525261D01*
X54891913Y-35222261D02*
X54891913Y-35206913D01*
X55018913Y-31285261D02*
X55018913Y-31269913D01*
X54991000Y-38933174D02*
X54808174Y-38933174D01*
D35*
X69545200Y-55646800D02*
X68397600Y-55646800D01*
D34*
X54963087Y-50391087D02*
X53975000Y-49403000D01*
X54907261Y-46525261D02*
X53975000Y-45593000D01*
X55018913Y-31269913D02*
X53975000Y-30226000D01*
X54963086Y-23566174D02*
X54808174Y-23566174D01*
X54808174Y-38933174D02*
X53975000Y-38100000D01*
%TO.N,Net-(D10-K)*%
X41402000Y-48260000D02*
X41048913Y-47906913D01*
X56697826Y-48260000D02*
X52887826Y-48260000D01*
X56697826Y-48260000D02*
X56288913Y-47851087D01*
X52887826Y-48260000D02*
X52478913Y-47851087D01*
X33782000Y-48260000D02*
X33428913Y-47906913D01*
X37592000Y-48260000D02*
X37238913Y-47906913D01*
X49022000Y-48260000D02*
X45212000Y-48260000D01*
X33782000Y-48260000D02*
X29972000Y-48260000D01*
X37592000Y-48260000D02*
X33782000Y-48260000D01*
X45212000Y-48260000D02*
X41402000Y-48260000D01*
X58675000Y-48260000D02*
X56697826Y-48260000D01*
X29972000Y-48260000D02*
X29618913Y-47906913D01*
X41402000Y-48260000D02*
X37592000Y-48260000D01*
X45212000Y-48260000D02*
X44831000Y-47879000D01*
X52887826Y-48260000D02*
X49022000Y-48260000D01*
X49022000Y-48260000D02*
X48641000Y-47879000D01*
%TO.N,Net-(D11-K)*%
X42545000Y-44450000D02*
X38735000Y-44450000D01*
X49530000Y-44450000D02*
X45720000Y-44450000D01*
X52478913Y-44450000D02*
X52224913Y-44196000D01*
X34290000Y-44450000D02*
X29972000Y-44450000D01*
X49530000Y-44450000D02*
X48668913Y-44450000D01*
X53340000Y-44450000D02*
X49530000Y-44450000D01*
X41402000Y-44450000D02*
X41048913Y-44096913D01*
X38735000Y-44450000D02*
X37592000Y-44450000D01*
X29972000Y-44450000D02*
X29646826Y-44124826D01*
X56344739Y-44450000D02*
X53340000Y-44450000D01*
X53340000Y-44450000D02*
X52478913Y-44450000D01*
X45720000Y-44450000D02*
X42545000Y-44450000D01*
X38735000Y-44450000D02*
X34290000Y-44450000D01*
X45720000Y-44450000D02*
X44858913Y-44450000D01*
X56344739Y-44450000D02*
X56062826Y-44168087D01*
X37592000Y-44450000D02*
X37266826Y-44124826D01*
X33782000Y-44450000D02*
X33456826Y-44124826D01*
X42545000Y-44450000D02*
X41402000Y-44450000D01*
X34290000Y-44450000D02*
X33782000Y-44450000D01*
X48668913Y-44450000D02*
X48414913Y-44196000D01*
X58675000Y-44450000D02*
X56344739Y-44450000D01*
X44858913Y-44450000D02*
X44604913Y-44196000D01*
%TO.N,Net-(D12-K)*%
X41402000Y-40640000D02*
X41076826Y-40314826D01*
X29972000Y-40640000D02*
X29618913Y-40286913D01*
X49530000Y-40640000D02*
X45720000Y-40640000D01*
X38100000Y-40640000D02*
X37592000Y-40640000D01*
X45720000Y-40640000D02*
X45212000Y-40640000D01*
X53975000Y-40640000D02*
X49530000Y-40640000D01*
X34290000Y-40640000D02*
X33782000Y-40640000D01*
X41910000Y-40640000D02*
X38100000Y-40640000D01*
X45720000Y-40640000D02*
X41910000Y-40640000D01*
X52887826Y-40640000D02*
X52506826Y-40259000D01*
X57150000Y-40640000D02*
X53975000Y-40640000D01*
X41910000Y-40640000D02*
X41402000Y-40640000D01*
X33782000Y-40640000D02*
X33428913Y-40286913D01*
X56697826Y-40640000D02*
X56316826Y-40259000D01*
X49530000Y-40640000D02*
X49022000Y-40640000D01*
X38100000Y-40640000D02*
X34290000Y-40640000D01*
X45212000Y-40640000D02*
X44858913Y-40286913D01*
X57150000Y-40640000D02*
X56697826Y-40640000D01*
X34290000Y-40640000D02*
X29972000Y-40640000D01*
X53975000Y-40640000D02*
X52887826Y-40640000D01*
X58675000Y-40640000D02*
X57150000Y-40640000D01*
X37592000Y-40640000D02*
X37238913Y-40286913D01*
X49022000Y-40640000D02*
X48668913Y-40286913D01*
%TO.N,Net-(D13-K)*%
X49530000Y-36830000D02*
X46355000Y-36830000D01*
X34925000Y-36830000D02*
X29972000Y-36830000D01*
X34925000Y-36830000D02*
X33782000Y-36830000D01*
X53340000Y-36830000D02*
X52689652Y-36830000D01*
X52689652Y-36830000D02*
X52407739Y-36548087D01*
X37592000Y-36830000D02*
X37238913Y-36476913D01*
X41402000Y-36830000D02*
X41048913Y-36476913D01*
X41910000Y-36830000D02*
X38735000Y-36830000D01*
X46355000Y-36830000D02*
X44958000Y-36830000D01*
X48823826Y-36830000D02*
X48569826Y-36576000D01*
X56499652Y-36830000D02*
X56217739Y-36548087D01*
X46355000Y-36830000D02*
X41910000Y-36830000D01*
X57150000Y-36830000D02*
X56499652Y-36830000D01*
X29972000Y-36830000D02*
X29618913Y-36476913D01*
X41910000Y-36830000D02*
X41402000Y-36830000D01*
X38735000Y-36830000D02*
X34925000Y-36830000D01*
X53340000Y-36830000D02*
X49530000Y-36830000D01*
X44958000Y-36830000D02*
X44731913Y-36603913D01*
X58675000Y-36830000D02*
X57150000Y-36830000D01*
X38735000Y-36830000D02*
X37592000Y-36830000D01*
X49530000Y-36830000D02*
X48823826Y-36830000D01*
X33782000Y-36830000D02*
X33428913Y-36476913D01*
X57150000Y-36830000D02*
X53340000Y-36830000D01*
%TO.N,Net-(D14-K)*%
X46355000Y-33020000D02*
X45267826Y-33020000D01*
X52943652Y-33020000D02*
X52534739Y-32611087D01*
X41402000Y-33020000D02*
X41104739Y-32722739D01*
X53975000Y-33020000D02*
X52943652Y-33020000D01*
X58675000Y-33020000D02*
X57785000Y-33020000D01*
X38735000Y-33020000D02*
X37592000Y-33020000D01*
X43180000Y-33020000D02*
X38735000Y-33020000D01*
X34290000Y-33020000D02*
X33782000Y-33020000D01*
X34290000Y-33020000D02*
X29972000Y-33020000D01*
X38735000Y-33020000D02*
X34290000Y-33020000D01*
X29972000Y-33020000D02*
X29618913Y-32666913D01*
X50800000Y-33020000D02*
X49022000Y-33020000D01*
X45267826Y-33020000D02*
X44886826Y-32639000D01*
X56753652Y-33020000D02*
X56344739Y-32611087D01*
X50800000Y-33020000D02*
X46355000Y-33020000D01*
X46355000Y-33020000D02*
X43180000Y-33020000D01*
X33782000Y-33020000D02*
X33428913Y-32666913D01*
X53975000Y-33020000D02*
X50800000Y-33020000D01*
X57785000Y-33020000D02*
X56753652Y-33020000D01*
X43180000Y-33020000D02*
X41402000Y-33020000D01*
X49022000Y-33020000D02*
X48668913Y-32666913D01*
X57785000Y-33020000D02*
X53975000Y-33020000D01*
X37592000Y-33020000D02*
X37238913Y-32666913D01*
%TO.N,Net-(D15-K)*%
X45184086Y-29210000D02*
X44803086Y-28829000D01*
X29944086Y-29210000D02*
X29618912Y-28884826D01*
X42545000Y-29210000D02*
X38735000Y-29210000D01*
X53975000Y-29210000D02*
X49530000Y-29210000D01*
X49530000Y-29210000D02*
X48994086Y-29210000D01*
X38735000Y-29210000D02*
X37564086Y-29210000D01*
X57150000Y-29210000D02*
X56669913Y-29210000D01*
X49530000Y-29210000D02*
X46355000Y-29210000D01*
X33754086Y-29210000D02*
X33428912Y-28884826D01*
X34925000Y-29210000D02*
X29944086Y-29210000D01*
X38735000Y-29210000D02*
X34925000Y-29210000D01*
X46355000Y-29210000D02*
X42545000Y-29210000D01*
X37564086Y-29210000D02*
X37238912Y-28884826D01*
X58675000Y-29210000D02*
X57150000Y-29210000D01*
X48994086Y-29210000D02*
X48613086Y-28829000D01*
X52859912Y-29210000D02*
X52450999Y-28801087D01*
X53975000Y-29210000D02*
X52859912Y-29210000D01*
X56669913Y-29210000D02*
X56261000Y-28801087D01*
X42545000Y-29210000D02*
X41374086Y-29210000D01*
X41374086Y-29210000D02*
X41048912Y-28884826D01*
X57150000Y-29210000D02*
X53975000Y-29210000D01*
X34925000Y-29210000D02*
X33754086Y-29210000D01*
X46355000Y-29210000D02*
X45184086Y-29210000D01*
%TO.N,Net-(D16-K)*%
X37437086Y-25400000D02*
X37139825Y-25102739D01*
X46990000Y-25400000D02*
X42545000Y-25400000D01*
X58675000Y-25400000D02*
X57785000Y-25400000D01*
X49121086Y-25400000D02*
X48640999Y-24919913D01*
X57785000Y-25400000D02*
X53975000Y-25400000D01*
X42545000Y-25400000D02*
X38100000Y-25400000D01*
X34925000Y-25400000D02*
X29817086Y-25400000D01*
X42545000Y-25400000D02*
X41247086Y-25400000D01*
X50165000Y-25400000D02*
X46990000Y-25400000D01*
X45311086Y-25400000D02*
X44830999Y-24919913D01*
X41247086Y-25400000D02*
X40949825Y-25102739D01*
X52931086Y-25400000D02*
X52450999Y-24919913D01*
X38100000Y-25400000D02*
X37437086Y-25400000D01*
X56796912Y-25400000D02*
X56288912Y-24892000D01*
X33627086Y-25400000D02*
X33329825Y-25102739D01*
X57785000Y-25400000D02*
X56796912Y-25400000D01*
X38100000Y-25400000D02*
X34925000Y-25400000D01*
X50165000Y-25400000D02*
X49121086Y-25400000D01*
X53975000Y-25400000D02*
X50165000Y-25400000D01*
X34925000Y-25400000D02*
X33627086Y-25400000D01*
X53975000Y-25400000D02*
X52931086Y-25400000D01*
X29817086Y-25400000D02*
X29519825Y-25102739D01*
X46990000Y-25400000D02*
X45311086Y-25400000D01*
%TO.N,Row2*%
X51181000Y-38933174D02*
X50998174Y-38933174D01*
D35*
X68021200Y-51866800D02*
X68021200Y-54267407D01*
D34*
X50998174Y-50363174D02*
X50165000Y-49530000D01*
X50970261Y-27475261D02*
X50165000Y-26670000D01*
D35*
X68935600Y-50952400D02*
X68021200Y-51866800D01*
X68021200Y-54267407D02*
X68750593Y-54996800D01*
D34*
X51097261Y-31285261D02*
X50165000Y-30353000D01*
X50899087Y-42771087D02*
X50165000Y-42037000D01*
X50970261Y-35222261D02*
X50165000Y-34417000D01*
X51208913Y-31285261D02*
X51097261Y-31285261D01*
X50899087Y-23594087D02*
X50165000Y-22860000D01*
D35*
X68750593Y-54996800D02*
X69545200Y-54996800D01*
D34*
X51125173Y-23594087D02*
X50899087Y-23594087D01*
X50998174Y-38933174D02*
X50292000Y-38227000D01*
X51125173Y-27475261D02*
X50970261Y-27475261D01*
X51181000Y-50363174D02*
X50998174Y-50363174D01*
X51153087Y-46525261D02*
X51097261Y-46525261D01*
X51097261Y-46525261D02*
X50292000Y-45720000D01*
X50899087Y-42870174D02*
X50899087Y-42771087D01*
X51081913Y-35222261D02*
X50970261Y-35222261D01*
%TO.N,Row3*%
X47216087Y-38961087D02*
X46355000Y-38100000D01*
X47343087Y-38961087D02*
X47216087Y-38961087D01*
X47315174Y-46553174D02*
X46355000Y-45593000D01*
X47343086Y-50391086D02*
X46355000Y-49403000D01*
X47216087Y-23594087D02*
X46355000Y-22733000D01*
X47287260Y-27475260D02*
X46355000Y-26543000D01*
D35*
X77373799Y-55646800D02*
X75270200Y-55646800D01*
D34*
X47089087Y-42644087D02*
X46355000Y-41910000D01*
D35*
X77657799Y-55362800D02*
X77373799Y-55646800D01*
D34*
X47244000Y-35179000D02*
X46355000Y-34290000D01*
X47343087Y-31341087D02*
X47343087Y-31214087D01*
X47287260Y-27503174D02*
X47287260Y-27475260D01*
X47315173Y-23594087D02*
X47216087Y-23594087D01*
X47244000Y-35250174D02*
X47244000Y-35179000D01*
X47089087Y-42870174D02*
X47089087Y-42644087D01*
X47343087Y-31214087D02*
X46355000Y-30226000D01*
X47343086Y-50391087D02*
X47343086Y-50391086D01*
%TO.N,Row4*%
X43561000Y-31242000D02*
X42545000Y-30226000D01*
X43505173Y-23594087D02*
X43406087Y-23594087D01*
X43406087Y-35151087D02*
X42545000Y-34290000D01*
D35*
X78628000Y-56296800D02*
X75270200Y-56296800D01*
D34*
X43477260Y-27475260D02*
X42545000Y-26543000D01*
X43477260Y-27503174D02*
X43477260Y-27475260D01*
X43533087Y-38961087D02*
X43406087Y-38961087D01*
X43561000Y-31313174D02*
X43561000Y-31242000D01*
X43406087Y-38961087D02*
X42545000Y-38100000D01*
X43406087Y-35278087D02*
X43406087Y-35151087D01*
X43533086Y-50391086D02*
X42545000Y-49403000D01*
X43406087Y-23594087D02*
X42545000Y-22733000D01*
X43533086Y-50391087D02*
X43533086Y-50391086D01*
X43505174Y-46553174D02*
X42545000Y-45593000D01*
X43279087Y-42644087D02*
X42545000Y-41910000D01*
X43279087Y-42870174D02*
X43279087Y-42644087D01*
D35*
X78943200Y-55981600D02*
X78628000Y-56296800D01*
D34*
%TO.N,Row5*%
X39850088Y-42743174D02*
X39441174Y-42743174D01*
X39723087Y-23721087D02*
X39596087Y-23721087D01*
X39822175Y-35095261D02*
X39413261Y-35095261D01*
X39822175Y-31285261D02*
X39667261Y-31285261D01*
X39596087Y-23721087D02*
X38608000Y-22733000D01*
X39540261Y-46525261D02*
X38608000Y-45593000D01*
X39441174Y-42743174D02*
X38608000Y-41910000D01*
X39794261Y-50307348D02*
X39512348Y-50307348D01*
D35*
X78099200Y-58896800D02*
X75270200Y-58896800D01*
X78638400Y-59436000D02*
X78099200Y-58896800D01*
D34*
X39822174Y-27503174D02*
X39568174Y-27503174D01*
X39512348Y-50307348D02*
X38608000Y-49403000D01*
X39667261Y-31285261D02*
X38608000Y-30226000D01*
X39822175Y-46525261D02*
X39540261Y-46525261D01*
X39413261Y-38905261D02*
X38608000Y-38100000D01*
X39822175Y-38905261D02*
X39413261Y-38905261D01*
X39413261Y-35095261D02*
X38608000Y-34290000D01*
X39568174Y-27503174D02*
X38608000Y-26543000D01*
%TO.N,Row6*%
X35758174Y-27503174D02*
X34925000Y-26670000D01*
X36012175Y-46525261D02*
X35730261Y-46525261D01*
X35730261Y-50335261D02*
X34925000Y-49530000D01*
X35730261Y-46525261D02*
X34925000Y-45720000D01*
X35631174Y-42743174D02*
X34925000Y-42037000D01*
X35857261Y-31285261D02*
X34925000Y-30353000D01*
X36012174Y-50335261D02*
X35730261Y-50335261D01*
X36012175Y-31285261D02*
X35857261Y-31285261D01*
X36040088Y-42743174D02*
X35631174Y-42743174D01*
X35786087Y-23721087D02*
X34925000Y-22860000D01*
X36012174Y-27503174D02*
X35758174Y-27503174D01*
X36012175Y-35095261D02*
X35603261Y-35095261D01*
X35603261Y-38905261D02*
X34925000Y-38227000D01*
X36012175Y-38905261D02*
X35603261Y-38905261D01*
D35*
X78384400Y-60909200D02*
X77022000Y-59546800D01*
D34*
X35913087Y-23721087D02*
X35786087Y-23721087D01*
X35603261Y-35095261D02*
X34925000Y-34417000D01*
D35*
X77022000Y-59546800D02*
X75270200Y-59546800D01*
D34*
%TO.N,Row7*%
X32202175Y-38905261D02*
X31539261Y-38905261D01*
X31722087Y-23721087D02*
X30988000Y-22987000D01*
X31539261Y-38905261D02*
X30988000Y-38354000D01*
X31694174Y-27503174D02*
X30988000Y-26797000D01*
X32202175Y-46525261D02*
X31666261Y-46525261D01*
X32202174Y-50335261D02*
X31666261Y-50335261D01*
X31666261Y-50335261D02*
X30988000Y-49657000D01*
X32230088Y-42743174D02*
X31567174Y-42743174D01*
X32202175Y-35095261D02*
X31539261Y-35095261D01*
X31539261Y-35095261D02*
X30988000Y-34544000D01*
D35*
X76097200Y-60196800D02*
X75270200Y-60196800D01*
D34*
X31666261Y-46525261D02*
X30988000Y-45847000D01*
X32202174Y-27503174D02*
X31694174Y-27503174D01*
X32202175Y-31285261D02*
X31793261Y-31285261D01*
X31567174Y-42743174D02*
X30988000Y-42164000D01*
D35*
X77063600Y-61163200D02*
X76097200Y-60196800D01*
D34*
X32103087Y-23721087D02*
X31722087Y-23721087D01*
X31793261Y-31285261D02*
X30988000Y-30480000D01*
D35*
%TO.N,Row8*%
X68274000Y-60196800D02*
X69545200Y-60196800D01*
D34*
X28392175Y-42715261D02*
X28110261Y-42715261D01*
D35*
X28209348Y-50307348D02*
X27432000Y-49530000D01*
X28364261Y-50307348D02*
X28209348Y-50307348D01*
D34*
X28138174Y-38933174D02*
X27432000Y-38227000D01*
D35*
X67564000Y-59486800D02*
X68274000Y-60196800D01*
D34*
X28448001Y-31341087D02*
X28420087Y-31341087D01*
X28392174Y-27503174D02*
X28265174Y-27503174D01*
X28420088Y-38933174D02*
X28138174Y-38933174D01*
D35*
X28293087Y-23721087D02*
X27432000Y-22860000D01*
D34*
X28392175Y-35095261D02*
X28110261Y-35095261D01*
X28392175Y-46525261D02*
X28237261Y-46525261D01*
X28110261Y-35095261D02*
X27432000Y-34417000D01*
X28265174Y-27503174D02*
X27432000Y-26670000D01*
X28420087Y-31341087D02*
X27432000Y-30353000D01*
X28237261Y-46525261D02*
X27432000Y-45720000D01*
X28110261Y-42715261D02*
X27432000Y-42037000D01*
%TO.N,+3V0*%
X108153200Y-28092400D02*
X107899200Y-28346400D01*
D35*
X64922400Y-54305200D02*
X63652400Y-54305200D01*
X72915700Y-36931000D02*
X74524200Y-36931000D01*
D34*
X105968800Y-20929600D02*
X108407200Y-23368000D01*
X107086400Y-25654000D02*
X108153200Y-26720800D01*
D35*
X75895200Y-35560000D02*
X75895200Y-33782000D01*
X63652400Y-54305200D02*
X63550800Y-54203600D01*
X75270200Y-56946800D02*
X74183072Y-56946800D01*
D34*
X108153200Y-26720800D02*
X108153200Y-28092400D01*
X108153200Y-39166800D02*
X108966000Y-38354000D01*
X74422000Y-33020000D02*
X74422000Y-22910800D01*
X83185000Y-55092400D02*
X83185000Y-55880000D01*
X68732400Y-48768000D02*
X66751200Y-48768000D01*
X66561800Y-54979400D02*
X66561800Y-55666200D01*
X108153200Y-40487600D02*
X108102400Y-40538400D01*
X81076800Y-55880000D02*
X83185000Y-55880000D01*
X85318600Y-55880000D02*
X85369400Y-55829200D01*
X108102400Y-40538400D02*
X107594400Y-41046400D01*
X69189600Y-49225200D02*
X68732400Y-48768000D01*
X74422000Y-22910800D02*
X76403200Y-20929600D01*
X108153200Y-40487600D02*
X108813600Y-41148000D01*
X63855600Y-54305200D02*
X64922400Y-54305200D01*
D35*
X80010000Y-56946800D02*
X81076800Y-55880000D01*
D34*
X107035600Y-38049200D02*
X108153200Y-39166800D01*
X91897200Y-44196000D02*
X108102400Y-44196000D01*
D35*
X75144200Y-33031000D02*
X74422000Y-33031000D01*
X66791400Y-55666200D02*
X66561800Y-55666200D01*
X71615000Y-61176200D02*
X71615000Y-61874400D01*
D34*
X74422000Y-33031000D02*
X74422000Y-33020000D01*
X91287600Y-44805600D02*
X91897200Y-44196000D01*
X108153200Y-39166800D02*
X108153200Y-39370000D01*
X64922400Y-54305200D02*
X65887600Y-54305200D01*
D35*
X71475600Y-38760400D02*
X69850000Y-40386000D01*
D34*
X83185000Y-55880000D02*
X83185000Y-56592000D01*
D35*
X74422000Y-33031000D02*
X72915700Y-33031000D01*
D34*
X65887600Y-54305200D02*
X66561800Y-54979400D01*
D35*
X69850000Y-40386000D02*
X67360800Y-40386000D01*
X74183072Y-56946800D02*
X73161600Y-57968272D01*
X68072000Y-56946800D02*
X66791400Y-55666200D01*
D34*
X107645200Y-25654000D02*
X107035600Y-25654000D01*
X63550800Y-54203600D02*
X63550800Y-54610000D01*
X83185000Y-55880000D02*
X85318600Y-55880000D01*
D35*
X75270200Y-56946800D02*
X80010000Y-56946800D01*
X71475600Y-37576493D02*
X71475600Y-38760400D01*
X72915700Y-36931000D02*
X72121093Y-36931000D01*
X67360800Y-40386000D02*
X67360800Y-39433800D01*
D34*
X85369400Y-55829200D02*
X85369400Y-56642000D01*
D35*
X74524200Y-36931000D02*
X75895200Y-35560000D01*
D34*
X107899200Y-28346400D02*
X107594400Y-28651200D01*
X107035600Y-25654000D02*
X107086400Y-25654000D01*
X108102400Y-44196000D02*
X108813600Y-43484800D01*
X108407200Y-24892000D02*
X107645200Y-25654000D01*
X85369400Y-55093200D02*
X85369400Y-55829200D01*
X108966000Y-38354000D02*
X108966000Y-28905200D01*
D35*
X72121093Y-36931000D02*
X71475600Y-37576493D01*
D34*
X108407200Y-23368000D02*
X108407200Y-24892000D01*
D35*
X69545200Y-56946800D02*
X68072000Y-56946800D01*
X75895200Y-33782000D02*
X75144200Y-33031000D01*
D34*
X108813600Y-43484800D02*
X108813600Y-41148000D01*
X66751200Y-48768000D02*
X63550800Y-51968400D01*
X108966000Y-28905200D02*
X108153200Y-28092400D01*
X108153200Y-39370000D02*
X108153200Y-40487600D01*
X76403200Y-20929600D02*
X105968800Y-20929600D01*
D35*
X67360800Y-39433800D02*
X67246200Y-39319200D01*
D34*
X91287600Y-46075600D02*
X91287600Y-44805600D01*
X83185000Y-56592000D02*
X83210400Y-56617400D01*
X63550800Y-51968400D02*
X63550800Y-54203600D01*
D35*
X73161600Y-57968272D02*
X73161600Y-59629600D01*
X67360800Y-40894000D02*
X67360800Y-40386000D01*
X73161600Y-59629600D02*
X71615000Y-61176200D01*
D34*
X63550800Y-56489600D02*
X63550800Y-54610000D01*
D35*
X71615000Y-61874400D02*
X70104000Y-61874400D01*
%TO.N,GND*%
X74381600Y-57596800D02*
X75270200Y-57596800D01*
D34*
X87376000Y-55880000D02*
X87376000Y-55181800D01*
X65111800Y-61251000D02*
X65111800Y-57516200D01*
D35*
X73165000Y-60474728D02*
X73761600Y-59878128D01*
X74747000Y-34981000D02*
X72915700Y-34981000D01*
D34*
X73165000Y-61874400D02*
X73165000Y-62420200D01*
D35*
X81026000Y-57556400D02*
X81127600Y-57556400D01*
X81066400Y-57596800D02*
X81026000Y-57556400D01*
X81127600Y-57658000D02*
X81076800Y-57607200D01*
D34*
X87731600Y-48564800D02*
X93065600Y-48564800D01*
D35*
X68796200Y-38417800D02*
X67959400Y-37581000D01*
X73761600Y-58216800D02*
X74381600Y-57596800D01*
D34*
X93065600Y-48564800D02*
X93827600Y-47802800D01*
D35*
X68796200Y-39319200D02*
X68796200Y-35496200D01*
D34*
X87376000Y-56605200D02*
X87376000Y-55880000D01*
X66954400Y-63093600D02*
X65111800Y-61251000D01*
D35*
X81127600Y-57556400D02*
X81127600Y-57658000D01*
D34*
X93827600Y-47802800D02*
X93827600Y-46075600D01*
X87376000Y-55181800D02*
X87350600Y-55156400D01*
D35*
X72895500Y-35001200D02*
X72915700Y-34981000D01*
X69291200Y-35001200D02*
X72895500Y-35001200D01*
X73165000Y-61874400D02*
X73165000Y-60474728D01*
X68796200Y-35496200D02*
X69291200Y-35001200D01*
X75270200Y-57596800D02*
X81066400Y-57596800D01*
X68796200Y-39319200D02*
X68796200Y-38417800D01*
X67959400Y-37581000D02*
X67190700Y-37581000D01*
D34*
X73165000Y-62420200D02*
X72491600Y-63093600D01*
D35*
X73761600Y-59878128D02*
X73761600Y-58216800D01*
D34*
X72491600Y-63093600D02*
X66954400Y-63093600D01*
X89255600Y-55880000D02*
X87376000Y-55880000D01*
D35*
%TO.N,RESET*%
X69545200Y-56296800D02*
X70550800Y-56296800D01*
X70550800Y-56296800D02*
X71323200Y-55524400D01*
X88747600Y-44805600D02*
X88747600Y-46075600D01*
X87884000Y-43942000D02*
X88747600Y-44805600D01*
X71323200Y-45364400D02*
X72745600Y-43942000D01*
X72745600Y-43942000D02*
X87884000Y-43942000D01*
X71323200Y-55524400D02*
X71323200Y-45364400D01*
%TO.N,Col1*%
X60375800Y-52120800D02*
X61061600Y-52120800D01*
X66396093Y-36931000D02*
X67190700Y-36931000D01*
X66053200Y-37273893D02*
X66396093Y-36931000D01*
X61061600Y-52120800D02*
X66053200Y-47129200D01*
X60325000Y-52070000D02*
X60375800Y-52120800D01*
X66053200Y-47129200D02*
X66053200Y-37273893D01*
%TO.N,Col2*%
X63347600Y-48260000D02*
X65453200Y-46154400D01*
X66197565Y-36281000D02*
X67190700Y-36281000D01*
X65453200Y-46154400D02*
X65453200Y-37025365D01*
X65453200Y-37025365D02*
X66197565Y-36281000D01*
X60325000Y-48260000D02*
X63347600Y-48260000D01*
%TO.N,Col3*%
X64853200Y-42182400D02*
X64853200Y-36746800D01*
X60325000Y-44450000D02*
X62585600Y-44450000D01*
X64853200Y-36746800D02*
X65969000Y-35631000D01*
X65969000Y-35631000D02*
X67190700Y-35631000D01*
X62585600Y-44450000D02*
X64853200Y-42182400D01*
%TO.N,Col4*%
X65770472Y-34981000D02*
X67190700Y-34981000D01*
X64253200Y-36498272D02*
X65770472Y-34981000D01*
X60325000Y-40640000D02*
X62331600Y-40640000D01*
X64253200Y-38718400D02*
X64253200Y-36498272D01*
X62331600Y-40640000D02*
X64253200Y-38718400D01*
%TO.N,Col5*%
X63072944Y-36830000D02*
X65571944Y-34331000D01*
X60325000Y-36830000D02*
X63072944Y-36830000D01*
X65571944Y-34331000D02*
X67190700Y-34331000D01*
%TO.N,Col6*%
X64211200Y-33020000D02*
X64922400Y-33731200D01*
X64922400Y-33731200D02*
X67140500Y-33731200D01*
X67140500Y-33731200D02*
X67190700Y-33681000D01*
X60325000Y-33020000D02*
X64211200Y-33020000D01*
%TO.N,Col7*%
X61315600Y-29210000D02*
X60325000Y-29210000D01*
X65136600Y-33031000D02*
X61315600Y-29210000D01*
X67190700Y-33031000D02*
X65136600Y-33031000D01*
%TO.N,Col8*%
X72915700Y-33681000D02*
X70206200Y-33681000D01*
X61925200Y-25400000D02*
X60325000Y-25400000D01*
X70206200Y-33681000D02*
X61925200Y-25400000D01*
D34*
%TO.N,Net-(R10-Pad1)*%
X83185000Y-52806600D02*
X85694600Y-50297000D01*
X85694600Y-50297000D02*
X99897800Y-50297000D01*
X83185000Y-53442400D02*
X83185000Y-52806600D01*
D36*
X106197800Y-50297000D02*
X99897800Y-50297000D01*
D35*
%TO.N,BUTTON*%
X79400400Y-58267600D02*
X79908400Y-58775600D01*
D34*
X97912000Y-54097000D02*
X99897800Y-54097000D01*
D36*
X106197800Y-54097000D02*
X99897800Y-54097000D01*
D34*
X87350600Y-53506400D02*
X97321400Y-53506400D01*
D35*
X75270200Y-58246800D02*
X75291000Y-58267600D01*
D34*
X86410800Y-52451000D02*
X86410800Y-53492400D01*
D35*
X75291000Y-58267600D02*
X79400400Y-58267600D01*
D34*
X86360000Y-53543200D02*
X87313800Y-53543200D01*
X87313800Y-53543200D02*
X87350600Y-53506400D01*
X85369400Y-53543200D02*
X86360000Y-53543200D01*
X97321400Y-53506400D02*
X97912000Y-54097000D01*
X86410800Y-53492400D02*
X86360000Y-53543200D01*
%TO.N,Net-(R11-Pad1)*%
X85770800Y-61590000D02*
X99796200Y-61590000D01*
X83210400Y-58267400D02*
X83210400Y-59029600D01*
X83210400Y-59029600D02*
X85770800Y-61590000D01*
D36*
X106096200Y-61590000D02*
X99796200Y-61590000D01*
D34*
%TO.N,BUTTON2*%
X87376000Y-58255200D02*
X86487000Y-58255200D01*
X87376000Y-58255200D02*
X97218200Y-58255200D01*
D36*
X106096200Y-57790000D02*
X99796200Y-57790000D01*
D34*
X86360000Y-58382200D02*
X86487000Y-58255200D01*
D35*
X62026800Y-56896000D02*
X62026800Y-52120800D01*
X70265600Y-54346800D02*
X69545200Y-54346800D01*
D34*
X97683400Y-57790000D02*
X99796200Y-57790000D01*
X86360000Y-59359800D02*
X86360000Y-58382200D01*
D35*
X70358000Y-47955200D02*
X70723200Y-48320400D01*
D34*
X85432600Y-58255200D02*
X85369400Y-58192000D01*
D35*
X70723200Y-48320400D02*
X70723200Y-53889200D01*
D34*
X86487000Y-58255200D02*
X85432600Y-58255200D01*
X97218200Y-58255200D02*
X97683400Y-57790000D01*
D35*
X66192400Y-47955200D02*
X70358000Y-47955200D01*
X62026800Y-52120800D02*
X66192400Y-47955200D01*
X70723200Y-53889200D02*
X70265600Y-54346800D01*
%TO.N,SRCLK*%
X73123200Y-48746000D02*
X73914000Y-47955200D01*
X69545200Y-59546800D02*
X70736863Y-59546800D01*
X72561600Y-57719744D02*
X73123200Y-57158144D01*
X73123200Y-57158144D02*
X73123200Y-48746000D01*
X72561600Y-57722063D02*
X72561600Y-57719744D01*
X72915700Y-36281000D02*
X71516600Y-36281000D01*
X70736863Y-59546800D02*
X72561600Y-57722063D01*
X71516600Y-36281000D02*
X70713600Y-37084000D01*
%TO.N,RCLK*%
X70439400Y-35631000D02*
X72915700Y-35631000D01*
X72523200Y-47618800D02*
X73152000Y-46990000D01*
X73253600Y-46888400D02*
X73152000Y-46990000D01*
X72523200Y-56909616D02*
X72523200Y-47618800D01*
X69850000Y-36220400D02*
X70439400Y-35631000D01*
X70538335Y-58896800D02*
X71961600Y-57473535D01*
X73253600Y-46990000D02*
X73253600Y-46888400D01*
X71961600Y-57471216D02*
X72523200Y-56909616D01*
X71961600Y-57473535D02*
X71961600Y-57471216D01*
X73152000Y-46990000D02*
X73253600Y-46990000D01*
X69545200Y-58896800D02*
X70538335Y-58896800D01*
%TO.N,SER*%
X72644000Y-45872400D02*
X72644000Y-45821600D01*
X72593200Y-45872400D02*
X72644000Y-45872400D01*
X71361600Y-57222688D02*
X71923200Y-56661088D01*
X69129000Y-34331000D02*
X72915700Y-34331000D01*
X72644000Y-45821600D02*
X72491600Y-45974000D01*
X69545200Y-58246800D02*
X70339807Y-58246800D01*
X71361600Y-57225007D02*
X71361600Y-57222688D01*
X71923200Y-46542400D02*
X72593200Y-45872400D01*
X71923200Y-56661088D02*
X71923200Y-46542400D01*
X68681600Y-33883600D02*
X69129000Y-34331000D01*
X70339807Y-58246800D02*
X71361600Y-57225007D01*
%TO.N,SW_DIO*%
X75270200Y-54996800D02*
X74097600Y-54996800D01*
X81026000Y-46075600D02*
X83667600Y-46075600D01*
X73863200Y-54762400D02*
X73863200Y-53238400D01*
X73863200Y-53238400D02*
X81026000Y-46075600D01*
X74097600Y-54996800D02*
X73863200Y-54762400D01*
%TO.N,SW_CLK*%
X79155600Y-54346800D02*
X86207600Y-47294800D01*
X86207600Y-47294800D02*
X86207600Y-46075600D01*
X75270200Y-54346800D02*
X79155600Y-54346800D01*
%TO.N,CLK*%
X66561800Y-57516200D02*
X66642400Y-57596800D01*
X66642400Y-57596800D02*
X69545200Y-57596800D01*
%TD*%
%TA.AperFunction,Conductor*%
%TO.N,+3V0*%
G36*
X107639039Y-24943683D02*
G01*
X107684794Y-24996487D01*
X107696000Y-25047998D01*
X107696000Y-29721000D01*
X107676315Y-29788039D01*
X107623511Y-29833794D01*
X107572000Y-29845000D01*
X104241600Y-29845000D01*
X104267000Y-29819600D01*
X104267000Y-27403791D01*
X104495998Y-27403791D01*
X104506364Y-27515659D01*
X104532559Y-27568265D01*
X104556442Y-27616228D01*
X104639467Y-27691916D01*
X104744227Y-27732500D01*
X105518900Y-27732500D01*
X105585939Y-27752185D01*
X105631694Y-27804989D01*
X105642900Y-27856500D01*
X105642900Y-28602844D01*
X105658339Y-28685433D01*
X105717481Y-28780952D01*
X105807136Y-28848656D01*
X105807138Y-28848656D01*
X105807139Y-28848657D01*
X105915190Y-28879401D01*
X105915191Y-28879401D01*
X105915192Y-28879400D01*
X105915193Y-28879401D01*
X106027060Y-28869035D01*
X106127628Y-28818958D01*
X106203316Y-28735933D01*
X106243900Y-28631173D01*
X106243900Y-27856500D01*
X106263585Y-27789461D01*
X106316389Y-27743706D01*
X106367900Y-27732500D01*
X107114241Y-27732500D01*
X107114244Y-27732500D01*
X107196833Y-27717061D01*
X107292352Y-27657919D01*
X107360056Y-27568264D01*
X107375023Y-27515660D01*
X107390801Y-27460209D01*
X107390801Y-27460207D01*
X107380435Y-27348340D01*
X107330358Y-27247773D01*
X107330358Y-27247772D01*
X107247333Y-27172084D01*
X107247332Y-27172083D01*
X107182426Y-27146939D01*
X107142573Y-27131500D01*
X107142572Y-27131500D01*
X106367900Y-27131500D01*
X106300861Y-27111815D01*
X106255106Y-27059011D01*
X106243900Y-27007500D01*
X106243900Y-26261159D01*
X106243900Y-26261158D01*
X106243900Y-26261156D01*
X106228461Y-26178567D01*
X106169319Y-26083048D01*
X106079664Y-26015344D01*
X106079662Y-26015343D01*
X106079660Y-26015342D01*
X105971609Y-25984598D01*
X105971608Y-25984598D01*
X105859740Y-25994964D01*
X105759173Y-26045041D01*
X105683483Y-26128067D01*
X105642900Y-26232828D01*
X105642900Y-27007500D01*
X105623215Y-27074539D01*
X105570411Y-27120294D01*
X105518900Y-27131500D01*
X104772556Y-27131500D01*
X104689967Y-27146939D01*
X104689965Y-27146939D01*
X104689964Y-27146940D01*
X104594447Y-27206081D01*
X104594447Y-27206082D01*
X104526745Y-27295734D01*
X104526742Y-27295739D01*
X104495998Y-27403790D01*
X104495998Y-27403791D01*
X104267000Y-27403791D01*
X104267000Y-24962798D01*
X104228200Y-24923998D01*
X107572000Y-24923998D01*
X107639039Y-24943683D01*
G37*
%TD.AperFunction*%
%TD*%
%TA.AperFunction,Conductor*%
%TO.N,+3V0*%
G36*
X107639039Y-37357685D02*
G01*
X107684794Y-37410489D01*
X107696000Y-37462000D01*
X107696000Y-42090800D01*
X107676315Y-42157839D01*
X107623511Y-42203594D01*
X107572000Y-42214800D01*
X103073762Y-42214800D01*
X103006723Y-42195115D01*
X102986081Y-42178481D01*
X102906319Y-42098719D01*
X102872834Y-42037396D01*
X102870000Y-42011038D01*
X102870000Y-39748191D01*
X104495998Y-39748191D01*
X104506364Y-39860059D01*
X104532559Y-39912665D01*
X104556442Y-39960628D01*
X104639467Y-40036316D01*
X104744227Y-40076900D01*
X105518900Y-40076900D01*
X105585939Y-40096585D01*
X105631694Y-40149389D01*
X105642900Y-40200900D01*
X105642900Y-40947244D01*
X105658339Y-41029833D01*
X105717481Y-41125352D01*
X105807136Y-41193056D01*
X105807138Y-41193056D01*
X105807139Y-41193057D01*
X105915190Y-41223801D01*
X105915191Y-41223801D01*
X105915192Y-41223800D01*
X105915193Y-41223801D01*
X106027060Y-41213435D01*
X106127628Y-41163358D01*
X106203316Y-41080333D01*
X106243900Y-40975573D01*
X106243900Y-40200899D01*
X106263585Y-40133861D01*
X106316389Y-40088106D01*
X106367900Y-40076900D01*
X107114241Y-40076900D01*
X107114244Y-40076900D01*
X107196833Y-40061461D01*
X107292352Y-40002319D01*
X107360056Y-39912664D01*
X107375023Y-39860060D01*
X107390801Y-39804609D01*
X107390801Y-39804607D01*
X107380435Y-39692740D01*
X107330358Y-39592173D01*
X107330358Y-39592172D01*
X107247333Y-39516484D01*
X107247332Y-39516483D01*
X107182426Y-39491339D01*
X107142573Y-39475900D01*
X107142572Y-39475900D01*
X106367900Y-39475900D01*
X106300861Y-39456215D01*
X106255106Y-39403411D01*
X106243900Y-39351900D01*
X106243900Y-38605559D01*
X106243900Y-38605556D01*
X106228461Y-38522967D01*
X106169319Y-38427448D01*
X106079664Y-38359744D01*
X106079662Y-38359743D01*
X106079660Y-38359742D01*
X105971609Y-38328998D01*
X105971608Y-38328998D01*
X105859740Y-38339364D01*
X105759173Y-38389441D01*
X105683483Y-38472467D01*
X105642900Y-38577228D01*
X105642900Y-39351900D01*
X105623215Y-39418939D01*
X105570411Y-39464694D01*
X105518900Y-39475900D01*
X104772556Y-39475900D01*
X104689967Y-39491339D01*
X104689965Y-39491339D01*
X104689964Y-39491340D01*
X104594447Y-39550481D01*
X104594447Y-39550482D01*
X104526745Y-39640134D01*
X104526742Y-39640139D01*
X104495998Y-39748190D01*
X104495998Y-39748191D01*
X102870000Y-39748191D01*
X102870000Y-37462000D01*
X102889685Y-37394961D01*
X102942489Y-37349206D01*
X102994000Y-37338000D01*
X107572000Y-37338000D01*
X107639039Y-37357685D01*
G37*
%TD.AperFunction*%
%TD*%
%TA.AperFunction,Conductor*%
%TO.N,+3V0*%
G36*
X104267000Y-24962798D02*
G01*
X104267000Y-29819600D01*
X104241600Y-29845000D01*
X104140000Y-29845000D01*
X102246900Y-29845000D01*
X102179861Y-29825315D01*
X102134106Y-29772511D01*
X102122900Y-29721000D01*
X102122900Y-25047998D01*
X102142585Y-24980959D01*
X102195389Y-24935204D01*
X102246900Y-24923998D01*
X104228200Y-24923998D01*
X104267000Y-24962798D01*
G37*
%TD.AperFunction*%
%TD*%
M02*
