M48
; DRILL file {KiCad 7.0.7} date 2025 March 26, Wednesday 12:32:00
; FORMAT={-:-/ absolute / metric / decimal}
; #@! TF.CreationDate,2025-03-26T12:32:00-04:00
; #@! TF.GenerationSoftware,Kicad,Pcbnew,7.0.7
; #@! TF.FileFunction,Plated,1,2,PTH
FMAT,2
METRIC
; #@! TA.AperFunction,Plated,PTH,ViaDrill
T1C0.400
; #@! TA.AperFunction,Plated,PTH,ComponentDrill
T2C1.000
%
G90
G05
T1
X27.432Y-22.86
X27.432Y-26.67
X27.432Y-30.353
X27.432Y-34.417
X27.432Y-38.227
X27.432Y-42.037
X27.432Y-45.72
X27.432Y-49.53
X30.988Y-22.987
X30.988Y-26.797
X30.988Y-30.48
X30.988Y-34.544
X30.988Y-38.354
X30.988Y-42.164
X30.988Y-45.847
X30.988Y-49.657
X34.925Y-22.86
X34.925Y-26.67
X34.925Y-30.353
X34.925Y-34.417
X34.925Y-38.227
X34.925Y-42.037
X34.925Y-45.72
X34.925Y-49.53
X38.608Y-22.733
X38.608Y-26.543
X38.608Y-30.226
X38.608Y-34.29
X38.608Y-38.1
X38.608Y-41.91
X38.608Y-45.593
X38.608Y-49.403
X42.545Y-22.733
X42.545Y-26.543
X42.545Y-30.226
X42.545Y-34.29
X42.545Y-38.1
X42.545Y-41.91
X42.545Y-45.593
X42.545Y-49.403
X46.355Y-22.733
X46.355Y-26.543
X46.355Y-30.226
X46.355Y-34.29
X46.355Y-38.1
X46.355Y-41.91
X46.355Y-45.593
X46.355Y-49.403
X50.165Y-22.86
X50.165Y-26.67
X50.165Y-30.353
X50.165Y-34.417
X50.165Y-42.037
X50.165Y-49.53
X50.292Y-38.227
X50.292Y-45.72
X53.975Y-22.733
X53.975Y-26.543
X53.975Y-30.226
X53.975Y-34.29
X53.975Y-38.1
X53.975Y-41.91
X53.975Y-45.593
X53.975Y-49.403
X62.027Y-56.896
X63.551Y-56.49
X67.361Y-40.894
X67.361Y-50.19
X67.564Y-59.487
X68.682Y-33.884
X68.936Y-50.952
X69.19Y-49.225
X69.85Y-36.22
X70.104Y-61.874
X70.714Y-37.084
X72.644Y-45.872
X73.254Y-46.99
X73.914Y-47.955
X74.422Y-33.02
X74.747Y-34.981
X77.064Y-61.163
X77.658Y-55.363
X78.384Y-60.909
X78.638Y-59.436
X78.943Y-55.982
X79.908Y-58.776
X81.077Y-55.88
X81.128Y-57.556
X86.36Y-59.36
X86.411Y-52.451
X87.732Y-48.565
X89.256Y-55.88
X107.036Y-25.654
X107.036Y-38.049
X107.086Y-29.108
X107.086Y-41.504
T2
X83.668Y-46.076
X86.208Y-46.076
X88.748Y-46.076
X91.288Y-46.076
X93.828Y-46.076
T0
M30
