%TF.GenerationSoftware,KiCad,Pcbnew,7.0.7*%
%TF.CreationDate,2025-03-26T12:31:57-04:00*%
%TF.ProjectId,stm_business_card2,73746d5f-6275-4736-996e-6573735f6361,rev?*%
%TF.SameCoordinates,Original*%
%TF.FileFunction,Copper,L2,Bot*%
%TF.FilePolarity,Positive*%
%FSLAX46Y46*%
G04 Gerber Fmt 4.6, Leading zero omitted, Abs format (unit mm)*
G04 Created by KiCad (PCBNEW 7.0.7) date 2025-03-26 12:31:57*
%MOMM*%
%LPD*%
G01*
G04 APERTURE LIST*
G04 Aperture macros list*
%AMRoundRect*
0 Rectangle with rounded corners*
0 $1 Rounding radius*
0 $2 $3 $4 $5 $6 $7 $8 $9 X,Y pos of 4 corners*
0 Add a 4 corners polygon primitive as box body*
4,1,4,$2,$3,$4,$5,$6,$7,$8,$9,$2,$3,0*
0 Add four circle primitives for the rounded corners*
1,1,$1+$1,$2,$3*
1,1,$1+$1,$4,$5*
1,1,$1+$1,$6,$7*
1,1,$1+$1,$8,$9*
0 Add four rect primitives between the rounded corners*
20,1,$1+$1,$2,$3,$4,$5,0*
20,1,$1+$1,$4,$5,$6,$7,0*
20,1,$1+$1,$6,$7,$8,$9,0*
20,1,$1+$1,$8,$9,$2,$3,0*%
G04 Aperture macros list end*
%TA.AperFunction,EtchedComponent*%
%ADD10C,0.100000*%
%TD*%
%TA.AperFunction,EtchedComponent*%
%ADD11C,1.200000*%
%TD*%
%TA.AperFunction,SMDPad,CuDef*%
%ADD12RoundRect,0.581625X-0.581625X-1.878375X0.581625X-1.878375X0.581625X1.878375X-0.581625X1.878375X0*%
%TD*%
%TA.AperFunction,ComponentPad*%
%ADD13R,1.700000X1.700000*%
%TD*%
%TA.AperFunction,ComponentPad*%
%ADD14O,1.700000X1.700000*%
%TD*%
%TA.AperFunction,ViaPad*%
%ADD15C,0.800000*%
%TD*%
%TA.AperFunction,Conductor*%
%ADD16C,0.750000*%
%TD*%
%TA.AperFunction,Conductor*%
%ADD17C,0.400000*%
%TD*%
G04 APERTURE END LIST*
D10*
%TO.C,J1*%
X93972400Y-32326398D02*
X93972400Y-34826398D01*
D11*
X93372400Y-32346398D02*
G75*
G03*
X93372400Y-32346398I-600000J0D01*
G01*
X93372402Y-34846400D02*
G75*
G03*
X93372402Y-34846400I-600000J0D01*
G01*
D10*
X92972402Y-35996400D02*
X77197002Y-35996400D01*
X77197002Y-31196399D01*
X92972402Y-31196399D01*
X92972402Y-35996400D01*
%TA.AperFunction,EtchedComponent*%
G36*
X92972402Y-35996400D02*
G01*
X77197002Y-35996400D01*
X77197002Y-31196399D01*
X92972402Y-31196399D01*
X92972402Y-35996400D01*
G37*
%TD.AperFunction*%
X93922400Y-32746400D02*
X93922400Y-34396400D01*
X91822400Y-35146400D01*
X91622402Y-34846400D01*
X91622400Y-32346398D01*
X93922400Y-32746400D01*
%TA.AperFunction,EtchedComponent*%
G36*
X93922400Y-32746400D02*
G01*
X93922400Y-34396400D01*
X91822400Y-35146400D01*
X91622402Y-34846400D01*
X91622400Y-32346398D01*
X93922400Y-32746400D01*
G37*
%TD.AperFunction*%
%TD*%
D12*
%TO.P,J1,2,Pin_2*%
%TO.N,GND*%
X77955650Y-33586400D03*
%TD*%
D13*
%TO.P,J2,1,Pin_1*%
%TO.N,SW_DIO*%
X83667600Y-46075600D03*
D14*
%TO.P,J2,2,Pin_2*%
%TO.N,SW_CLK*%
X86207600Y-46075600D03*
%TO.P,J2,3,Pin_3*%
%TO.N,RESET*%
X88747600Y-46075600D03*
%TO.P,J2,4,Pin_4*%
%TO.N,+3V0*%
X91287600Y-46075600D03*
%TO.P,J2,5,Pin_5*%
%TO.N,GND*%
X93827600Y-46075600D03*
%TD*%
D15*
%TO.N,Row1*%
X53975000Y-34290000D03*
X53975000Y-30226000D03*
X53975000Y-49403000D03*
X67360800Y-50190400D03*
X53975000Y-38100000D03*
X53975000Y-41910000D03*
X53975000Y-45593000D03*
X53975000Y-26543000D03*
X53975000Y-22733000D03*
%TO.N,Row2*%
X50165000Y-34417000D03*
X68935600Y-50952400D03*
X50165000Y-42037000D03*
X50165000Y-26670000D03*
X50165000Y-30353000D03*
X50292000Y-38227000D03*
X50165000Y-49530000D03*
X50292000Y-45720000D03*
X50165000Y-22860000D03*
%TO.N,Row3*%
X77657799Y-55362800D03*
X46355000Y-45593000D03*
X46355000Y-38100000D03*
X46355000Y-30226000D03*
X46355000Y-22733000D03*
X46355000Y-49403000D03*
X46355000Y-34290000D03*
X46355000Y-41910000D03*
X46355000Y-26543000D03*
%TO.N,Row4*%
X78943200Y-55981600D03*
X42545000Y-41910000D03*
X42545000Y-22733000D03*
X42545000Y-49403000D03*
X42545000Y-45593000D03*
X42545000Y-26543000D03*
X42545000Y-38100000D03*
X42545000Y-34290000D03*
X42545000Y-30226000D03*
%TO.N,Row5*%
X38608000Y-38100000D03*
X38608000Y-41910000D03*
X78638400Y-59436000D03*
X38608000Y-34290000D03*
X38608000Y-30226000D03*
X38608000Y-26543000D03*
X38608000Y-22733000D03*
X38608000Y-45593000D03*
X38608000Y-49403000D03*
%TO.N,Row6*%
X34925000Y-34417000D03*
X34925000Y-22860000D03*
X78384400Y-60909200D03*
X34925000Y-38227000D03*
X34925000Y-49530000D03*
X34925000Y-26670000D03*
X34925000Y-42037000D03*
X34925000Y-45720000D03*
X34925000Y-30353000D03*
%TO.N,Row7*%
X30988000Y-42164000D03*
X30988000Y-26797000D03*
X30988000Y-34544000D03*
X77063600Y-61163200D03*
X30988000Y-22987000D03*
X30988000Y-45847000D03*
X30988000Y-38354000D03*
X30988000Y-30480000D03*
X30988000Y-49657000D03*
%TO.N,Row8*%
X27432000Y-30353000D03*
X27432000Y-49530000D03*
X27432000Y-22860000D03*
X67564000Y-59486800D03*
X27432000Y-38227000D03*
X27432000Y-42037000D03*
X27432000Y-45720000D03*
X27432000Y-26670000D03*
X27432000Y-34417000D03*
%TO.N,+3V0*%
X74422000Y-33020000D03*
X70104000Y-61874400D03*
X67360800Y-40894000D03*
X63550800Y-56489600D03*
X107086400Y-29108400D03*
X107035600Y-25654000D03*
X81076800Y-55880000D03*
X107086400Y-41503600D03*
X107035600Y-38049200D03*
X69189600Y-49225200D03*
%TO.N,GND*%
X89255600Y-55880000D03*
X87731600Y-48564800D03*
X81127600Y-57556400D03*
X74747000Y-34981000D03*
%TO.N,BUTTON*%
X79908400Y-58775600D03*
X86410800Y-52451000D03*
%TO.N,BUTTON2*%
X86360000Y-59359800D03*
X62026800Y-56896000D03*
%TO.N,SRCLK*%
X70713600Y-37084000D03*
X73914000Y-47955200D03*
%TO.N,RCLK*%
X73253600Y-46990000D03*
X69850000Y-36220400D03*
%TO.N,SER*%
X68681600Y-33883600D03*
X72644000Y-45872400D03*
%TD*%
D16*
%TO.N,Row1*%
X53975000Y-49403000D02*
X53975000Y-22733000D01*
D17*
X53975000Y-49504600D02*
X54660800Y-50190400D01*
X53975000Y-49403000D02*
X53975000Y-49504600D01*
X54660800Y-50190400D02*
X67360800Y-50190400D01*
D16*
%TO.N,Row2*%
X50165000Y-49530000D02*
X50165000Y-22860000D01*
D17*
X68935600Y-50952400D02*
X68897600Y-50990400D01*
X51625400Y-50990400D02*
X50165000Y-49530000D01*
X68897600Y-50990400D02*
X51625400Y-50990400D01*
%TO.N,Row3*%
X75682800Y-55362800D02*
X77657799Y-55362800D01*
X72136000Y-51816000D02*
X75682800Y-55362800D01*
D16*
X46355000Y-49403000D02*
X46355000Y-22733000D01*
D17*
X46355000Y-49403000D02*
X48768000Y-51816000D01*
X48768000Y-51816000D02*
X72136000Y-51816000D01*
%TO.N,Row4*%
X78943200Y-55981600D02*
X78587600Y-56337200D01*
X71887472Y-52416000D02*
X45558000Y-52416000D01*
X45558000Y-52416000D02*
X42545000Y-49403000D01*
X78587600Y-56337200D02*
X75808672Y-56337200D01*
D16*
X42545000Y-49403000D02*
X42545000Y-22733000D01*
D17*
X75808672Y-56337200D02*
X71887472Y-52416000D01*
%TO.N,Row5*%
X78638400Y-59436000D02*
X78149200Y-58946800D01*
X78149200Y-58946800D02*
X77082400Y-58946800D01*
X42221000Y-53016000D02*
X38608000Y-49403000D01*
X77082400Y-58946800D02*
X71151600Y-53016000D01*
X71151600Y-53016000D02*
X42221000Y-53016000D01*
D16*
X38608000Y-49403000D02*
X38608000Y-22733000D01*
D17*
%TO.N,Row6*%
X77022000Y-59546800D02*
X76403200Y-59546800D01*
X78384400Y-60909200D02*
X77022000Y-59546800D01*
X70472400Y-53616000D02*
X39011000Y-53616000D01*
X39011000Y-53616000D02*
X34925000Y-49530000D01*
X76403200Y-59546800D02*
X70472400Y-53616000D01*
D16*
X34925000Y-49530000D02*
X34925000Y-22860000D01*
D17*
%TO.N,Row7*%
X35547000Y-54216000D02*
X30988000Y-49657000D01*
X70223872Y-54216000D02*
X35547000Y-54216000D01*
X77063600Y-61055728D02*
X70223872Y-54216000D01*
D16*
X30988000Y-49657000D02*
X30988000Y-22987000D01*
D17*
X77063600Y-61163200D02*
X77063600Y-61055728D01*
%TO.N,Row8*%
X67564000Y-56540400D02*
X65938400Y-54914800D01*
D16*
X27432000Y-49530000D02*
X27432000Y-22860000D01*
D17*
X67564000Y-59486800D02*
X67564000Y-56540400D01*
X32816800Y-54914800D02*
X27432000Y-49530000D01*
X65938400Y-54914800D02*
X32816800Y-54914800D01*
D16*
%TO.N,+3V0*%
X108813600Y-43637200D02*
X108813600Y-41097200D01*
X67360800Y-30327600D02*
X67360800Y-40894000D01*
X108153200Y-39166800D02*
X108915200Y-38404800D01*
X97078800Y-44094400D02*
X108356400Y-44094400D01*
X80111600Y-63144400D02*
X85140800Y-58115200D01*
X108153200Y-26771600D02*
X107035600Y-25654000D01*
X70104000Y-61874400D02*
X71628000Y-61874400D01*
X71729600Y-30327600D02*
X67360800Y-30327600D01*
X108153200Y-28041600D02*
X108153200Y-26771600D01*
X66852800Y-61874400D02*
X63550800Y-58572400D01*
X108915200Y-38404800D02*
X108915200Y-28803600D01*
X69189600Y-48310800D02*
X67360800Y-46482000D01*
X90322400Y-58115200D02*
X97078800Y-51358800D01*
X91897200Y-44094400D02*
X97078800Y-44094400D01*
X86360000Y-55880000D02*
X81076800Y-55880000D01*
X91287600Y-44704000D02*
X91897200Y-44094400D01*
X70104000Y-61874400D02*
X66852800Y-61874400D01*
X91287600Y-46075600D02*
X91287600Y-44704000D01*
X74422000Y-33020000D02*
X71729600Y-30327600D01*
X69189600Y-49225200D02*
X69189600Y-48310800D01*
X63550800Y-58572400D02*
X63550800Y-56489600D01*
X108813600Y-41097200D02*
X108153200Y-40436800D01*
X107086400Y-29108400D02*
X108153200Y-28041600D01*
X107086400Y-41503600D02*
X108153200Y-40436800D01*
X91287600Y-46075600D02*
X91287600Y-50952400D01*
X108153200Y-39166800D02*
X107035600Y-38049200D01*
X72898000Y-63144400D02*
X80111600Y-63144400D01*
X97078800Y-51358800D02*
X97078800Y-44094400D01*
X108153200Y-40436800D02*
X108153200Y-39674800D01*
X91287600Y-50952400D02*
X86360000Y-55880000D01*
X71628000Y-61874400D02*
X72898000Y-63144400D01*
X108153200Y-39674800D02*
X108153200Y-39166800D01*
X67360800Y-46482000D02*
X67360800Y-40894000D01*
X85140800Y-58115200D02*
X90322400Y-58115200D01*
X108915200Y-28803600D02*
X108153200Y-28041600D01*
X108356400Y-44094400D02*
X108813600Y-43637200D01*
%TO.N,GND*%
X74879200Y-42926000D02*
X74879200Y-35113200D01*
X89255600Y-55880000D02*
X88087200Y-57048400D01*
X80518000Y-48564800D02*
X74879200Y-42926000D01*
X74879200Y-35113200D02*
X74747000Y-34981000D01*
X76200000Y-33528000D02*
X76572002Y-33528000D01*
X89255600Y-55880000D02*
X93827600Y-51308000D01*
X93827600Y-51308000D02*
X93827600Y-46075600D01*
X87731600Y-48564800D02*
X80518000Y-48564800D01*
X74747000Y-34981000D02*
X76200000Y-33528000D01*
X88087200Y-57048400D02*
X81635600Y-57048400D01*
X81635600Y-57048400D02*
X81127600Y-57556400D01*
D17*
%TO.N,BUTTON*%
X79908400Y-58775600D02*
X79908400Y-55168800D01*
X79908400Y-55168800D02*
X82626200Y-52451000D01*
X82626200Y-52451000D02*
X86410800Y-52451000D01*
%TO.N,BUTTON2*%
X67310000Y-64566800D02*
X83210400Y-64566800D01*
X62026800Y-56896000D02*
X62026800Y-59283600D01*
X86360000Y-61417200D02*
X86360000Y-59359800D01*
X62026800Y-59283600D02*
X67310000Y-64566800D01*
X83210400Y-64566800D02*
X86360000Y-61417200D01*
%TO.N,SRCLK*%
X74574400Y-44805600D02*
X73812400Y-44043600D01*
X73812400Y-40182800D02*
X70713600Y-37084000D01*
X73914000Y-47955200D02*
X74574400Y-47294800D01*
X74574400Y-47294800D02*
X74574400Y-44805600D01*
X73812400Y-44043600D02*
X73812400Y-40182800D01*
%TO.N,RCLK*%
X69850000Y-37592000D02*
X69850000Y-36220400D01*
X73609200Y-46634400D02*
X73609200Y-45313600D01*
X73609200Y-45313600D02*
X73152000Y-44856400D01*
X73152000Y-44856400D02*
X73152000Y-40894000D01*
X73253600Y-46990000D02*
X73609200Y-46634400D01*
X73152000Y-40894000D02*
X69850000Y-37592000D01*
%TO.N,SER*%
X72552000Y-45780400D02*
X72552000Y-41665600D01*
X68681600Y-37795200D02*
X68681600Y-33883600D01*
X72644000Y-45872400D02*
X72552000Y-45780400D01*
X72552000Y-41665600D02*
X68681600Y-37795200D01*
%TD*%
%TA.AperFunction,Conductor*%
%TO.N,GND*%
G36*
X110252208Y-18800657D02*
G01*
X110454561Y-18815130D01*
X110472063Y-18817647D01*
X110663797Y-18859355D01*
X110680755Y-18864334D01*
X110864609Y-18932909D01*
X110880701Y-18940259D01*
X111052904Y-19034288D01*
X111067784Y-19043849D01*
X111224867Y-19161441D01*
X111238237Y-19173027D01*
X111376972Y-19311762D01*
X111388558Y-19325132D01*
X111506146Y-19482210D01*
X111515711Y-19497095D01*
X111609740Y-19669298D01*
X111617090Y-19685390D01*
X111685662Y-19869236D01*
X111690646Y-19886212D01*
X111732351Y-20077931D01*
X111734869Y-20095442D01*
X111749342Y-20297789D01*
X111749500Y-20302213D01*
X111749500Y-67297786D01*
X111749342Y-67302210D01*
X111734869Y-67504557D01*
X111732351Y-67522068D01*
X111690646Y-67713787D01*
X111685662Y-67730763D01*
X111617090Y-67914609D01*
X111609740Y-67930701D01*
X111515711Y-68102904D01*
X111506146Y-68117789D01*
X111388558Y-68274867D01*
X111376972Y-68288237D01*
X111238237Y-68426972D01*
X111224867Y-68438558D01*
X111067789Y-68556146D01*
X111052904Y-68565711D01*
X110880701Y-68659740D01*
X110864609Y-68667090D01*
X110680763Y-68735662D01*
X110663787Y-68740646D01*
X110472068Y-68782351D01*
X110454557Y-68784869D01*
X110273733Y-68797802D01*
X110252208Y-68799342D01*
X110247786Y-68799500D01*
X24502214Y-68799500D01*
X24497791Y-68799342D01*
X24473413Y-68797598D01*
X24295442Y-68784869D01*
X24277931Y-68782351D01*
X24086212Y-68740646D01*
X24069236Y-68735662D01*
X23885390Y-68667090D01*
X23869298Y-68659740D01*
X23697095Y-68565711D01*
X23682210Y-68556146D01*
X23612924Y-68504279D01*
X23525132Y-68438558D01*
X23511762Y-68426972D01*
X23373027Y-68288237D01*
X23361441Y-68274867D01*
X23243849Y-68117784D01*
X23234288Y-68102904D01*
X23140259Y-67930701D01*
X23132909Y-67914609D01*
X23099751Y-67825710D01*
X23064334Y-67730755D01*
X23059355Y-67713797D01*
X23017647Y-67522063D01*
X23015130Y-67504556D01*
X23008175Y-67407318D01*
X23000657Y-67302208D01*
X23000500Y-67297786D01*
X23000500Y-49530001D01*
X26826318Y-49530001D01*
X26846955Y-49686760D01*
X26846956Y-49686762D01*
X26906652Y-49830882D01*
X26907464Y-49832841D01*
X27003718Y-49958282D01*
X27129159Y-50054536D01*
X27275238Y-50115044D01*
X27432000Y-50135682D01*
X27432001Y-50135681D01*
X27435513Y-50136144D01*
X27499410Y-50164410D01*
X27507009Y-50171402D01*
X32488750Y-55153142D01*
X32578458Y-55242850D01*
X32598195Y-55252906D01*
X32614781Y-55263069D01*
X32632710Y-55276096D01*
X32632712Y-55276096D01*
X32632713Y-55276097D01*
X32653774Y-55282940D01*
X32671752Y-55290386D01*
X32691494Y-55300445D01*
X32691496Y-55300446D01*
X32713385Y-55303912D01*
X32732301Y-55308453D01*
X32753367Y-55315299D01*
X32782724Y-55315299D01*
X32782748Y-55315300D01*
X32785281Y-55315300D01*
X65721145Y-55315300D01*
X65788184Y-55334985D01*
X65808826Y-55351619D01*
X67127181Y-56669974D01*
X67160666Y-56731297D01*
X67163500Y-56757655D01*
X67163500Y-58980219D01*
X67143815Y-59047258D01*
X67137876Y-59055705D01*
X67039464Y-59183957D01*
X66978956Y-59330037D01*
X66978955Y-59330039D01*
X66958318Y-59486798D01*
X66958318Y-59486801D01*
X66978955Y-59643560D01*
X66978956Y-59643562D01*
X67039464Y-59789641D01*
X67135718Y-59915082D01*
X67261159Y-60011336D01*
X67407238Y-60071844D01*
X67485619Y-60082163D01*
X67563999Y-60092482D01*
X67564000Y-60092482D01*
X67564001Y-60092482D01*
X67616254Y-60085602D01*
X67720762Y-60071844D01*
X67866841Y-60011336D01*
X67992282Y-59915082D01*
X68088536Y-59789641D01*
X68149044Y-59643562D01*
X68162802Y-59539053D01*
X68169682Y-59486801D01*
X68169682Y-59486798D01*
X68151358Y-59347616D01*
X68149044Y-59330038D01*
X68088536Y-59183959D01*
X68088535Y-59183958D01*
X68088535Y-59183957D01*
X67990124Y-59055705D01*
X67964930Y-58990536D01*
X67964500Y-58980219D01*
X67964500Y-56476969D01*
X67964499Y-56476965D01*
X67957651Y-56455889D01*
X67953112Y-56436982D01*
X67949646Y-56415096D01*
X67939586Y-56395353D01*
X67932144Y-56377385D01*
X67925297Y-56356311D01*
X67912266Y-56338376D01*
X67902103Y-56321789D01*
X67897935Y-56313609D01*
X67892050Y-56302058D01*
X67871639Y-56281647D01*
X67871619Y-56281625D01*
X66418174Y-54828181D01*
X66384689Y-54766858D01*
X66389673Y-54697166D01*
X66431545Y-54641233D01*
X66497009Y-54616816D01*
X66505855Y-54616500D01*
X70006617Y-54616500D01*
X70073656Y-54636185D01*
X70094298Y-54652819D01*
X76431751Y-60990271D01*
X76465236Y-61051594D01*
X76467009Y-61094135D01*
X76457918Y-61163195D01*
X76457918Y-61163201D01*
X76478555Y-61319960D01*
X76478556Y-61319962D01*
X76492558Y-61353767D01*
X76539064Y-61466041D01*
X76635318Y-61591482D01*
X76760759Y-61687736D01*
X76906838Y-61748244D01*
X76985219Y-61758563D01*
X77063599Y-61768882D01*
X77063600Y-61768882D01*
X77063601Y-61768882D01*
X77115853Y-61762002D01*
X77220362Y-61748244D01*
X77366441Y-61687736D01*
X77491882Y-61591482D01*
X77588136Y-61466041D01*
X77648644Y-61319962D01*
X77652629Y-61289690D01*
X77680895Y-61225794D01*
X77739220Y-61187323D01*
X77809084Y-61186491D01*
X77868308Y-61223564D01*
X77873944Y-61230390D01*
X77926145Y-61298421D01*
X77956118Y-61337482D01*
X78081559Y-61433736D01*
X78227638Y-61494244D01*
X78284257Y-61501698D01*
X78384399Y-61514882D01*
X78384400Y-61514882D01*
X78384401Y-61514882D01*
X78436653Y-61508002D01*
X78541162Y-61494244D01*
X78687241Y-61433736D01*
X78812682Y-61337482D01*
X78908936Y-61212041D01*
X78969444Y-61065962D01*
X78990082Y-60909200D01*
X78969444Y-60752438D01*
X78908936Y-60606359D01*
X78812682Y-60480918D01*
X78687241Y-60384664D01*
X78541162Y-60324156D01*
X78484977Y-60316759D01*
X78380885Y-60303055D01*
X78316989Y-60274788D01*
X78309390Y-60267797D01*
X78207161Y-60165568D01*
X78173676Y-60104245D01*
X78178660Y-60034553D01*
X78220532Y-59978620D01*
X78285996Y-59954203D01*
X78342294Y-59963325D01*
X78481638Y-60021044D01*
X78560019Y-60031363D01*
X78638399Y-60041682D01*
X78638400Y-60041682D01*
X78638401Y-60041682D01*
X78692550Y-60034553D01*
X78795162Y-60021044D01*
X78941241Y-59960536D01*
X79066682Y-59864282D01*
X79162936Y-59738841D01*
X79223444Y-59592762D01*
X79244082Y-59436000D01*
X79243024Y-59427966D01*
X79223444Y-59279239D01*
X79223444Y-59279238D01*
X79214967Y-59258774D01*
X79207498Y-59189308D01*
X79238771Y-59126828D01*
X79298860Y-59091174D01*
X79368685Y-59093667D01*
X79426078Y-59133514D01*
X79427903Y-59135835D01*
X79441862Y-59154026D01*
X79480118Y-59203882D01*
X79605559Y-59300136D01*
X79751638Y-59360644D01*
X79830019Y-59370963D01*
X79908399Y-59381282D01*
X79908400Y-59381282D01*
X79908401Y-59381282D01*
X79960654Y-59374402D01*
X80065162Y-59360644D01*
X80211241Y-59300136D01*
X80336682Y-59203882D01*
X80432936Y-59078441D01*
X80493444Y-58932362D01*
X80514082Y-58775600D01*
X80493444Y-58618838D01*
X80432936Y-58472759D01*
X80432935Y-58472758D01*
X80432935Y-58472757D01*
X80334524Y-58344505D01*
X80309330Y-58279336D01*
X80308900Y-58269019D01*
X80308900Y-56218698D01*
X80328585Y-56151659D01*
X80381389Y-56105904D01*
X80450547Y-56095960D01*
X80514103Y-56124985D01*
X80547461Y-56171246D01*
X80552262Y-56182838D01*
X80552263Y-56182840D01*
X80552264Y-56182841D01*
X80648518Y-56308282D01*
X80773959Y-56404536D01*
X80920038Y-56465044D01*
X80998419Y-56475363D01*
X81076799Y-56485682D01*
X81076800Y-56485682D01*
X81076801Y-56485682D01*
X81142997Y-56476967D01*
X81233562Y-56465044D01*
X81233818Y-56464937D01*
X81234357Y-56464830D01*
X81241413Y-56462940D01*
X81241536Y-56463402D01*
X81281268Y-56455500D01*
X86318219Y-56455500D01*
X86326317Y-56456030D01*
X86346734Y-56458718D01*
X86359999Y-56460465D01*
X86360000Y-56460465D01*
X86395785Y-56455754D01*
X86395809Y-56455751D01*
X86397715Y-56455500D01*
X86397720Y-56455500D01*
X86510236Y-56440687D01*
X86650233Y-56382698D01*
X86709527Y-56337200D01*
X86740268Y-56313612D01*
X86740268Y-56313611D01*
X86748361Y-56307402D01*
X86748364Y-56307398D01*
X86770451Y-56290451D01*
X86791138Y-56263489D01*
X86796480Y-56257398D01*
X91664998Y-51388880D01*
X91671089Y-51383538D01*
X91698051Y-51362851D01*
X91719549Y-51334834D01*
X91721210Y-51332669D01*
X91721212Y-51332668D01*
X91790299Y-51242633D01*
X91842874Y-51115704D01*
X91848287Y-51102636D01*
X91863100Y-50990120D01*
X91868066Y-50952400D01*
X91863631Y-50918712D01*
X91863100Y-50910611D01*
X91863100Y-47020919D01*
X91882785Y-46953880D01*
X91908436Y-46925065D01*
X91911455Y-46922588D01*
X92034010Y-46822010D01*
X92165285Y-46662050D01*
X92262832Y-46479554D01*
X92322900Y-46281534D01*
X92343183Y-46075600D01*
X92972918Y-46075600D01*
X92991595Y-46253300D01*
X92991596Y-46253302D01*
X93046806Y-46423224D01*
X93046809Y-46423230D01*
X93136145Y-46577965D01*
X93136149Y-46577970D01*
X93255705Y-46710752D01*
X93255707Y-46710753D01*
X93400254Y-46815773D01*
X93400259Y-46815776D01*
X93563484Y-46888449D01*
X93563489Y-46888451D01*
X93738261Y-46925600D01*
X93916939Y-46925600D01*
X94091710Y-46888451D01*
X94091715Y-46888449D01*
X94254940Y-46815776D01*
X94254945Y-46815773D01*
X94399492Y-46710753D01*
X94399494Y-46710752D01*
X94519050Y-46577970D01*
X94519054Y-46577965D01*
X94608390Y-46423230D01*
X94608393Y-46423224D01*
X94663603Y-46253302D01*
X94663604Y-46253300D01*
X94682281Y-46075600D01*
X94663604Y-45897899D01*
X94663603Y-45897897D01*
X94608393Y-45727975D01*
X94608390Y-45727969D01*
X94519054Y-45573234D01*
X94519050Y-45573229D01*
X94399494Y-45440447D01*
X94399492Y-45440446D01*
X94254945Y-45335426D01*
X94254940Y-45335423D01*
X94091715Y-45262750D01*
X94091710Y-45262748D01*
X93916939Y-45225600D01*
X93738261Y-45225600D01*
X93563489Y-45262748D01*
X93563484Y-45262750D01*
X93400259Y-45335423D01*
X93400254Y-45335426D01*
X93255707Y-45440446D01*
X93255705Y-45440447D01*
X93136149Y-45573229D01*
X93136145Y-45573234D01*
X93046809Y-45727969D01*
X93046806Y-45727975D01*
X92991596Y-45897897D01*
X92991595Y-45897899D01*
X92972918Y-46075600D01*
X92343183Y-46075600D01*
X92322900Y-45869666D01*
X92262832Y-45671646D01*
X92165285Y-45489150D01*
X92034010Y-45329190D01*
X92034009Y-45329189D01*
X91908435Y-45226133D01*
X91869101Y-45168388D01*
X91863100Y-45130280D01*
X91863100Y-44993741D01*
X91882785Y-44926702D01*
X91899414Y-44906065D01*
X92099260Y-44706219D01*
X92160584Y-44672734D01*
X92186942Y-44669900D01*
X96379300Y-44669900D01*
X96446339Y-44689585D01*
X96492094Y-44742389D01*
X96503300Y-44793900D01*
X96503300Y-51069058D01*
X96483615Y-51136097D01*
X96466981Y-51156739D01*
X90120339Y-57503381D01*
X90059016Y-57536866D01*
X90032658Y-57539700D01*
X85182581Y-57539700D01*
X85174483Y-57539169D01*
X85150613Y-57536026D01*
X85140801Y-57534735D01*
X85140800Y-57534735D01*
X85136498Y-57535301D01*
X85107219Y-57539155D01*
X85107206Y-57539157D01*
X85103081Y-57539700D01*
X85103080Y-57539700D01*
X85057176Y-57545743D01*
X84990562Y-57554513D01*
X84963228Y-57565835D01*
X84949560Y-57571497D01*
X84908557Y-57588480D01*
X84850568Y-57612500D01*
X84850566Y-57612501D01*
X84761649Y-57680730D01*
X84761624Y-57680749D01*
X84730348Y-57704750D01*
X84709661Y-57731707D01*
X84704310Y-57737808D01*
X79909539Y-62532581D01*
X79848216Y-62566066D01*
X79821858Y-62568900D01*
X73187742Y-62568900D01*
X73120703Y-62549215D01*
X73100061Y-62532581D01*
X72064489Y-61497009D01*
X72059136Y-61490906D01*
X72040056Y-61466041D01*
X72038451Y-61463949D01*
X72038449Y-61463947D01*
X72038448Y-61463946D01*
X72009963Y-61442089D01*
X72009952Y-61442080D01*
X71918232Y-61371701D01*
X71793322Y-61319962D01*
X71778236Y-61313713D01*
X71724906Y-61306691D01*
X71662098Y-61298423D01*
X71662083Y-61298421D01*
X71635196Y-61294882D01*
X71628000Y-61293935D01*
X71627999Y-61293935D01*
X71627998Y-61293935D01*
X71608965Y-61296440D01*
X71594317Y-61298369D01*
X71586219Y-61298900D01*
X70308468Y-61298900D01*
X70268736Y-61290997D01*
X70268613Y-61291460D01*
X70261557Y-61289569D01*
X70261018Y-61289462D01*
X70260762Y-61289356D01*
X70260760Y-61289355D01*
X70104001Y-61268718D01*
X70103999Y-61268718D01*
X69947239Y-61289355D01*
X69947238Y-61289356D01*
X69946981Y-61289462D01*
X69946442Y-61289569D01*
X69939387Y-61291460D01*
X69939263Y-61290997D01*
X69899532Y-61298900D01*
X67142542Y-61298900D01*
X67075503Y-61279215D01*
X67054861Y-61262581D01*
X64162618Y-58370338D01*
X64129133Y-58309015D01*
X64126299Y-58282666D01*
X64126299Y-56694069D01*
X64134203Y-56654340D01*
X64133739Y-56654216D01*
X64135639Y-56647124D01*
X64135742Y-56646608D01*
X64135844Y-56646362D01*
X64156482Y-56489600D01*
X64152646Y-56460465D01*
X64135844Y-56332839D01*
X64135844Y-56332838D01*
X64075336Y-56186759D01*
X63979082Y-56061318D01*
X63853641Y-55965064D01*
X63785164Y-55936700D01*
X63707562Y-55904556D01*
X63707560Y-55904555D01*
X63550801Y-55883918D01*
X63550799Y-55883918D01*
X63394039Y-55904555D01*
X63394037Y-55904556D01*
X63247960Y-55965063D01*
X63122518Y-56061318D01*
X63026263Y-56186760D01*
X62965756Y-56332837D01*
X62965755Y-56332839D01*
X62945118Y-56489598D01*
X62945118Y-56489601D01*
X62965755Y-56646360D01*
X62965757Y-56646365D01*
X62965864Y-56646623D01*
X62965972Y-56647168D01*
X62967860Y-56654213D01*
X62967398Y-56654336D01*
X62975299Y-56694067D01*
X62975299Y-58530615D01*
X62974768Y-58538714D01*
X62970335Y-58572398D01*
X62975629Y-58612621D01*
X62975630Y-58612628D01*
X62976448Y-58618838D01*
X62986241Y-58693229D01*
X62990113Y-58722635D01*
X62990113Y-58722636D01*
X63034717Y-58830318D01*
X63048101Y-58862633D01*
X63118480Y-58954352D01*
X63118489Y-58954363D01*
X63140346Y-58982848D01*
X63140347Y-58982849D01*
X63140349Y-58982851D01*
X63163853Y-59000886D01*
X63167306Y-59003536D01*
X63173409Y-59008889D01*
X66416320Y-62251800D01*
X66421661Y-62257890D01*
X66429179Y-62267689D01*
X66442348Y-62284851D01*
X66472529Y-62308010D01*
X66546321Y-62364631D01*
X66555101Y-62374005D01*
X66562567Y-62377097D01*
X66562567Y-62377098D01*
X66702564Y-62435087D01*
X66815080Y-62449900D01*
X66815081Y-62449900D01*
X66817094Y-62450165D01*
X66817113Y-62450166D01*
X66852800Y-62454865D01*
X66852801Y-62454865D01*
X66866065Y-62453118D01*
X66886482Y-62450430D01*
X66894581Y-62449900D01*
X69899532Y-62449900D01*
X69939263Y-62457802D01*
X69939387Y-62457340D01*
X69946442Y-62459230D01*
X69946981Y-62459337D01*
X69947238Y-62459444D01*
X70024267Y-62469585D01*
X70103999Y-62480082D01*
X70104000Y-62480082D01*
X70104001Y-62480082D01*
X70183733Y-62469585D01*
X70260762Y-62459444D01*
X70261018Y-62459337D01*
X70261557Y-62459230D01*
X70268613Y-62457340D01*
X70268736Y-62457802D01*
X70308468Y-62449900D01*
X71338258Y-62449900D01*
X71405297Y-62469585D01*
X71425939Y-62486219D01*
X72461520Y-63521800D01*
X72466861Y-63527890D01*
X72474379Y-63537689D01*
X72487548Y-63554851D01*
X72517729Y-63578010D01*
X72591521Y-63634631D01*
X72600301Y-63644005D01*
X72607767Y-63647097D01*
X72607767Y-63647098D01*
X72747764Y-63705087D01*
X72860280Y-63719900D01*
X72860281Y-63719900D01*
X72862294Y-63720165D01*
X72862313Y-63720166D01*
X72898000Y-63724865D01*
X72898001Y-63724865D01*
X72911265Y-63723118D01*
X72931682Y-63720430D01*
X72939781Y-63719900D01*
X80069819Y-63719900D01*
X80077917Y-63720430D01*
X80098334Y-63723118D01*
X80111599Y-63724865D01*
X80111600Y-63724865D01*
X80147385Y-63720154D01*
X80147409Y-63720151D01*
X80149315Y-63719900D01*
X80149320Y-63719900D01*
X80261836Y-63705087D01*
X80401833Y-63647098D01*
X80405864Y-63644005D01*
X80499958Y-63571805D01*
X80499970Y-63571794D01*
X80522049Y-63554853D01*
X80522051Y-63554851D01*
X80542738Y-63527889D01*
X80548080Y-63521798D01*
X85342860Y-58727019D01*
X85404184Y-58693534D01*
X85430542Y-58690700D01*
X85880266Y-58690700D01*
X85947305Y-58710385D01*
X85993060Y-58763189D01*
X86003004Y-58832347D01*
X85973979Y-58895903D01*
X85955753Y-58913075D01*
X85931720Y-58931516D01*
X85931719Y-58931517D01*
X85931718Y-58931518D01*
X85894349Y-58980219D01*
X85835463Y-59056960D01*
X85774956Y-59203037D01*
X85774955Y-59203039D01*
X85754318Y-59359798D01*
X85754318Y-59359801D01*
X85774955Y-59516560D01*
X85774956Y-59516562D01*
X85835464Y-59662641D01*
X85931718Y-59788082D01*
X85931720Y-59788083D01*
X85933876Y-59790893D01*
X85959070Y-59856063D01*
X85959500Y-59866380D01*
X85959500Y-61199944D01*
X85939815Y-61266983D01*
X85923181Y-61287625D01*
X83080826Y-64129981D01*
X83019503Y-64163466D01*
X82993145Y-64166300D01*
X67527254Y-64166300D01*
X67460215Y-64146615D01*
X67439573Y-64129981D01*
X62463619Y-59154026D01*
X62430134Y-59092703D01*
X62427300Y-59066345D01*
X62427300Y-57402580D01*
X62446985Y-57335541D01*
X62452924Y-57327093D01*
X62455079Y-57324283D01*
X62455082Y-57324282D01*
X62551336Y-57198841D01*
X62611844Y-57052762D01*
X62632482Y-56896000D01*
X62631436Y-56888057D01*
X62618723Y-56791492D01*
X62611844Y-56739238D01*
X62551336Y-56593159D01*
X62455082Y-56467718D01*
X62329641Y-56371464D01*
X62293058Y-56356311D01*
X62183562Y-56310956D01*
X62183560Y-56310955D01*
X62026801Y-56290318D01*
X62026799Y-56290318D01*
X61870039Y-56310955D01*
X61870037Y-56310956D01*
X61723960Y-56371463D01*
X61598518Y-56467718D01*
X61502263Y-56593160D01*
X61441756Y-56739237D01*
X61441755Y-56739239D01*
X61421118Y-56895998D01*
X61421118Y-56896001D01*
X61441755Y-57052760D01*
X61441756Y-57052762D01*
X61502264Y-57198841D01*
X61598518Y-57324282D01*
X61598520Y-57324283D01*
X61600676Y-57327093D01*
X61625870Y-57392263D01*
X61626300Y-57402580D01*
X61626300Y-59347029D01*
X61626301Y-59347039D01*
X61633146Y-59368107D01*
X61637687Y-59387018D01*
X61641154Y-59408904D01*
X61641155Y-59408907D01*
X61651212Y-59428645D01*
X61658657Y-59446618D01*
X61665504Y-59467690D01*
X61678526Y-59485614D01*
X61688690Y-59502200D01*
X61696009Y-59516562D01*
X61698750Y-59521942D01*
X61719664Y-59542856D01*
X61719693Y-59542887D01*
X65698598Y-63521790D01*
X66981950Y-64805142D01*
X67071658Y-64894850D01*
X67091395Y-64904906D01*
X67107981Y-64915069D01*
X67125910Y-64928096D01*
X67146981Y-64934942D01*
X67164958Y-64942388D01*
X67184696Y-64952446D01*
X67206578Y-64955911D01*
X67225491Y-64960452D01*
X67246567Y-64967300D01*
X67246568Y-64967300D01*
X83273831Y-64967300D01*
X83273833Y-64967300D01*
X83294901Y-64960454D01*
X83313817Y-64955912D01*
X83335704Y-64952446D01*
X83355444Y-64942386D01*
X83373411Y-64934944D01*
X83394490Y-64928096D01*
X83412426Y-64915063D01*
X83428988Y-64904914D01*
X83448742Y-64894850D01*
X83464234Y-64879357D01*
X83464241Y-64879352D01*
X86672552Y-61671041D01*
X86672557Y-61671034D01*
X86688050Y-61655542D01*
X86698114Y-61635788D01*
X86708263Y-61619226D01*
X86721296Y-61601290D01*
X86728144Y-61580211D01*
X86735586Y-61562244D01*
X86745646Y-61542504D01*
X86749112Y-61520617D01*
X86753655Y-61501698D01*
X86756077Y-61494244D01*
X86760500Y-61480633D01*
X86760500Y-61353767D01*
X86760500Y-61353766D01*
X86760500Y-59866380D01*
X86780185Y-59799341D01*
X86786124Y-59790893D01*
X86788279Y-59788083D01*
X86788282Y-59788082D01*
X86884536Y-59662641D01*
X86945044Y-59516562D01*
X86965682Y-59359800D01*
X86964036Y-59347300D01*
X86945044Y-59203039D01*
X86945044Y-59203038D01*
X86884536Y-59056959D01*
X86788282Y-58931518D01*
X86764247Y-58913075D01*
X86723045Y-58856647D01*
X86718890Y-58786901D01*
X86753103Y-58725981D01*
X86814820Y-58693229D01*
X86839734Y-58690700D01*
X90280619Y-58690700D01*
X90288717Y-58691230D01*
X90306213Y-58693534D01*
X90322399Y-58695665D01*
X90322400Y-58695665D01*
X90358185Y-58690954D01*
X90358209Y-58690951D01*
X90360115Y-58690700D01*
X90360120Y-58690700D01*
X90472636Y-58675887D01*
X90612633Y-58617898D01*
X90654850Y-58585504D01*
X90710758Y-58542605D01*
X90710770Y-58542594D01*
X90732849Y-58525653D01*
X90732851Y-58525651D01*
X90753538Y-58498689D01*
X90758880Y-58492598D01*
X97456198Y-51795280D01*
X97462289Y-51789938D01*
X97489251Y-51769251D01*
X97512409Y-51739070D01*
X97512412Y-51739068D01*
X97581499Y-51649032D01*
X97639487Y-51509035D01*
X97659266Y-51358800D01*
X97657187Y-51343011D01*
X97654831Y-51325112D01*
X97654300Y-51317011D01*
X97654300Y-44793900D01*
X97673985Y-44726861D01*
X97726789Y-44681106D01*
X97778300Y-44669900D01*
X108314619Y-44669900D01*
X108322717Y-44670430D01*
X108340213Y-44672734D01*
X108356399Y-44674865D01*
X108356400Y-44674865D01*
X108392185Y-44670154D01*
X108392209Y-44670151D01*
X108394115Y-44669900D01*
X108394120Y-44669900D01*
X108506636Y-44655087D01*
X108646633Y-44597098D01*
X108659796Y-44586998D01*
X108744758Y-44521805D01*
X108744770Y-44521794D01*
X108766849Y-44504853D01*
X108766851Y-44504851D01*
X108787538Y-44477889D01*
X108792880Y-44471798D01*
X109190998Y-44073680D01*
X109197089Y-44068338D01*
X109224051Y-44047651D01*
X109240994Y-44025570D01*
X109241005Y-44025558D01*
X109275526Y-43980567D01*
X109316298Y-43927433D01*
X109374287Y-43787436D01*
X109374286Y-43787435D01*
X109377378Y-43779972D01*
X109376958Y-43767138D01*
X109389100Y-43674920D01*
X109389100Y-43674914D01*
X109394065Y-43637200D01*
X109389630Y-43603516D01*
X109389100Y-43595419D01*
X109389100Y-41138986D01*
X109389631Y-41130885D01*
X109394066Y-41097200D01*
X109394066Y-41097199D01*
X109384745Y-41026400D01*
X109384431Y-41024012D01*
X109374287Y-40946964D01*
X109336724Y-40856280D01*
X109316299Y-40806968D01*
X109316296Y-40806964D01*
X109246260Y-40715691D01*
X109246256Y-40715686D01*
X109224049Y-40686747D01*
X109211942Y-40677457D01*
X109197090Y-40666061D01*
X109191000Y-40660720D01*
X108765018Y-40234738D01*
X108731534Y-40173416D01*
X108728700Y-40147058D01*
X108728700Y-39456541D01*
X108748385Y-39389502D01*
X108765015Y-39368864D01*
X109292598Y-38841280D01*
X109298689Y-38835938D01*
X109325651Y-38815251D01*
X109348809Y-38785070D01*
X109348812Y-38785068D01*
X109417899Y-38695032D01*
X109475887Y-38555035D01*
X109479592Y-38526897D01*
X109479671Y-38526301D01*
X109488676Y-38457892D01*
X109495666Y-38404800D01*
X109495666Y-38404798D01*
X109491231Y-38371112D01*
X109490700Y-38363011D01*
X109490700Y-28845386D01*
X109491231Y-28837285D01*
X109495666Y-28803600D01*
X109495666Y-28803599D01*
X109475887Y-28653366D01*
X109469697Y-28638423D01*
X109464876Y-28626783D01*
X109447098Y-28583862D01*
X109422038Y-28523359D01*
X109417899Y-28513368D01*
X109417897Y-28513365D01*
X109347860Y-28422091D01*
X109347856Y-28422086D01*
X109325649Y-28393147D01*
X109313542Y-28383857D01*
X109298690Y-28372461D01*
X109292600Y-28367120D01*
X108765018Y-27839538D01*
X108731534Y-27778216D01*
X108728700Y-27751858D01*
X108728700Y-27751857D01*
X108728700Y-26813363D01*
X108729228Y-26805300D01*
X108733665Y-26771600D01*
X108728966Y-26735913D01*
X108728965Y-26735894D01*
X108728700Y-26733880D01*
X108713887Y-26621364D01*
X108656674Y-26483240D01*
X108656037Y-26481547D01*
X108586738Y-26391236D01*
X108563650Y-26361148D01*
X108555843Y-26355157D01*
X108536690Y-26340461D01*
X108530600Y-26335120D01*
X107587120Y-25391640D01*
X107564616Y-25357959D01*
X107564201Y-25358199D01*
X107560537Y-25351854D01*
X107560237Y-25351404D01*
X107560136Y-25351159D01*
X107463882Y-25225718D01*
X107338441Y-25129464D01*
X107338440Y-25129463D01*
X107338438Y-25129462D01*
X107304635Y-25115461D01*
X107250231Y-25071620D01*
X107228166Y-25005326D01*
X107245445Y-24937627D01*
X107296582Y-24890016D01*
X107352087Y-24876900D01*
X107445315Y-24876900D01*
X107480213Y-24868297D01*
X107586904Y-24842001D01*
X107716028Y-24774231D01*
X107825182Y-24677530D01*
X107908021Y-24557516D01*
X107959732Y-24421164D01*
X107977310Y-24276400D01*
X107959732Y-24131636D01*
X107959731Y-24131634D01*
X107959731Y-24131632D01*
X107919472Y-24025479D01*
X107908021Y-23995284D01*
X107825182Y-23875270D01*
X107716028Y-23778569D01*
X107716026Y-23778568D01*
X107716025Y-23778567D01*
X107586905Y-23710799D01*
X107445315Y-23675900D01*
X107445314Y-23675900D01*
X107372499Y-23675900D01*
X101972499Y-23675900D01*
X78422900Y-23675900D01*
X78422400Y-23675900D01*
X78274172Y-23675900D01*
X78274170Y-23675900D01*
X78137418Y-23692505D01*
X77979878Y-23711634D01*
X77979875Y-23711634D01*
X77979872Y-23711635D01*
X77692030Y-23782581D01*
X77414840Y-23887706D01*
X77152349Y-24025473D01*
X77152340Y-24025479D01*
X76908370Y-24193878D01*
X76908364Y-24193883D01*
X76686468Y-24390466D01*
X76686466Y-24390468D01*
X76489883Y-24612364D01*
X76489878Y-24612370D01*
X76321479Y-24856340D01*
X76321473Y-24856349D01*
X76183706Y-25118840D01*
X76078581Y-25396030D01*
X76014998Y-25654001D01*
X76007634Y-25683878D01*
X75999634Y-25749761D01*
X75971900Y-25978169D01*
X75971900Y-28774630D01*
X75979508Y-28837285D01*
X76007398Y-29066982D01*
X76007635Y-29068927D01*
X76078581Y-29356769D01*
X76183706Y-29633959D01*
X76321473Y-29896450D01*
X76321479Y-29896459D01*
X76489878Y-30140429D01*
X76489883Y-30140435D01*
X76686466Y-30362331D01*
X76686468Y-30362333D01*
X76908364Y-30558916D01*
X76908370Y-30558921D01*
X77054524Y-30659803D01*
X77152347Y-30727325D01*
X77152356Y-30727330D01*
X77155544Y-30729257D01*
X77155426Y-30729451D01*
X77155431Y-30729454D01*
X77155382Y-30729524D01*
X77154589Y-30730835D01*
X77199521Y-30774341D01*
X77215472Y-30842366D01*
X77192113Y-30908215D01*
X77136862Y-30950983D01*
X77115853Y-30957132D01*
X77099265Y-30960431D01*
X77099262Y-30960432D01*
X77016401Y-31015798D01*
X76961035Y-31098660D01*
X76941594Y-31196396D01*
X76941594Y-31196397D01*
X76944119Y-31209090D01*
X76946502Y-31233284D01*
X76946502Y-31267666D01*
X76926817Y-31334705D01*
X76920878Y-31343152D01*
X76865976Y-31414701D01*
X76807370Y-31556189D01*
X76807369Y-31556191D01*
X76792400Y-31669900D01*
X76792400Y-35502900D01*
X76807368Y-35616601D01*
X76807371Y-35616613D01*
X76865973Y-35758092D01*
X76865976Y-35758097D01*
X76920878Y-35829647D01*
X76946072Y-35894816D01*
X76946502Y-35905133D01*
X76946502Y-35959514D01*
X76944119Y-35983706D01*
X76941594Y-35996399D01*
X76941594Y-35996400D01*
X76945690Y-36016991D01*
X76945691Y-36016997D01*
X76961034Y-36094136D01*
X76961035Y-36094139D01*
X76961036Y-36094140D01*
X77016401Y-36177001D01*
X77099262Y-36232366D01*
X77109013Y-36234305D01*
X77170924Y-36266689D01*
X77205499Y-36327404D01*
X77201760Y-36397174D01*
X77160895Y-36453847D01*
X77155263Y-36457973D01*
X76958370Y-36593878D01*
X76958364Y-36593883D01*
X76736468Y-36790466D01*
X76736466Y-36790468D01*
X76539883Y-37012364D01*
X76539878Y-37012370D01*
X76371479Y-37256340D01*
X76371473Y-37256349D01*
X76233706Y-37518840D01*
X76128581Y-37796030D01*
X76060996Y-38070239D01*
X76057634Y-38083878D01*
X76047612Y-38166419D01*
X76021900Y-38378169D01*
X76021900Y-41174630D01*
X76027636Y-41221868D01*
X76051880Y-41421537D01*
X76057635Y-41468927D01*
X76128581Y-41756769D01*
X76233706Y-42033959D01*
X76371473Y-42296450D01*
X76371479Y-42296459D01*
X76539878Y-42540429D01*
X76539883Y-42540435D01*
X76736466Y-42762331D01*
X76736468Y-42762333D01*
X76958364Y-42958916D01*
X76958370Y-42958921D01*
X77202340Y-43127320D01*
X77202349Y-43127326D01*
X77464840Y-43265093D01*
X77742030Y-43370218D01*
X77742032Y-43370218D01*
X77742036Y-43370220D01*
X78029878Y-43441166D01*
X78276974Y-43471169D01*
X78324170Y-43476900D01*
X91394436Y-43476900D01*
X91461475Y-43496585D01*
X91507230Y-43549389D01*
X91517174Y-43618547D01*
X91490623Y-43676684D01*
X91491694Y-43677506D01*
X91466061Y-43710907D01*
X91460710Y-43717008D01*
X90910208Y-44267510D01*
X90904107Y-44272861D01*
X90877150Y-44293548D01*
X90853149Y-44324824D01*
X90853133Y-44324845D01*
X90807259Y-44384631D01*
X90784900Y-44413770D01*
X90730671Y-44544691D01*
X90726913Y-44553764D01*
X90713999Y-44651860D01*
X90711557Y-44670406D01*
X90711555Y-44670419D01*
X90707135Y-44704000D01*
X90711569Y-44737678D01*
X90712100Y-44745780D01*
X90712100Y-45130280D01*
X90692415Y-45197319D01*
X90666765Y-45226133D01*
X90541190Y-45329189D01*
X90417841Y-45479492D01*
X90409915Y-45489150D01*
X90389252Y-45527808D01*
X90312369Y-45671643D01*
X90252299Y-45869667D01*
X90232017Y-46075599D01*
X90252299Y-46281532D01*
X90252300Y-46281534D01*
X90312368Y-46479554D01*
X90409915Y-46662050D01*
X90413095Y-46665925D01*
X90541189Y-46822010D01*
X90609595Y-46878148D01*
X90663745Y-46922588D01*
X90666764Y-46925065D01*
X90706099Y-46982811D01*
X90712100Y-47020919D01*
X90712100Y-50662657D01*
X90692415Y-50729696D01*
X90675781Y-50750338D01*
X86157939Y-55268181D01*
X86096616Y-55301666D01*
X86070258Y-55304500D01*
X81281268Y-55304500D01*
X81241536Y-55296597D01*
X81241413Y-55297060D01*
X81234357Y-55295169D01*
X81233818Y-55295062D01*
X81233562Y-55294956D01*
X81233560Y-55294955D01*
X81076801Y-55274318D01*
X81076799Y-55274318D01*
X80920039Y-55294955D01*
X80920037Y-55294956D01*
X80773960Y-55355463D01*
X80764397Y-55362801D01*
X80648518Y-55451718D01*
X80556900Y-55571118D01*
X80552262Y-55577162D01*
X80547460Y-55588755D01*
X80503619Y-55643158D01*
X80437324Y-55665222D01*
X80369625Y-55647942D01*
X80322015Y-55596804D01*
X80308900Y-55541301D01*
X80308900Y-55386054D01*
X80328585Y-55319015D01*
X80345214Y-55298378D01*
X82755773Y-52887819D01*
X82817097Y-52854334D01*
X82843455Y-52851500D01*
X85904220Y-52851500D01*
X85971259Y-52871185D01*
X85979707Y-52877124D01*
X85982516Y-52879279D01*
X85982518Y-52879282D01*
X86107959Y-52975536D01*
X86254038Y-53036044D01*
X86332419Y-53046363D01*
X86410799Y-53056682D01*
X86410800Y-53056682D01*
X86410801Y-53056682D01*
X86463053Y-53049802D01*
X86567562Y-53036044D01*
X86713641Y-52975536D01*
X86839082Y-52879282D01*
X86935336Y-52753841D01*
X86995844Y-52607762D01*
X87016482Y-52451000D01*
X86995844Y-52294238D01*
X86935336Y-52148159D01*
X86839082Y-52022718D01*
X86713641Y-51926464D01*
X86567562Y-51865956D01*
X86567560Y-51865955D01*
X86410801Y-51845318D01*
X86410799Y-51845318D01*
X86254039Y-51865955D01*
X86254037Y-51865956D01*
X86107960Y-51926463D01*
X86107958Y-51926464D01*
X86107959Y-51926464D01*
X85982518Y-52022718D01*
X85982516Y-52022720D01*
X85979707Y-52024876D01*
X85914537Y-52050070D01*
X85904220Y-52050500D01*
X82689633Y-52050500D01*
X82562767Y-52050500D01*
X82562764Y-52050500D01*
X82562762Y-52050501D01*
X82541690Y-52057347D01*
X82522782Y-52061886D01*
X82500898Y-52065353D01*
X82500894Y-52065354D01*
X82481151Y-52075413D01*
X82463187Y-52082854D01*
X82442111Y-52089703D01*
X82424185Y-52102727D01*
X82407600Y-52112890D01*
X82387859Y-52122948D01*
X82387859Y-52122949D01*
X82365294Y-52145513D01*
X79602913Y-54907894D01*
X79580349Y-54930459D01*
X79580348Y-54930460D01*
X79570291Y-54950197D01*
X79560131Y-54966777D01*
X79547106Y-54984705D01*
X79547103Y-54984710D01*
X79540254Y-55005788D01*
X79532813Y-55023752D01*
X79522754Y-55043496D01*
X79522752Y-55043499D01*
X79519286Y-55065382D01*
X79514747Y-55084290D01*
X79507899Y-55105366D01*
X79507899Y-55105367D01*
X79507897Y-55188616D01*
X79507900Y-55188644D01*
X79507900Y-55406548D01*
X79488215Y-55473587D01*
X79435411Y-55519342D01*
X79366253Y-55529286D01*
X79308414Y-55504924D01*
X79246042Y-55457064D01*
X79099962Y-55396556D01*
X79099960Y-55396555D01*
X78943201Y-55375918D01*
X78943199Y-55375918D01*
X78786439Y-55396555D01*
X78786437Y-55396556D01*
X78640360Y-55457063D01*
X78640358Y-55457064D01*
X78640359Y-55457064D01*
X78514918Y-55553318D01*
X78514917Y-55553319D01*
X78514916Y-55553320D01*
X78462453Y-55621691D01*
X78406025Y-55662893D01*
X78336279Y-55667048D01*
X78275359Y-55632835D01*
X78242607Y-55571118D01*
X78243894Y-55527898D01*
X78241782Y-55527620D01*
X78263481Y-55362801D01*
X78263481Y-55362798D01*
X78242843Y-55206039D01*
X78242843Y-55206038D01*
X78182335Y-55059959D01*
X78086081Y-54934518D01*
X77960640Y-54838264D01*
X77814561Y-54777756D01*
X77814559Y-54777755D01*
X77657800Y-54757118D01*
X77657798Y-54757118D01*
X77501038Y-54777755D01*
X77501036Y-54777756D01*
X77354959Y-54838263D01*
X77354957Y-54838264D01*
X77354958Y-54838264D01*
X77229517Y-54934518D01*
X77229515Y-54934520D01*
X77226706Y-54936676D01*
X77161536Y-54961870D01*
X77151219Y-54962300D01*
X75900055Y-54962300D01*
X75833016Y-54942615D01*
X75812374Y-54925981D01*
X72395287Y-51508893D01*
X72395256Y-51508864D01*
X72374342Y-51487950D01*
X72374341Y-51487949D01*
X72354600Y-51477890D01*
X72338014Y-51467726D01*
X72320090Y-51454704D01*
X72320091Y-51454704D01*
X72299018Y-51447857D01*
X72281045Y-51440412D01*
X72261307Y-51430355D01*
X72261304Y-51430354D01*
X72239418Y-51426887D01*
X72220507Y-51422346D01*
X72199439Y-51415501D01*
X72199434Y-51415500D01*
X72199433Y-51415500D01*
X72199429Y-51415500D01*
X69579334Y-51415500D01*
X69512295Y-51395815D01*
X69466540Y-51343011D01*
X69456596Y-51273853D01*
X69464773Y-51244048D01*
X69509487Y-51136097D01*
X69520644Y-51109162D01*
X69541282Y-50952400D01*
X69535780Y-50910611D01*
X69520644Y-50795639D01*
X69520644Y-50795638D01*
X69460136Y-50649559D01*
X69363882Y-50524118D01*
X69238441Y-50427864D01*
X69092362Y-50367356D01*
X69092360Y-50367355D01*
X68935601Y-50346718D01*
X68935599Y-50346718D01*
X68778839Y-50367355D01*
X68778837Y-50367356D01*
X68632760Y-50427863D01*
X68632758Y-50427864D01*
X68632759Y-50427864D01*
X68507318Y-50524118D01*
X68494065Y-50541388D01*
X68437640Y-50582589D01*
X68395692Y-50589900D01*
X68030878Y-50589900D01*
X67963839Y-50570215D01*
X67918084Y-50517411D01*
X67908140Y-50448253D01*
X67916317Y-50418448D01*
X67937479Y-50367356D01*
X67945844Y-50347162D01*
X67966482Y-50190400D01*
X67963060Y-50164410D01*
X67947261Y-50044402D01*
X67945844Y-50033638D01*
X67885336Y-49887559D01*
X67789082Y-49762118D01*
X67663641Y-49665864D01*
X67642241Y-49657000D01*
X67517562Y-49605356D01*
X67517560Y-49605355D01*
X67360801Y-49584718D01*
X67360799Y-49584718D01*
X67204039Y-49605355D01*
X67204037Y-49605356D01*
X67057960Y-49665863D01*
X67057958Y-49665864D01*
X67057959Y-49665864D01*
X66932518Y-49762118D01*
X66932516Y-49762120D01*
X66929707Y-49764276D01*
X66864537Y-49789470D01*
X66854220Y-49789900D01*
X54878055Y-49789900D01*
X54811016Y-49770215D01*
X54790374Y-49753581D01*
X54607531Y-49570738D01*
X54574046Y-49509415D01*
X54572273Y-49466871D01*
X54580682Y-49403000D01*
X54580682Y-49402998D01*
X54570483Y-49325530D01*
X54560044Y-49246238D01*
X54559938Y-49245981D01*
X54559829Y-49245434D01*
X54557940Y-49238383D01*
X54558402Y-49238259D01*
X54550499Y-49198528D01*
X54550499Y-45797470D01*
X54558403Y-45757740D01*
X54557939Y-45757616D01*
X54559839Y-45750524D01*
X54559942Y-45750008D01*
X54560044Y-45749762D01*
X54580682Y-45593000D01*
X54560044Y-45436238D01*
X54559938Y-45435981D01*
X54559829Y-45435434D01*
X54557940Y-45428383D01*
X54558402Y-45428259D01*
X54550499Y-45388528D01*
X54550499Y-42114470D01*
X54558403Y-42074740D01*
X54557939Y-42074616D01*
X54559839Y-42067524D01*
X54559942Y-42067008D01*
X54560044Y-42066762D01*
X54580682Y-41910000D01*
X54579696Y-41902513D01*
X54571605Y-41841051D01*
X54560044Y-41753238D01*
X54559938Y-41752981D01*
X54559829Y-41752434D01*
X54557940Y-41745383D01*
X54558402Y-41745259D01*
X54550499Y-41705528D01*
X54550499Y-40894000D01*
X66755118Y-40894000D01*
X66775755Y-41050759D01*
X66775755Y-41050760D01*
X66775756Y-41050762D01*
X66775861Y-41051016D01*
X66775967Y-41051548D01*
X66777860Y-41058613D01*
X66777397Y-41058737D01*
X66785299Y-41098465D01*
X66785299Y-46440219D01*
X66784768Y-46448318D01*
X66780335Y-46481999D01*
X66784821Y-46516083D01*
X66784823Y-46516098D01*
X66785300Y-46519720D01*
X66798466Y-46619729D01*
X66800113Y-46632235D01*
X66800113Y-46632236D01*
X66831041Y-46706902D01*
X66858102Y-46772234D01*
X66928480Y-46863952D01*
X66928489Y-46863963D01*
X66950346Y-46892448D01*
X66950347Y-46892449D01*
X66950349Y-46892451D01*
X66954074Y-46895309D01*
X66977306Y-46913136D01*
X66983409Y-46918489D01*
X68577781Y-48512861D01*
X68611266Y-48574184D01*
X68614100Y-48600542D01*
X68614100Y-49020730D01*
X68606198Y-49060459D01*
X68606660Y-49060583D01*
X68604771Y-49067631D01*
X68604663Y-49068178D01*
X68604556Y-49068435D01*
X68583918Y-49225198D01*
X68583918Y-49225201D01*
X68604555Y-49381960D01*
X68604556Y-49381962D01*
X68653547Y-49500238D01*
X68665064Y-49528041D01*
X68761318Y-49653482D01*
X68886759Y-49749736D01*
X69032838Y-49810244D01*
X69111219Y-49820563D01*
X69189599Y-49830882D01*
X69189600Y-49830882D01*
X69189601Y-49830882D01*
X69241853Y-49824002D01*
X69346362Y-49810244D01*
X69492441Y-49749736D01*
X69617882Y-49653482D01*
X69714136Y-49528041D01*
X69774644Y-49381962D01*
X69792512Y-49246238D01*
X69795282Y-49225201D01*
X69795282Y-49225198D01*
X69789023Y-49177663D01*
X69774644Y-49068438D01*
X69774643Y-49068435D01*
X69774537Y-49068178D01*
X69774428Y-49067631D01*
X69772540Y-49060583D01*
X69773001Y-49060459D01*
X69765100Y-49020730D01*
X69765100Y-48352586D01*
X69765631Y-48344485D01*
X69770066Y-48310799D01*
X69763076Y-48257708D01*
X69763076Y-48257707D01*
X69750287Y-48160564D01*
X69730155Y-48111962D01*
X69692299Y-48020567D01*
X69692298Y-48020566D01*
X69692298Y-48020565D01*
X69620741Y-47927312D01*
X69600049Y-47900347D01*
X69587942Y-47891057D01*
X69573090Y-47879661D01*
X69567000Y-47874320D01*
X67972619Y-46279939D01*
X67939134Y-46218616D01*
X67936300Y-46192258D01*
X67936300Y-41098467D01*
X67944203Y-41058737D01*
X67943740Y-41058613D01*
X67945633Y-41051545D01*
X67945739Y-41051015D01*
X67945844Y-41050762D01*
X67966482Y-40894000D01*
X67945844Y-40737238D01*
X67945843Y-40737235D01*
X67945737Y-40736978D01*
X67945628Y-40736431D01*
X67943740Y-40729383D01*
X67944201Y-40729259D01*
X67936300Y-40689530D01*
X67936300Y-34264028D01*
X67955985Y-34196989D01*
X68008789Y-34151234D01*
X68077947Y-34141290D01*
X68141503Y-34170315D01*
X68158676Y-34188542D01*
X68236527Y-34290000D01*
X68255476Y-34314694D01*
X68280670Y-34379863D01*
X68281100Y-34390180D01*
X68281100Y-37858629D01*
X68281101Y-37858639D01*
X68287946Y-37879707D01*
X68292487Y-37898618D01*
X68295954Y-37920504D01*
X68295955Y-37920507D01*
X68306012Y-37940245D01*
X68313457Y-37958218D01*
X68320304Y-37979290D01*
X68333326Y-37997214D01*
X68343490Y-38013800D01*
X68353550Y-38033542D01*
X68374464Y-38054456D01*
X68374493Y-38054487D01*
X72115181Y-41795173D01*
X72148666Y-41856496D01*
X72151500Y-41882854D01*
X72151500Y-45485716D01*
X72131815Y-45552755D01*
X72125877Y-45561201D01*
X72119464Y-45569558D01*
X72058956Y-45715637D01*
X72058955Y-45715639D01*
X72038318Y-45872398D01*
X72038318Y-45872401D01*
X72058955Y-46029160D01*
X72058956Y-46029162D01*
X72119464Y-46175241D01*
X72215718Y-46300682D01*
X72341159Y-46396936D01*
X72487238Y-46457444D01*
X72548156Y-46465464D01*
X72652058Y-46479143D01*
X72651671Y-46482082D01*
X72705086Y-46497767D01*
X72750841Y-46550571D01*
X72760785Y-46619729D01*
X72736423Y-46677568D01*
X72729064Y-46687157D01*
X72668556Y-46833237D01*
X72668555Y-46833239D01*
X72647918Y-46989998D01*
X72647918Y-46990001D01*
X72668555Y-47146760D01*
X72668556Y-47146762D01*
X72703600Y-47231367D01*
X72729064Y-47292841D01*
X72825318Y-47418282D01*
X72950759Y-47514536D01*
X73096838Y-47575044D01*
X73244485Y-47594482D01*
X73308379Y-47622747D01*
X73346851Y-47681071D01*
X73347683Y-47750936D01*
X73342859Y-47764872D01*
X73328957Y-47798434D01*
X73328955Y-47798439D01*
X73308318Y-47955198D01*
X73308318Y-47955201D01*
X73328955Y-48111960D01*
X73328956Y-48111962D01*
X73389325Y-48257707D01*
X73389464Y-48258041D01*
X73485718Y-48383482D01*
X73611159Y-48479736D01*
X73757238Y-48540244D01*
X73825114Y-48549180D01*
X73913999Y-48560882D01*
X73914000Y-48560882D01*
X73914001Y-48560882D01*
X73966253Y-48554002D01*
X74070762Y-48540244D01*
X74216841Y-48479736D01*
X74342282Y-48383482D01*
X74438536Y-48258041D01*
X74499044Y-48111962D01*
X74519682Y-47955200D01*
X74519681Y-47955197D01*
X74520144Y-47951685D01*
X74548410Y-47887789D01*
X74555377Y-47880214D01*
X74879884Y-47555709D01*
X74879885Y-47555706D01*
X74886952Y-47548640D01*
X74886955Y-47548636D01*
X74902450Y-47533142D01*
X74912509Y-47513398D01*
X74922669Y-47496818D01*
X74935696Y-47478889D01*
X74942542Y-47457817D01*
X74949988Y-47439843D01*
X74960045Y-47420105D01*
X74960046Y-47420104D01*
X74963512Y-47398216D01*
X74968051Y-47379310D01*
X74974900Y-47358233D01*
X74974900Y-47231367D01*
X74974900Y-47231366D01*
X74974900Y-46945352D01*
X82617100Y-46945352D01*
X82628731Y-47003829D01*
X82628732Y-47003830D01*
X82673047Y-47070152D01*
X82739369Y-47114467D01*
X82739370Y-47114468D01*
X82797847Y-47126099D01*
X82797850Y-47126100D01*
X82797852Y-47126100D01*
X84537350Y-47126100D01*
X84537351Y-47126099D01*
X84552168Y-47123152D01*
X84595829Y-47114468D01*
X84595829Y-47114467D01*
X84595831Y-47114467D01*
X84662152Y-47070152D01*
X84706467Y-47003831D01*
X84706467Y-47003829D01*
X84706468Y-47003829D01*
X84718099Y-46945352D01*
X84718100Y-46945350D01*
X84718100Y-46075600D01*
X85152017Y-46075600D01*
X85172299Y-46281532D01*
X85172300Y-46281534D01*
X85232368Y-46479554D01*
X85329915Y-46662050D01*
X85333095Y-46665925D01*
X85461189Y-46822010D01*
X85542149Y-46888451D01*
X85621150Y-46953285D01*
X85803646Y-47050832D01*
X86001666Y-47110900D01*
X86001665Y-47110900D01*
X86021948Y-47112897D01*
X86207600Y-47131183D01*
X86413534Y-47110900D01*
X86611554Y-47050832D01*
X86794050Y-46953285D01*
X86954010Y-46822010D01*
X87085285Y-46662050D01*
X87182832Y-46479554D01*
X87242900Y-46281534D01*
X87263183Y-46075600D01*
X87692017Y-46075600D01*
X87712299Y-46281532D01*
X87712300Y-46281534D01*
X87772368Y-46479554D01*
X87869915Y-46662050D01*
X87873095Y-46665925D01*
X88001189Y-46822010D01*
X88082149Y-46888451D01*
X88161150Y-46953285D01*
X88343646Y-47050832D01*
X88541666Y-47110900D01*
X88541665Y-47110900D01*
X88561947Y-47112897D01*
X88747600Y-47131183D01*
X88953534Y-47110900D01*
X89151554Y-47050832D01*
X89334050Y-46953285D01*
X89494010Y-46822010D01*
X89625285Y-46662050D01*
X89722832Y-46479554D01*
X89782900Y-46281534D01*
X89803183Y-46075600D01*
X89782900Y-45869666D01*
X89722832Y-45671646D01*
X89625285Y-45489150D01*
X89562952Y-45413196D01*
X89494010Y-45329189D01*
X89343721Y-45205852D01*
X89334050Y-45197915D01*
X89151554Y-45100368D01*
X88953534Y-45040300D01*
X88953532Y-45040299D01*
X88953534Y-45040299D01*
X88747600Y-45020017D01*
X88541667Y-45040299D01*
X88343643Y-45100369D01*
X88287685Y-45130280D01*
X88161150Y-45197915D01*
X88161148Y-45197916D01*
X88161147Y-45197917D01*
X88001189Y-45329189D01*
X87877841Y-45479492D01*
X87869915Y-45489150D01*
X87849252Y-45527808D01*
X87772369Y-45671643D01*
X87712299Y-45869667D01*
X87692017Y-46075600D01*
X87263183Y-46075600D01*
X87242900Y-45869666D01*
X87182832Y-45671646D01*
X87085285Y-45489150D01*
X87022952Y-45413196D01*
X86954010Y-45329189D01*
X86803721Y-45205852D01*
X86794050Y-45197915D01*
X86611554Y-45100368D01*
X86413534Y-45040300D01*
X86413532Y-45040299D01*
X86413534Y-45040299D01*
X86207600Y-45020017D01*
X86001667Y-45040299D01*
X85803643Y-45100369D01*
X85747685Y-45130280D01*
X85621150Y-45197915D01*
X85621148Y-45197916D01*
X85621147Y-45197917D01*
X85461189Y-45329189D01*
X85337841Y-45479492D01*
X85329915Y-45489150D01*
X85309252Y-45527808D01*
X85232369Y-45671643D01*
X85172299Y-45869667D01*
X85152017Y-46075600D01*
X84718100Y-46075600D01*
X84718100Y-45205849D01*
X84718099Y-45205847D01*
X84706468Y-45147370D01*
X84706467Y-45147369D01*
X84662152Y-45081047D01*
X84595830Y-45036732D01*
X84595829Y-45036731D01*
X84537352Y-45025100D01*
X84537348Y-45025100D01*
X82797852Y-45025100D01*
X82797847Y-45025100D01*
X82739370Y-45036731D01*
X82739369Y-45036732D01*
X82673047Y-45081047D01*
X82628732Y-45147369D01*
X82628731Y-45147370D01*
X82617100Y-45205847D01*
X82617100Y-46945352D01*
X74974900Y-46945352D01*
X74974900Y-44774081D01*
X74974900Y-44742167D01*
X74968053Y-44721097D01*
X74963511Y-44702177D01*
X74961663Y-44690507D01*
X74960046Y-44680296D01*
X74949984Y-44660549D01*
X74942540Y-44642576D01*
X74935695Y-44621509D01*
X74922674Y-44603587D01*
X74912508Y-44586998D01*
X74902450Y-44567258D01*
X74881798Y-44546606D01*
X74881780Y-44546586D01*
X74249219Y-43914025D01*
X74215734Y-43852702D01*
X74212900Y-43826344D01*
X74212900Y-40119368D01*
X74212900Y-40119367D01*
X74206052Y-40098291D01*
X74201511Y-40079378D01*
X74198046Y-40057496D01*
X74187988Y-40037758D01*
X74180540Y-40019776D01*
X74173696Y-39998710D01*
X74160671Y-39980782D01*
X74150506Y-39964194D01*
X74140450Y-39944458D01*
X74119798Y-39923806D01*
X74119780Y-39923786D01*
X71355002Y-37159009D01*
X71321517Y-37097686D01*
X71319744Y-37087513D01*
X71316792Y-37065093D01*
X71298644Y-36927238D01*
X71238136Y-36781159D01*
X71141882Y-36655718D01*
X71016441Y-36559464D01*
X71015557Y-36559098D01*
X70870362Y-36498956D01*
X70870360Y-36498955D01*
X70713601Y-36478318D01*
X70713599Y-36478318D01*
X70576795Y-36496328D01*
X70507760Y-36485562D01*
X70455504Y-36439182D01*
X70436619Y-36371913D01*
X70437670Y-36357213D01*
X70455682Y-36220400D01*
X70454487Y-36211326D01*
X70439060Y-36094140D01*
X70435044Y-36063638D01*
X70374536Y-35917559D01*
X70278282Y-35792118D01*
X70152841Y-35695864D01*
X70150767Y-35695005D01*
X70006762Y-35635356D01*
X70006760Y-35635355D01*
X69850001Y-35614718D01*
X69849999Y-35614718D01*
X69693239Y-35635355D01*
X69693237Y-35635356D01*
X69547160Y-35695863D01*
X69529327Y-35709547D01*
X69421718Y-35792118D01*
X69342916Y-35894816D01*
X69325462Y-35917562D01*
X69320660Y-35929155D01*
X69276819Y-35983558D01*
X69210524Y-36005622D01*
X69142825Y-35988342D01*
X69095215Y-35937204D01*
X69082100Y-35881701D01*
X69082100Y-34390180D01*
X69101785Y-34323141D01*
X69107724Y-34314693D01*
X69109879Y-34311883D01*
X69109882Y-34311882D01*
X69206136Y-34186441D01*
X69266644Y-34040362D01*
X69287282Y-33883600D01*
X69266644Y-33726838D01*
X69206136Y-33580759D01*
X69109882Y-33455318D01*
X68984441Y-33359064D01*
X68896375Y-33322586D01*
X68838362Y-33298556D01*
X68838360Y-33298555D01*
X68681601Y-33277918D01*
X68681599Y-33277918D01*
X68524839Y-33298555D01*
X68524837Y-33298556D01*
X68378760Y-33359063D01*
X68378758Y-33359064D01*
X68378759Y-33359064D01*
X68253318Y-33455318D01*
X68253317Y-33455319D01*
X68253316Y-33455320D01*
X68158675Y-33578658D01*
X68102247Y-33619860D01*
X68032501Y-33624015D01*
X67971581Y-33589802D01*
X67938829Y-33528085D01*
X67936300Y-33503171D01*
X67936300Y-31027100D01*
X67955985Y-30960061D01*
X68008789Y-30914306D01*
X68060300Y-30903100D01*
X71439858Y-30903100D01*
X71506897Y-30922785D01*
X71527539Y-30939419D01*
X73870478Y-33282358D01*
X73892983Y-33316038D01*
X73893398Y-33315799D01*
X73897054Y-33322132D01*
X73897358Y-33322586D01*
X73897462Y-33322838D01*
X73897463Y-33322839D01*
X73897464Y-33322841D01*
X73993718Y-33448282D01*
X74119159Y-33544536D01*
X74265238Y-33605044D01*
X74343619Y-33615363D01*
X74421999Y-33625682D01*
X74422000Y-33625682D01*
X74422001Y-33625682D01*
X74474254Y-33618802D01*
X74578762Y-33605044D01*
X74724841Y-33544536D01*
X74850282Y-33448282D01*
X74946536Y-33322841D01*
X75007044Y-33176762D01*
X75027682Y-33020000D01*
X75007044Y-32863238D01*
X74946536Y-32717159D01*
X74850282Y-32591718D01*
X74850280Y-32591717D01*
X74850280Y-32591716D01*
X74724841Y-32495464D01*
X74724838Y-32495462D01*
X74724586Y-32495358D01*
X74724132Y-32495054D01*
X74717799Y-32491398D01*
X74718038Y-32490983D01*
X74684358Y-32468478D01*
X72166089Y-29950209D01*
X72160736Y-29944106D01*
X72158086Y-29940653D01*
X72140051Y-29917149D01*
X72140049Y-29917147D01*
X72140048Y-29917146D01*
X72111563Y-29895289D01*
X72111552Y-29895280D01*
X72019834Y-29824902D01*
X71924153Y-29785270D01*
X71879836Y-29766913D01*
X71763698Y-29751623D01*
X71763683Y-29751621D01*
X71736796Y-29748082D01*
X71729600Y-29747135D01*
X71729599Y-29747135D01*
X71729598Y-29747135D01*
X71710565Y-29749640D01*
X71695917Y-29751569D01*
X71687819Y-29752100D01*
X67402586Y-29752100D01*
X67394488Y-29751569D01*
X67360800Y-29747134D01*
X67323080Y-29752100D01*
X67308268Y-29754050D01*
X67210565Y-29766912D01*
X67210563Y-29766913D01*
X67070570Y-29824900D01*
X67070567Y-29824901D01*
X67070567Y-29824902D01*
X66950349Y-29917149D01*
X66870792Y-30020830D01*
X66858100Y-30037370D01*
X66800113Y-30177363D01*
X66800112Y-30177365D01*
X66780333Y-30327599D01*
X66780334Y-30327600D01*
X66784769Y-30361285D01*
X66785300Y-30369386D01*
X66785300Y-40689530D01*
X66777398Y-40729259D01*
X66777860Y-40729383D01*
X66775971Y-40736431D01*
X66775863Y-40736978D01*
X66775756Y-40737235D01*
X66755118Y-40893998D01*
X66755118Y-40894000D01*
X54550499Y-40894000D01*
X54550499Y-38304470D01*
X54558403Y-38264740D01*
X54557939Y-38264616D01*
X54559839Y-38257524D01*
X54559942Y-38257008D01*
X54560044Y-38256762D01*
X54580682Y-38100000D01*
X54560044Y-37943238D01*
X54559938Y-37942981D01*
X54559829Y-37942434D01*
X54557940Y-37935383D01*
X54558402Y-37935259D01*
X54550499Y-37895528D01*
X54550499Y-34494470D01*
X54558403Y-34454740D01*
X54557939Y-34454616D01*
X54559839Y-34447524D01*
X54559942Y-34447008D01*
X54560044Y-34446762D01*
X54580682Y-34290000D01*
X54576763Y-34260235D01*
X54560044Y-34133241D01*
X54560044Y-34133238D01*
X54559941Y-34132989D01*
X54559834Y-34132454D01*
X54557940Y-34125383D01*
X54558403Y-34125258D01*
X54550499Y-34085533D01*
X54550499Y-30430464D01*
X54558404Y-30390740D01*
X54557939Y-30390616D01*
X54559845Y-30383501D01*
X54559945Y-30383000D01*
X54560044Y-30382762D01*
X54580682Y-30226000D01*
X54560044Y-30069238D01*
X54559938Y-30068981D01*
X54559829Y-30068434D01*
X54557940Y-30061383D01*
X54558402Y-30061259D01*
X54550499Y-30021528D01*
X54550499Y-26747470D01*
X54558403Y-26707740D01*
X54557939Y-26707616D01*
X54559839Y-26700524D01*
X54559942Y-26700008D01*
X54560044Y-26699762D01*
X54580682Y-26543000D01*
X54560044Y-26386238D01*
X54559938Y-26385981D01*
X54559829Y-26385434D01*
X54557940Y-26378383D01*
X54558402Y-26378259D01*
X54550499Y-26338528D01*
X54550499Y-22937470D01*
X54558403Y-22897740D01*
X54557939Y-22897616D01*
X54559839Y-22890524D01*
X54559942Y-22890008D01*
X54560044Y-22889762D01*
X54580682Y-22733000D01*
X54560044Y-22576238D01*
X54499536Y-22430159D01*
X54403282Y-22304718D01*
X54277841Y-22208464D01*
X54131762Y-22147956D01*
X54131760Y-22147955D01*
X53975001Y-22127318D01*
X53974999Y-22127318D01*
X53818239Y-22147955D01*
X53818237Y-22147956D01*
X53672160Y-22208463D01*
X53546718Y-22304718D01*
X53450463Y-22430160D01*
X53389956Y-22576237D01*
X53389955Y-22576239D01*
X53369318Y-22732998D01*
X53369318Y-22733000D01*
X53389955Y-22889759D01*
X53389955Y-22889760D01*
X53389956Y-22889762D01*
X53390061Y-22890016D01*
X53390167Y-22890548D01*
X53392060Y-22897613D01*
X53391597Y-22897737D01*
X53399499Y-22937465D01*
X53399498Y-26338533D01*
X53391597Y-26378266D01*
X53392058Y-26378390D01*
X53390177Y-26385409D01*
X53390066Y-26385969D01*
X53389956Y-26386233D01*
X53389955Y-26386237D01*
X53369318Y-26542998D01*
X53369318Y-26543000D01*
X53389955Y-26699759D01*
X53389955Y-26699760D01*
X53389956Y-26699762D01*
X53390061Y-26700016D01*
X53390167Y-26700548D01*
X53392060Y-26707613D01*
X53391597Y-26707737D01*
X53399499Y-26747465D01*
X53399499Y-30021533D01*
X53391596Y-30061266D01*
X53392058Y-30061390D01*
X53390171Y-30068432D01*
X53390062Y-30068981D01*
X53389955Y-30069238D01*
X53369318Y-30225998D01*
X53369318Y-30226000D01*
X53389955Y-30382759D01*
X53389955Y-30382760D01*
X53389956Y-30382762D01*
X53390061Y-30383016D01*
X53390167Y-30383548D01*
X53392060Y-30390613D01*
X53391597Y-30390737D01*
X53399499Y-30430465D01*
X53399499Y-34085533D01*
X53391596Y-34125266D01*
X53392058Y-34125390D01*
X53390171Y-34132432D01*
X53390062Y-34132981D01*
X53389955Y-34133238D01*
X53369318Y-34289998D01*
X53369318Y-34290000D01*
X53389955Y-34446759D01*
X53389955Y-34446760D01*
X53389956Y-34446762D01*
X53390061Y-34447016D01*
X53390167Y-34447548D01*
X53392060Y-34454613D01*
X53391597Y-34454737D01*
X53399499Y-34494465D01*
X53399498Y-37895533D01*
X53391597Y-37935266D01*
X53392058Y-37935390D01*
X53390177Y-37942409D01*
X53390066Y-37942969D01*
X53389956Y-37943233D01*
X53389955Y-37943237D01*
X53369318Y-38099998D01*
X53369318Y-38100000D01*
X53389955Y-38256759D01*
X53389955Y-38256760D01*
X53389956Y-38256762D01*
X53390061Y-38257016D01*
X53390167Y-38257548D01*
X53392060Y-38264613D01*
X53391597Y-38264737D01*
X53399499Y-38304465D01*
X53399498Y-41705533D01*
X53391597Y-41745266D01*
X53392058Y-41745390D01*
X53390177Y-41752409D01*
X53390066Y-41752969D01*
X53389956Y-41753233D01*
X53389955Y-41753237D01*
X53369318Y-41909998D01*
X53369318Y-41910000D01*
X53389955Y-42066759D01*
X53389955Y-42066760D01*
X53389956Y-42066762D01*
X53390061Y-42067016D01*
X53390167Y-42067548D01*
X53392060Y-42074613D01*
X53391597Y-42074737D01*
X53399499Y-42114465D01*
X53399499Y-45388533D01*
X53391596Y-45428266D01*
X53392058Y-45428390D01*
X53390171Y-45435432D01*
X53390062Y-45435981D01*
X53389955Y-45436238D01*
X53369318Y-45592998D01*
X53369318Y-45593000D01*
X53389955Y-45749759D01*
X53389955Y-45749760D01*
X53389956Y-45749762D01*
X53390061Y-45750016D01*
X53390167Y-45750548D01*
X53392060Y-45757613D01*
X53391597Y-45757737D01*
X53399499Y-45797465D01*
X53399498Y-49198533D01*
X53391597Y-49238266D01*
X53392058Y-49238390D01*
X53390177Y-49245409D01*
X53390066Y-49245969D01*
X53389956Y-49246233D01*
X53389955Y-49246237D01*
X53369318Y-49402998D01*
X53369318Y-49403001D01*
X53389955Y-49559760D01*
X53389956Y-49559762D01*
X53433904Y-49665863D01*
X53450464Y-49705841D01*
X53546718Y-49831282D01*
X53672159Y-49927536D01*
X53818238Y-49988044D01*
X53861508Y-49993740D01*
X53925403Y-50022004D01*
X53933005Y-50028998D01*
X54282225Y-50378219D01*
X54315710Y-50439542D01*
X54310726Y-50509234D01*
X54268854Y-50565167D01*
X54203390Y-50589584D01*
X54194544Y-50589900D01*
X51842654Y-50589900D01*
X51775615Y-50570215D01*
X51754973Y-50553581D01*
X50806402Y-49605009D01*
X50772917Y-49543686D01*
X50771144Y-49533513D01*
X50770681Y-49529998D01*
X50750044Y-49373238D01*
X50750043Y-49373235D01*
X50750043Y-49373234D01*
X50749937Y-49372978D01*
X50749828Y-49372431D01*
X50747940Y-49365383D01*
X50748401Y-49365259D01*
X50740500Y-49325530D01*
X50740500Y-46164025D01*
X50760185Y-46096986D01*
X50766114Y-46088551D01*
X50816536Y-46022841D01*
X50877044Y-45876762D01*
X50893661Y-45750545D01*
X50897682Y-45720001D01*
X50897682Y-45719998D01*
X50877044Y-45563239D01*
X50877044Y-45563238D01*
X50816536Y-45417159D01*
X50816535Y-45417158D01*
X50816535Y-45417157D01*
X50766124Y-45351460D01*
X50740930Y-45286291D01*
X50740500Y-45275974D01*
X50740500Y-42241467D01*
X50748403Y-42201737D01*
X50747940Y-42201613D01*
X50749833Y-42194545D01*
X50749939Y-42194015D01*
X50750044Y-42193762D01*
X50769976Y-42042366D01*
X50770682Y-42037001D01*
X50770682Y-42036998D01*
X50753953Y-41909932D01*
X50750044Y-41880238D01*
X50750043Y-41880235D01*
X50749937Y-41879978D01*
X50749828Y-41879431D01*
X50747940Y-41872383D01*
X50748401Y-41872259D01*
X50740500Y-41832530D01*
X50740500Y-38671025D01*
X50760185Y-38603986D01*
X50766114Y-38595551D01*
X50816536Y-38529841D01*
X50877044Y-38383762D01*
X50893661Y-38257545D01*
X50897682Y-38227001D01*
X50897682Y-38226998D01*
X50883923Y-38122491D01*
X50877044Y-38070238D01*
X50816536Y-37924159D01*
X50816535Y-37924158D01*
X50816535Y-37924157D01*
X50766124Y-37858460D01*
X50740930Y-37793291D01*
X50740500Y-37782974D01*
X50740500Y-34621467D01*
X50748403Y-34581737D01*
X50747940Y-34581613D01*
X50749833Y-34574545D01*
X50749939Y-34574015D01*
X50750044Y-34573762D01*
X50770682Y-34417000D01*
X50750044Y-34260238D01*
X50750043Y-34260235D01*
X50749937Y-34259978D01*
X50749828Y-34259431D01*
X50747940Y-34252383D01*
X50748401Y-34252259D01*
X50740500Y-34212530D01*
X50740500Y-30557467D01*
X50748403Y-30517737D01*
X50747940Y-30517613D01*
X50749833Y-30510545D01*
X50749939Y-30510015D01*
X50750044Y-30509762D01*
X50766661Y-30383545D01*
X50770682Y-30353001D01*
X50770682Y-30352998D01*
X50757566Y-30253376D01*
X50750044Y-30196238D01*
X50750043Y-30196235D01*
X50749937Y-30195978D01*
X50749828Y-30195431D01*
X50747940Y-30188383D01*
X50748401Y-30188259D01*
X50740500Y-30148530D01*
X50740500Y-26874467D01*
X50748403Y-26834737D01*
X50747940Y-26834613D01*
X50749833Y-26827545D01*
X50749939Y-26827015D01*
X50750044Y-26826762D01*
X50770682Y-26670000D01*
X50750044Y-26513238D01*
X50750043Y-26513235D01*
X50749937Y-26512978D01*
X50749828Y-26512431D01*
X50747940Y-26505383D01*
X50748401Y-26505259D01*
X50740500Y-26465530D01*
X50740500Y-23064467D01*
X50748403Y-23024737D01*
X50747940Y-23024613D01*
X50749833Y-23017545D01*
X50749939Y-23017015D01*
X50750044Y-23016762D01*
X50770682Y-22860000D01*
X50750044Y-22703238D01*
X50689536Y-22557159D01*
X50593282Y-22431718D01*
X50467841Y-22335464D01*
X50321762Y-22274956D01*
X50321760Y-22274955D01*
X50165001Y-22254318D01*
X50164999Y-22254318D01*
X50008239Y-22274955D01*
X50008237Y-22274956D01*
X49862160Y-22335463D01*
X49736718Y-22431718D01*
X49640463Y-22557160D01*
X49579956Y-22703237D01*
X49579955Y-22703239D01*
X49559318Y-22859998D01*
X49559318Y-22860001D01*
X49579955Y-23016759D01*
X49579955Y-23016761D01*
X49579956Y-23016762D01*
X49580060Y-23017014D01*
X49580166Y-23017545D01*
X49582060Y-23024613D01*
X49581596Y-23024737D01*
X49589500Y-23064467D01*
X49589500Y-26465530D01*
X49581598Y-26505259D01*
X49582060Y-26505383D01*
X49580171Y-26512431D01*
X49580063Y-26512978D01*
X49579956Y-26513235D01*
X49559318Y-26669998D01*
X49559318Y-26670001D01*
X49579955Y-26826759D01*
X49579955Y-26826761D01*
X49579956Y-26826762D01*
X49580060Y-26827014D01*
X49580166Y-26827545D01*
X49582060Y-26834613D01*
X49581596Y-26834737D01*
X49589500Y-26874467D01*
X49589500Y-30148530D01*
X49581598Y-30188259D01*
X49582060Y-30188383D01*
X49580171Y-30195431D01*
X49580063Y-30195978D01*
X49579956Y-30196235D01*
X49559318Y-30352998D01*
X49559318Y-30353001D01*
X49579955Y-30509759D01*
X49579955Y-30509761D01*
X49579956Y-30509762D01*
X49580060Y-30510014D01*
X49580166Y-30510545D01*
X49582060Y-30517613D01*
X49581596Y-30517737D01*
X49589500Y-30557467D01*
X49589500Y-34212530D01*
X49581598Y-34252259D01*
X49582060Y-34252383D01*
X49580171Y-34259431D01*
X49580063Y-34259978D01*
X49579956Y-34260235D01*
X49559318Y-34416998D01*
X49559318Y-34417001D01*
X49579955Y-34573759D01*
X49579955Y-34573761D01*
X49579956Y-34573762D01*
X49580060Y-34574014D01*
X49580166Y-34574545D01*
X49582060Y-34581613D01*
X49581596Y-34581737D01*
X49589500Y-34621467D01*
X49589500Y-41832530D01*
X49581598Y-41872259D01*
X49582060Y-41872383D01*
X49580171Y-41879431D01*
X49580063Y-41879978D01*
X49579956Y-41880235D01*
X49559318Y-42036998D01*
X49559318Y-42037001D01*
X49579955Y-42193759D01*
X49579955Y-42193761D01*
X49579956Y-42193762D01*
X49580060Y-42194014D01*
X49580166Y-42194545D01*
X49582060Y-42201613D01*
X49581596Y-42201737D01*
X49589500Y-42241467D01*
X49589500Y-49325530D01*
X49581598Y-49365259D01*
X49582060Y-49365383D01*
X49580171Y-49372431D01*
X49580063Y-49372978D01*
X49579956Y-49373235D01*
X49559318Y-49529998D01*
X49559318Y-49530001D01*
X49579955Y-49686760D01*
X49579956Y-49686762D01*
X49639652Y-49830882D01*
X49640464Y-49832841D01*
X49736718Y-49958282D01*
X49862159Y-50054536D01*
X50008238Y-50115044D01*
X50165000Y-50135682D01*
X50165001Y-50135681D01*
X50168513Y-50136144D01*
X50232410Y-50164410D01*
X50240009Y-50171402D01*
X51272427Y-51203819D01*
X51305912Y-51265142D01*
X51300928Y-51334834D01*
X51259056Y-51390767D01*
X51193592Y-51415184D01*
X51184746Y-51415500D01*
X48985254Y-51415500D01*
X48918215Y-51395815D01*
X48897573Y-51379181D01*
X46996402Y-49478009D01*
X46962917Y-49416686D01*
X46961144Y-49406513D01*
X46960681Y-49402998D01*
X46940044Y-49246238D01*
X46940043Y-49246235D01*
X46940043Y-49246234D01*
X46939937Y-49245978D01*
X46939828Y-49245431D01*
X46937940Y-49238383D01*
X46938401Y-49238259D01*
X46930500Y-49198530D01*
X46930500Y-45797467D01*
X46938403Y-45757737D01*
X46937940Y-45757613D01*
X46939833Y-45750545D01*
X46939939Y-45750015D01*
X46940044Y-45749762D01*
X46960682Y-45593000D01*
X46940044Y-45436238D01*
X46939938Y-45435981D01*
X46939937Y-45435978D01*
X46939828Y-45435431D01*
X46937940Y-45428383D01*
X46938401Y-45428259D01*
X46930500Y-45388530D01*
X46930500Y-42114467D01*
X46938403Y-42074737D01*
X46937940Y-42074613D01*
X46939833Y-42067545D01*
X46939939Y-42067015D01*
X46940044Y-42066762D01*
X46960682Y-41910000D01*
X46959696Y-41902513D01*
X46951605Y-41841051D01*
X46940044Y-41753238D01*
X46939938Y-41752981D01*
X46939937Y-41752978D01*
X46939828Y-41752431D01*
X46937940Y-41745383D01*
X46938401Y-41745259D01*
X46930500Y-41705530D01*
X46930500Y-38304467D01*
X46938403Y-38264737D01*
X46937940Y-38264613D01*
X46939833Y-38257545D01*
X46939939Y-38257015D01*
X46940044Y-38256762D01*
X46960682Y-38100000D01*
X46940044Y-37943238D01*
X46939938Y-37942981D01*
X46939937Y-37942978D01*
X46939828Y-37942431D01*
X46937940Y-37935383D01*
X46938401Y-37935259D01*
X46930500Y-37895530D01*
X46930500Y-34494467D01*
X46938403Y-34454737D01*
X46937940Y-34454613D01*
X46939833Y-34447545D01*
X46939939Y-34447015D01*
X46940044Y-34446762D01*
X46960682Y-34290000D01*
X46940044Y-34133238D01*
X46940043Y-34133235D01*
X46939937Y-34132978D01*
X46939828Y-34132431D01*
X46937940Y-34125383D01*
X46938401Y-34125259D01*
X46930500Y-34085530D01*
X46930500Y-30430467D01*
X46938403Y-30390737D01*
X46937940Y-30390613D01*
X46939833Y-30383545D01*
X46939939Y-30383015D01*
X46940044Y-30382762D01*
X46960682Y-30226000D01*
X46940044Y-30069238D01*
X46939938Y-30068981D01*
X46939937Y-30068978D01*
X46939828Y-30068431D01*
X46937940Y-30061383D01*
X46938401Y-30061259D01*
X46930500Y-30021530D01*
X46930500Y-26747467D01*
X46938403Y-26707737D01*
X46937940Y-26707613D01*
X46939833Y-26700545D01*
X46939939Y-26700015D01*
X46940044Y-26699762D01*
X46960682Y-26543000D01*
X46940044Y-26386238D01*
X46939938Y-26385981D01*
X46939937Y-26385978D01*
X46939828Y-26385431D01*
X46937940Y-26378383D01*
X46938401Y-26378259D01*
X46930500Y-26338530D01*
X46930500Y-22937467D01*
X46938403Y-22897737D01*
X46937940Y-22897613D01*
X46939833Y-22890545D01*
X46939939Y-22890015D01*
X46940044Y-22889762D01*
X46960682Y-22733000D01*
X46940044Y-22576238D01*
X46879536Y-22430159D01*
X46783282Y-22304718D01*
X46657841Y-22208464D01*
X46511762Y-22147956D01*
X46511760Y-22147955D01*
X46355001Y-22127318D01*
X46354999Y-22127318D01*
X46198239Y-22147955D01*
X46198237Y-22147956D01*
X46052160Y-22208463D01*
X45926718Y-22304718D01*
X45830463Y-22430160D01*
X45769956Y-22576237D01*
X45769955Y-22576239D01*
X45749318Y-22732998D01*
X45749318Y-22733001D01*
X45769955Y-22889759D01*
X45769955Y-22889761D01*
X45769956Y-22889762D01*
X45770060Y-22890014D01*
X45770166Y-22890545D01*
X45772060Y-22897613D01*
X45771596Y-22897737D01*
X45779500Y-22937467D01*
X45779500Y-26338530D01*
X45771598Y-26378259D01*
X45772060Y-26378383D01*
X45770171Y-26385431D01*
X45770063Y-26385978D01*
X45769956Y-26386235D01*
X45749318Y-26542998D01*
X45749318Y-26543001D01*
X45769955Y-26699759D01*
X45769955Y-26699761D01*
X45769956Y-26699762D01*
X45770060Y-26700014D01*
X45770166Y-26700545D01*
X45772060Y-26707613D01*
X45771596Y-26707737D01*
X45779500Y-26747467D01*
X45779500Y-30021530D01*
X45771598Y-30061259D01*
X45772060Y-30061383D01*
X45770171Y-30068431D01*
X45770063Y-30068978D01*
X45769956Y-30069235D01*
X45749318Y-30225998D01*
X45749318Y-30226001D01*
X45769955Y-30382759D01*
X45769955Y-30382761D01*
X45769956Y-30382762D01*
X45770060Y-30383014D01*
X45770166Y-30383545D01*
X45772060Y-30390613D01*
X45771596Y-30390737D01*
X45779500Y-30430467D01*
X45779500Y-34085530D01*
X45771598Y-34125259D01*
X45772060Y-34125383D01*
X45770171Y-34132431D01*
X45770063Y-34132978D01*
X45769956Y-34133235D01*
X45749318Y-34289998D01*
X45749318Y-34290001D01*
X45769955Y-34446759D01*
X45769955Y-34446761D01*
X45769956Y-34446762D01*
X45770060Y-34447014D01*
X45770166Y-34447545D01*
X45772060Y-34454613D01*
X45771596Y-34454737D01*
X45779500Y-34494467D01*
X45779500Y-37895530D01*
X45771598Y-37935259D01*
X45772060Y-37935383D01*
X45770171Y-37942431D01*
X45770063Y-37942978D01*
X45769956Y-37943235D01*
X45749318Y-38099998D01*
X45749318Y-38100001D01*
X45769955Y-38256759D01*
X45769955Y-38256761D01*
X45769956Y-38256762D01*
X45770060Y-38257014D01*
X45770166Y-38257545D01*
X45772060Y-38264613D01*
X45771596Y-38264737D01*
X45779500Y-38304467D01*
X45779500Y-41705530D01*
X45771598Y-41745259D01*
X45772060Y-41745383D01*
X45770171Y-41752431D01*
X45770063Y-41752978D01*
X45769956Y-41753235D01*
X45749318Y-41909998D01*
X45749318Y-41910001D01*
X45769955Y-42066759D01*
X45769955Y-42066761D01*
X45769956Y-42066762D01*
X45770060Y-42067014D01*
X45770166Y-42067545D01*
X45772060Y-42074613D01*
X45771596Y-42074737D01*
X45779500Y-42114467D01*
X45779500Y-45388530D01*
X45771598Y-45428259D01*
X45772060Y-45428383D01*
X45770171Y-45435431D01*
X45770063Y-45435978D01*
X45769956Y-45436235D01*
X45749318Y-45592998D01*
X45749318Y-45593001D01*
X45769955Y-45749759D01*
X45769955Y-45749761D01*
X45769956Y-45749762D01*
X45770060Y-45750014D01*
X45770166Y-45750545D01*
X45772060Y-45757613D01*
X45771596Y-45757737D01*
X45779500Y-45797467D01*
X45779500Y-49198530D01*
X45771598Y-49238259D01*
X45772060Y-49238383D01*
X45770171Y-49245431D01*
X45770063Y-49245978D01*
X45769956Y-49246235D01*
X45749318Y-49402998D01*
X45749318Y-49403001D01*
X45769955Y-49559760D01*
X45769956Y-49559762D01*
X45813904Y-49665863D01*
X45830464Y-49705841D01*
X45926718Y-49831282D01*
X46052159Y-49927536D01*
X46198238Y-49988044D01*
X46355000Y-50008682D01*
X46355001Y-50008681D01*
X46358513Y-50009144D01*
X46422410Y-50037410D01*
X46430009Y-50044402D01*
X47375727Y-50990120D01*
X48189427Y-51803819D01*
X48222912Y-51865142D01*
X48217928Y-51934834D01*
X48176056Y-51990767D01*
X48110592Y-52015184D01*
X48101746Y-52015500D01*
X45775254Y-52015500D01*
X45708215Y-51995815D01*
X45687573Y-51979181D01*
X43186402Y-49478009D01*
X43152917Y-49416686D01*
X43151144Y-49406513D01*
X43150681Y-49402998D01*
X43130044Y-49246238D01*
X43130043Y-49246235D01*
X43130043Y-49246234D01*
X43129937Y-49245978D01*
X43129828Y-49245431D01*
X43127940Y-49238383D01*
X43128401Y-49238259D01*
X43120500Y-49198530D01*
X43120500Y-45797467D01*
X43128403Y-45757737D01*
X43127940Y-45757613D01*
X43129833Y-45750545D01*
X43129939Y-45750015D01*
X43130044Y-45749762D01*
X43150682Y-45593000D01*
X43130044Y-45436238D01*
X43129938Y-45435981D01*
X43129937Y-45435978D01*
X43129828Y-45435431D01*
X43127940Y-45428383D01*
X43128401Y-45428259D01*
X43120500Y-45388530D01*
X43120500Y-42114467D01*
X43128403Y-42074737D01*
X43127940Y-42074613D01*
X43129833Y-42067545D01*
X43129939Y-42067015D01*
X43130044Y-42066762D01*
X43150682Y-41910000D01*
X43149696Y-41902513D01*
X43141605Y-41841051D01*
X43130044Y-41753238D01*
X43129938Y-41752981D01*
X43129937Y-41752978D01*
X43129828Y-41752431D01*
X43127940Y-41745383D01*
X43128401Y-41745259D01*
X43120500Y-41705530D01*
X43120500Y-38304467D01*
X43128403Y-38264737D01*
X43127940Y-38264613D01*
X43129833Y-38257545D01*
X43129939Y-38257015D01*
X43130044Y-38256762D01*
X43150682Y-38100000D01*
X43130044Y-37943238D01*
X43129938Y-37942981D01*
X43129937Y-37942978D01*
X43129828Y-37942431D01*
X43127940Y-37935383D01*
X43128401Y-37935259D01*
X43120500Y-37895530D01*
X43120500Y-34494467D01*
X43128403Y-34454737D01*
X43127940Y-34454613D01*
X43129833Y-34447545D01*
X43129939Y-34447015D01*
X43130044Y-34446762D01*
X43150682Y-34290000D01*
X43130044Y-34133238D01*
X43130043Y-34133235D01*
X43129937Y-34132978D01*
X43129828Y-34132431D01*
X43127940Y-34125383D01*
X43128401Y-34125259D01*
X43120500Y-34085530D01*
X43120500Y-30430467D01*
X43128403Y-30390737D01*
X43127940Y-30390613D01*
X43129833Y-30383545D01*
X43129939Y-30383015D01*
X43130044Y-30382762D01*
X43150682Y-30226000D01*
X43130044Y-30069238D01*
X43129938Y-30068981D01*
X43129937Y-30068978D01*
X43129828Y-30068431D01*
X43127940Y-30061383D01*
X43128401Y-30061259D01*
X43120500Y-30021530D01*
X43120500Y-26747467D01*
X43128403Y-26707737D01*
X43127940Y-26707613D01*
X43129833Y-26700545D01*
X43129939Y-26700015D01*
X43130044Y-26699762D01*
X43150682Y-26543000D01*
X43130044Y-26386238D01*
X43129938Y-26385981D01*
X43129937Y-26385978D01*
X43129828Y-26385431D01*
X43127940Y-26378383D01*
X43128401Y-26378259D01*
X43120500Y-26338530D01*
X43120500Y-22937467D01*
X43128403Y-22897737D01*
X43127940Y-22897613D01*
X43129833Y-22890545D01*
X43129939Y-22890015D01*
X43130044Y-22889762D01*
X43150682Y-22733000D01*
X43130044Y-22576238D01*
X43069536Y-22430159D01*
X42973282Y-22304718D01*
X42847841Y-22208464D01*
X42701762Y-22147956D01*
X42701760Y-22147955D01*
X42545001Y-22127318D01*
X42544999Y-22127318D01*
X42388239Y-22147955D01*
X42388237Y-22147956D01*
X42242160Y-22208463D01*
X42116718Y-22304718D01*
X42020463Y-22430160D01*
X41959956Y-22576237D01*
X41959955Y-22576239D01*
X41939318Y-22732998D01*
X41939318Y-22733001D01*
X41959955Y-22889759D01*
X41959955Y-22889761D01*
X41959956Y-22889762D01*
X41960060Y-22890014D01*
X41960166Y-22890545D01*
X41962060Y-22897613D01*
X41961596Y-22897737D01*
X41969500Y-22937467D01*
X41969500Y-26338530D01*
X41961598Y-26378259D01*
X41962060Y-26378383D01*
X41960171Y-26385431D01*
X41960063Y-26385978D01*
X41959956Y-26386235D01*
X41939318Y-26542998D01*
X41939318Y-26543001D01*
X41959955Y-26699759D01*
X41959955Y-26699761D01*
X41959956Y-26699762D01*
X41960060Y-26700014D01*
X41960166Y-26700545D01*
X41962060Y-26707613D01*
X41961596Y-26707737D01*
X41969500Y-26747467D01*
X41969500Y-30021530D01*
X41961598Y-30061259D01*
X41962060Y-30061383D01*
X41960171Y-30068431D01*
X41960063Y-30068978D01*
X41959956Y-30069235D01*
X41939318Y-30225998D01*
X41939318Y-30226001D01*
X41959955Y-30382759D01*
X41959955Y-30382761D01*
X41959956Y-30382762D01*
X41960060Y-30383014D01*
X41960166Y-30383545D01*
X41962060Y-30390613D01*
X41961596Y-30390737D01*
X41969500Y-30430467D01*
X41969500Y-34085530D01*
X41961598Y-34125259D01*
X41962060Y-34125383D01*
X41960171Y-34132431D01*
X41960063Y-34132978D01*
X41959956Y-34133235D01*
X41939318Y-34289998D01*
X41939318Y-34290001D01*
X41959955Y-34446759D01*
X41959955Y-34446761D01*
X41959956Y-34446762D01*
X41960060Y-34447014D01*
X41960166Y-34447545D01*
X41962060Y-34454613D01*
X41961596Y-34454737D01*
X41969500Y-34494467D01*
X41969500Y-37895530D01*
X41961598Y-37935259D01*
X41962060Y-37935383D01*
X41960171Y-37942431D01*
X41960063Y-37942978D01*
X41959956Y-37943235D01*
X41939318Y-38099998D01*
X41939318Y-38100001D01*
X41959955Y-38256759D01*
X41959955Y-38256761D01*
X41959956Y-38256762D01*
X41960060Y-38257014D01*
X41960166Y-38257545D01*
X41962060Y-38264613D01*
X41961596Y-38264737D01*
X41969500Y-38304467D01*
X41969500Y-41705530D01*
X41961598Y-41745259D01*
X41962060Y-41745383D01*
X41960171Y-41752431D01*
X41960063Y-41752978D01*
X41959956Y-41753235D01*
X41939318Y-41909998D01*
X41939318Y-41910001D01*
X41959955Y-42066759D01*
X41959955Y-42066761D01*
X41959956Y-42066762D01*
X41960060Y-42067014D01*
X41960166Y-42067545D01*
X41962060Y-42074613D01*
X41961596Y-42074737D01*
X41969500Y-42114467D01*
X41969500Y-45388530D01*
X41961598Y-45428259D01*
X41962060Y-45428383D01*
X41960171Y-45435431D01*
X41960063Y-45435978D01*
X41959956Y-45436235D01*
X41939318Y-45592998D01*
X41939318Y-45593001D01*
X41959955Y-45749759D01*
X41959955Y-45749761D01*
X41959956Y-45749762D01*
X41960060Y-45750014D01*
X41960166Y-45750545D01*
X41962060Y-45757613D01*
X41961596Y-45757737D01*
X41969500Y-45797467D01*
X41969500Y-49198530D01*
X41961598Y-49238259D01*
X41962060Y-49238383D01*
X41960171Y-49245431D01*
X41960063Y-49245978D01*
X41959956Y-49246235D01*
X41939318Y-49402998D01*
X41939318Y-49403001D01*
X41959955Y-49559760D01*
X41959956Y-49559762D01*
X42003904Y-49665863D01*
X42020464Y-49705841D01*
X42116718Y-49831282D01*
X42242159Y-49927536D01*
X42388238Y-49988044D01*
X42545000Y-50008682D01*
X42545001Y-50008681D01*
X42548513Y-50009144D01*
X42612410Y-50037410D01*
X42620009Y-50044402D01*
X43849460Y-51273853D01*
X44979427Y-52403819D01*
X45012912Y-52465142D01*
X45007928Y-52534834D01*
X44966056Y-52590767D01*
X44900592Y-52615184D01*
X44891746Y-52615500D01*
X42438255Y-52615500D01*
X42371216Y-52595815D01*
X42350574Y-52579181D01*
X39249402Y-49478009D01*
X39215917Y-49416686D01*
X39214144Y-49406513D01*
X39213681Y-49402998D01*
X39193044Y-49246238D01*
X39193043Y-49246235D01*
X39193043Y-49246234D01*
X39192937Y-49245978D01*
X39192828Y-49245431D01*
X39190940Y-49238383D01*
X39191401Y-49238259D01*
X39183500Y-49198530D01*
X39183500Y-45797467D01*
X39191403Y-45757737D01*
X39190940Y-45757613D01*
X39192833Y-45750545D01*
X39192939Y-45750015D01*
X39193044Y-45749762D01*
X39213682Y-45593000D01*
X39193044Y-45436238D01*
X39192938Y-45435981D01*
X39192937Y-45435978D01*
X39192828Y-45435431D01*
X39190940Y-45428383D01*
X39191401Y-45428259D01*
X39183500Y-45388530D01*
X39183500Y-42114467D01*
X39191403Y-42074737D01*
X39190940Y-42074613D01*
X39192833Y-42067545D01*
X39192939Y-42067015D01*
X39193044Y-42066762D01*
X39213682Y-41910000D01*
X39212696Y-41902513D01*
X39204605Y-41841051D01*
X39193044Y-41753238D01*
X39192938Y-41752981D01*
X39192937Y-41752978D01*
X39192828Y-41752431D01*
X39190940Y-41745383D01*
X39191401Y-41745259D01*
X39183500Y-41705530D01*
X39183500Y-38304467D01*
X39191403Y-38264737D01*
X39190940Y-38264613D01*
X39192833Y-38257545D01*
X39192939Y-38257015D01*
X39193044Y-38256762D01*
X39213682Y-38100000D01*
X39193044Y-37943238D01*
X39192938Y-37942981D01*
X39192937Y-37942978D01*
X39192828Y-37942431D01*
X39190940Y-37935383D01*
X39191401Y-37935259D01*
X39183500Y-37895530D01*
X39183500Y-34494467D01*
X39191403Y-34454737D01*
X39190940Y-34454613D01*
X39192833Y-34447545D01*
X39192939Y-34447015D01*
X39193044Y-34446762D01*
X39213682Y-34290000D01*
X39193044Y-34133238D01*
X39193043Y-34133235D01*
X39192937Y-34132978D01*
X39192828Y-34132431D01*
X39190940Y-34125383D01*
X39191401Y-34125259D01*
X39183500Y-34085530D01*
X39183500Y-30430467D01*
X39191403Y-30390737D01*
X39190940Y-30390613D01*
X39192833Y-30383545D01*
X39192939Y-30383015D01*
X39193044Y-30382762D01*
X39213682Y-30226000D01*
X39193044Y-30069238D01*
X39192938Y-30068981D01*
X39192937Y-30068978D01*
X39192828Y-30068431D01*
X39190940Y-30061383D01*
X39191401Y-30061259D01*
X39183500Y-30021530D01*
X39183500Y-26747467D01*
X39191403Y-26707737D01*
X39190940Y-26707613D01*
X39192833Y-26700545D01*
X39192939Y-26700015D01*
X39193044Y-26699762D01*
X39213682Y-26543000D01*
X39193044Y-26386238D01*
X39192938Y-26385981D01*
X39192937Y-26385978D01*
X39192828Y-26385431D01*
X39190940Y-26378383D01*
X39191401Y-26378259D01*
X39183500Y-26338530D01*
X39183500Y-22937467D01*
X39191403Y-22897737D01*
X39190940Y-22897613D01*
X39192833Y-22890545D01*
X39192939Y-22890015D01*
X39193044Y-22889762D01*
X39213682Y-22733000D01*
X39193044Y-22576238D01*
X39132536Y-22430159D01*
X39036282Y-22304718D01*
X38910841Y-22208464D01*
X38764762Y-22147956D01*
X38764760Y-22147955D01*
X38608001Y-22127318D01*
X38607999Y-22127318D01*
X38451239Y-22147955D01*
X38451237Y-22147956D01*
X38305160Y-22208463D01*
X38179718Y-22304718D01*
X38083463Y-22430160D01*
X38022956Y-22576237D01*
X38022955Y-22576239D01*
X38002318Y-22732998D01*
X38002318Y-22733001D01*
X38022955Y-22889759D01*
X38022955Y-22889761D01*
X38022956Y-22889762D01*
X38023060Y-22890014D01*
X38023166Y-22890545D01*
X38025060Y-22897613D01*
X38024596Y-22897737D01*
X38032500Y-22937467D01*
X38032500Y-26338530D01*
X38024598Y-26378259D01*
X38025060Y-26378383D01*
X38023171Y-26385431D01*
X38023063Y-26385978D01*
X38022956Y-26386235D01*
X38002318Y-26542998D01*
X38002318Y-26543001D01*
X38022955Y-26699759D01*
X38022955Y-26699761D01*
X38022956Y-26699762D01*
X38023060Y-26700014D01*
X38023166Y-26700545D01*
X38025060Y-26707613D01*
X38024596Y-26707737D01*
X38032500Y-26747467D01*
X38032500Y-30021530D01*
X38024598Y-30061259D01*
X38025060Y-30061383D01*
X38023171Y-30068431D01*
X38023063Y-30068978D01*
X38022956Y-30069235D01*
X38002318Y-30225998D01*
X38002318Y-30226001D01*
X38022955Y-30382759D01*
X38022955Y-30382761D01*
X38022956Y-30382762D01*
X38023060Y-30383014D01*
X38023166Y-30383545D01*
X38025060Y-30390613D01*
X38024596Y-30390737D01*
X38032500Y-30430467D01*
X38032500Y-34085530D01*
X38024598Y-34125259D01*
X38025060Y-34125383D01*
X38023171Y-34132431D01*
X38023063Y-34132978D01*
X38022956Y-34133235D01*
X38002318Y-34289998D01*
X38002318Y-34290001D01*
X38022955Y-34446759D01*
X38022955Y-34446761D01*
X38022956Y-34446762D01*
X38023060Y-34447014D01*
X38023166Y-34447545D01*
X38025060Y-34454613D01*
X38024596Y-34454737D01*
X38032500Y-34494467D01*
X38032500Y-37895530D01*
X38024598Y-37935259D01*
X38025060Y-37935383D01*
X38023171Y-37942431D01*
X38023063Y-37942978D01*
X38022956Y-37943235D01*
X38002318Y-38099998D01*
X38002318Y-38100001D01*
X38022955Y-38256759D01*
X38022955Y-38256761D01*
X38022956Y-38256762D01*
X38023060Y-38257014D01*
X38023166Y-38257545D01*
X38025060Y-38264613D01*
X38024596Y-38264737D01*
X38032500Y-38304467D01*
X38032500Y-41705530D01*
X38024598Y-41745259D01*
X38025060Y-41745383D01*
X38023171Y-41752431D01*
X38023063Y-41752978D01*
X38022956Y-41753235D01*
X38002318Y-41909998D01*
X38002318Y-41910001D01*
X38022955Y-42066759D01*
X38022955Y-42066761D01*
X38022956Y-42066762D01*
X38023060Y-42067014D01*
X38023166Y-42067545D01*
X38025060Y-42074613D01*
X38024596Y-42074737D01*
X38032500Y-42114467D01*
X38032500Y-45388530D01*
X38024598Y-45428259D01*
X38025060Y-45428383D01*
X38023171Y-45435431D01*
X38023063Y-45435978D01*
X38022956Y-45436235D01*
X38002318Y-45592998D01*
X38002318Y-45593001D01*
X38022955Y-45749759D01*
X38022955Y-45749761D01*
X38022956Y-45749762D01*
X38023060Y-45750014D01*
X38023166Y-45750545D01*
X38025060Y-45757613D01*
X38024596Y-45757737D01*
X38032500Y-45797467D01*
X38032500Y-49198530D01*
X38024598Y-49238259D01*
X38025060Y-49238383D01*
X38023171Y-49245431D01*
X38023063Y-49245978D01*
X38022956Y-49246235D01*
X38002318Y-49402998D01*
X38002318Y-49403001D01*
X38022955Y-49559760D01*
X38022956Y-49559762D01*
X38066904Y-49665863D01*
X38083464Y-49705841D01*
X38179718Y-49831282D01*
X38305159Y-49927536D01*
X38451238Y-49988044D01*
X38608000Y-50008682D01*
X38608001Y-50008681D01*
X38611513Y-50009144D01*
X38675410Y-50037410D01*
X38683009Y-50044402D01*
X41642426Y-53003819D01*
X41675911Y-53065142D01*
X41670927Y-53134834D01*
X41629055Y-53190767D01*
X41563591Y-53215184D01*
X41554745Y-53215500D01*
X39228255Y-53215500D01*
X39161216Y-53195815D01*
X39140574Y-53179181D01*
X35566402Y-49605009D01*
X35532917Y-49543686D01*
X35531144Y-49533513D01*
X35530681Y-49529998D01*
X35510044Y-49373238D01*
X35510043Y-49373235D01*
X35510043Y-49373234D01*
X35509937Y-49372978D01*
X35509828Y-49372431D01*
X35507940Y-49365383D01*
X35508401Y-49365259D01*
X35500500Y-49325530D01*
X35500500Y-45924467D01*
X35508403Y-45884737D01*
X35507940Y-45884613D01*
X35509833Y-45877545D01*
X35509939Y-45877015D01*
X35510044Y-45876762D01*
X35530682Y-45720000D01*
X35510044Y-45563238D01*
X35510043Y-45563235D01*
X35509937Y-45562978D01*
X35509828Y-45562431D01*
X35507940Y-45555383D01*
X35508401Y-45555259D01*
X35500500Y-45515530D01*
X35500500Y-42241467D01*
X35508403Y-42201737D01*
X35507940Y-42201613D01*
X35509833Y-42194545D01*
X35509939Y-42194015D01*
X35510044Y-42193762D01*
X35529976Y-42042366D01*
X35530682Y-42037001D01*
X35530682Y-42036998D01*
X35513953Y-41909932D01*
X35510044Y-41880238D01*
X35510043Y-41880235D01*
X35509937Y-41879978D01*
X35509828Y-41879431D01*
X35507940Y-41872383D01*
X35508401Y-41872259D01*
X35500500Y-41832530D01*
X35500500Y-38431467D01*
X35508403Y-38391737D01*
X35507940Y-38391613D01*
X35509833Y-38384545D01*
X35509939Y-38384015D01*
X35510044Y-38383762D01*
X35530682Y-38227000D01*
X35510044Y-38070238D01*
X35510043Y-38070235D01*
X35509937Y-38069978D01*
X35509828Y-38069431D01*
X35507940Y-38062383D01*
X35508401Y-38062259D01*
X35500500Y-38022530D01*
X35500500Y-34621467D01*
X35508403Y-34581737D01*
X35507940Y-34581613D01*
X35509833Y-34574545D01*
X35509939Y-34574015D01*
X35510044Y-34573762D01*
X35530682Y-34417000D01*
X35510044Y-34260238D01*
X35510043Y-34260235D01*
X35509937Y-34259978D01*
X35509828Y-34259431D01*
X35507940Y-34252383D01*
X35508401Y-34252259D01*
X35500500Y-34212530D01*
X35500500Y-30557467D01*
X35508403Y-30517737D01*
X35507940Y-30517613D01*
X35509833Y-30510545D01*
X35509939Y-30510015D01*
X35510044Y-30509762D01*
X35526661Y-30383545D01*
X35530682Y-30353001D01*
X35530682Y-30352998D01*
X35517566Y-30253376D01*
X35510044Y-30196238D01*
X35510043Y-30196235D01*
X35509937Y-30195978D01*
X35509828Y-30195431D01*
X35507940Y-30188383D01*
X35508401Y-30188259D01*
X35500500Y-30148530D01*
X35500500Y-26874467D01*
X35508403Y-26834737D01*
X35507940Y-26834613D01*
X35509833Y-26827545D01*
X35509939Y-26827015D01*
X35510044Y-26826762D01*
X35530682Y-26670000D01*
X35510044Y-26513238D01*
X35510043Y-26513235D01*
X35509937Y-26512978D01*
X35509828Y-26512431D01*
X35507940Y-26505383D01*
X35508401Y-26505259D01*
X35500500Y-26465530D01*
X35500500Y-23064467D01*
X35508403Y-23024737D01*
X35507940Y-23024613D01*
X35509833Y-23017545D01*
X35509939Y-23017015D01*
X35510044Y-23016762D01*
X35530682Y-22860000D01*
X35510044Y-22703238D01*
X35449536Y-22557159D01*
X35353282Y-22431718D01*
X35227841Y-22335464D01*
X35081762Y-22274956D01*
X35081760Y-22274955D01*
X34925001Y-22254318D01*
X34924999Y-22254318D01*
X34768239Y-22274955D01*
X34768237Y-22274956D01*
X34622160Y-22335463D01*
X34496718Y-22431718D01*
X34400463Y-22557160D01*
X34339956Y-22703237D01*
X34339955Y-22703239D01*
X34319318Y-22859998D01*
X34319318Y-22860001D01*
X34339955Y-23016759D01*
X34339955Y-23016761D01*
X34339956Y-23016762D01*
X34340060Y-23017014D01*
X34340166Y-23017545D01*
X34342060Y-23024613D01*
X34341596Y-23024737D01*
X34349500Y-23064467D01*
X34349500Y-26465530D01*
X34341598Y-26505259D01*
X34342060Y-26505383D01*
X34340171Y-26512431D01*
X34340063Y-26512978D01*
X34339956Y-26513235D01*
X34319318Y-26669998D01*
X34319318Y-26670001D01*
X34339955Y-26826759D01*
X34339955Y-26826761D01*
X34339956Y-26826762D01*
X34340060Y-26827014D01*
X34340166Y-26827545D01*
X34342060Y-26834613D01*
X34341596Y-26834737D01*
X34349500Y-26874467D01*
X34349500Y-30148530D01*
X34341598Y-30188259D01*
X34342060Y-30188383D01*
X34340171Y-30195431D01*
X34340063Y-30195978D01*
X34339956Y-30196235D01*
X34319318Y-30352998D01*
X34319318Y-30353001D01*
X34339955Y-30509759D01*
X34339955Y-30509761D01*
X34339956Y-30509762D01*
X34340060Y-30510014D01*
X34340166Y-30510545D01*
X34342060Y-30517613D01*
X34341596Y-30517737D01*
X34349500Y-30557467D01*
X34349500Y-34212530D01*
X34341598Y-34252259D01*
X34342060Y-34252383D01*
X34340171Y-34259431D01*
X34340063Y-34259978D01*
X34339956Y-34260235D01*
X34319318Y-34416998D01*
X34319318Y-34417001D01*
X34339955Y-34573759D01*
X34339955Y-34573761D01*
X34339956Y-34573762D01*
X34340060Y-34574014D01*
X34340166Y-34574545D01*
X34342060Y-34581613D01*
X34341596Y-34581737D01*
X34349500Y-34621467D01*
X34349500Y-38022530D01*
X34341598Y-38062259D01*
X34342060Y-38062383D01*
X34340171Y-38069431D01*
X34340063Y-38069978D01*
X34339956Y-38070235D01*
X34319318Y-38226998D01*
X34319318Y-38227001D01*
X34339955Y-38383759D01*
X34339955Y-38383761D01*
X34339956Y-38383762D01*
X34340060Y-38384014D01*
X34340166Y-38384545D01*
X34342060Y-38391613D01*
X34341596Y-38391737D01*
X34349500Y-38431467D01*
X34349500Y-41832530D01*
X34341598Y-41872259D01*
X34342060Y-41872383D01*
X34340171Y-41879431D01*
X34340063Y-41879978D01*
X34339956Y-41880235D01*
X34319318Y-42036998D01*
X34319318Y-42037001D01*
X34339955Y-42193759D01*
X34339955Y-42193761D01*
X34339956Y-42193762D01*
X34340060Y-42194014D01*
X34340166Y-42194545D01*
X34342060Y-42201613D01*
X34341596Y-42201737D01*
X34349500Y-42241467D01*
X34349500Y-45515530D01*
X34341598Y-45555259D01*
X34342060Y-45555383D01*
X34340171Y-45562431D01*
X34340063Y-45562978D01*
X34339956Y-45563235D01*
X34319318Y-45719998D01*
X34319318Y-45720001D01*
X34339955Y-45876759D01*
X34339955Y-45876761D01*
X34339956Y-45876762D01*
X34340060Y-45877014D01*
X34340166Y-45877545D01*
X34342060Y-45884613D01*
X34341596Y-45884737D01*
X34349500Y-45924467D01*
X34349500Y-49325530D01*
X34341598Y-49365259D01*
X34342060Y-49365383D01*
X34340171Y-49372431D01*
X34340063Y-49372978D01*
X34339956Y-49373235D01*
X34319318Y-49529998D01*
X34319318Y-49530001D01*
X34339955Y-49686760D01*
X34339956Y-49686762D01*
X34399652Y-49830882D01*
X34400464Y-49832841D01*
X34496718Y-49958282D01*
X34622159Y-50054536D01*
X34768238Y-50115044D01*
X34925000Y-50135682D01*
X34925001Y-50135681D01*
X34928513Y-50136144D01*
X34992410Y-50164410D01*
X35000009Y-50171402D01*
X38432426Y-53603819D01*
X38465911Y-53665142D01*
X38460927Y-53734834D01*
X38419055Y-53790767D01*
X38353591Y-53815184D01*
X38344745Y-53815500D01*
X35764255Y-53815500D01*
X35697216Y-53795815D01*
X35676574Y-53779181D01*
X31629402Y-49732009D01*
X31595917Y-49670686D01*
X31594144Y-49660513D01*
X31593682Y-49657000D01*
X31573044Y-49500238D01*
X31572938Y-49499981D01*
X31572829Y-49499434D01*
X31570940Y-49492383D01*
X31571402Y-49492259D01*
X31563499Y-49452528D01*
X31563499Y-46051470D01*
X31571403Y-46011740D01*
X31570939Y-46011616D01*
X31572839Y-46004524D01*
X31572942Y-46004008D01*
X31573044Y-46003762D01*
X31593682Y-45847000D01*
X31573044Y-45690238D01*
X31572938Y-45689981D01*
X31572829Y-45689434D01*
X31570940Y-45682383D01*
X31571402Y-45682259D01*
X31563499Y-45642528D01*
X31563499Y-42368470D01*
X31571403Y-42328740D01*
X31570939Y-42328616D01*
X31572839Y-42321524D01*
X31572942Y-42321008D01*
X31573044Y-42320762D01*
X31593682Y-42164000D01*
X31590976Y-42143449D01*
X31584720Y-42095926D01*
X31573044Y-42007238D01*
X31572938Y-42006981D01*
X31572829Y-42006434D01*
X31570940Y-41999383D01*
X31571402Y-41999259D01*
X31563499Y-41959528D01*
X31563499Y-38558470D01*
X31571403Y-38518740D01*
X31570939Y-38518616D01*
X31572839Y-38511524D01*
X31572942Y-38511008D01*
X31573044Y-38510762D01*
X31593682Y-38354000D01*
X31573044Y-38197238D01*
X31572938Y-38196981D01*
X31572829Y-38196434D01*
X31570940Y-38189383D01*
X31571402Y-38189259D01*
X31563499Y-38149528D01*
X31563499Y-34748470D01*
X31571403Y-34708740D01*
X31570939Y-34708616D01*
X31572839Y-34701524D01*
X31572942Y-34701008D01*
X31573044Y-34700762D01*
X31593682Y-34544000D01*
X31573044Y-34387238D01*
X31572938Y-34386981D01*
X31572829Y-34386434D01*
X31570940Y-34379383D01*
X31571402Y-34379259D01*
X31563499Y-34339528D01*
X31563499Y-30684470D01*
X31571403Y-30644740D01*
X31570939Y-30644616D01*
X31572839Y-30637524D01*
X31572942Y-30637008D01*
X31573044Y-30636762D01*
X31593682Y-30480000D01*
X31573044Y-30323238D01*
X31572938Y-30322981D01*
X31572829Y-30322434D01*
X31570940Y-30315383D01*
X31571402Y-30315259D01*
X31563499Y-30275528D01*
X31563499Y-27001470D01*
X31571403Y-26961740D01*
X31570939Y-26961616D01*
X31572839Y-26954524D01*
X31572942Y-26954008D01*
X31573044Y-26953762D01*
X31592061Y-26809314D01*
X31593682Y-26797001D01*
X31593682Y-26796998D01*
X31587161Y-26747465D01*
X31573044Y-26640238D01*
X31572938Y-26639981D01*
X31572829Y-26639434D01*
X31570940Y-26632383D01*
X31571402Y-26632259D01*
X31563499Y-26592528D01*
X31563499Y-23191470D01*
X31571403Y-23151740D01*
X31570939Y-23151616D01*
X31572839Y-23144524D01*
X31572942Y-23144008D01*
X31573044Y-23143762D01*
X31593682Y-22987000D01*
X31573044Y-22830238D01*
X31512536Y-22684159D01*
X31416282Y-22558718D01*
X31290841Y-22462464D01*
X31212852Y-22430160D01*
X31144762Y-22401956D01*
X31144760Y-22401955D01*
X30988001Y-22381318D01*
X30987999Y-22381318D01*
X30831239Y-22401955D01*
X30831237Y-22401956D01*
X30685160Y-22462463D01*
X30559718Y-22558718D01*
X30463463Y-22684160D01*
X30402956Y-22830237D01*
X30402955Y-22830239D01*
X30382318Y-22986998D01*
X30382318Y-22987001D01*
X30402955Y-23143759D01*
X30402955Y-23143761D01*
X30402956Y-23143762D01*
X30403060Y-23144014D01*
X30403166Y-23144545D01*
X30405060Y-23151613D01*
X30404596Y-23151737D01*
X30412500Y-23191467D01*
X30412500Y-26592530D01*
X30404598Y-26632259D01*
X30405060Y-26632383D01*
X30403171Y-26639431D01*
X30403063Y-26639978D01*
X30402956Y-26640235D01*
X30382318Y-26796998D01*
X30382318Y-26797001D01*
X30402955Y-26953759D01*
X30402955Y-26953761D01*
X30402956Y-26953762D01*
X30403060Y-26954014D01*
X30403166Y-26954545D01*
X30405060Y-26961613D01*
X30404596Y-26961737D01*
X30412500Y-27001467D01*
X30412500Y-30275530D01*
X30404598Y-30315259D01*
X30405060Y-30315383D01*
X30403171Y-30322431D01*
X30403063Y-30322978D01*
X30402956Y-30323235D01*
X30382318Y-30479998D01*
X30382318Y-30480001D01*
X30402955Y-30636759D01*
X30402955Y-30636761D01*
X30402956Y-30636762D01*
X30403060Y-30637014D01*
X30403166Y-30637545D01*
X30405060Y-30644613D01*
X30404596Y-30644737D01*
X30412500Y-30684467D01*
X30412500Y-34339530D01*
X30404598Y-34379259D01*
X30405060Y-34379383D01*
X30403171Y-34386431D01*
X30403063Y-34386978D01*
X30402956Y-34387235D01*
X30382318Y-34543998D01*
X30382318Y-34544001D01*
X30402955Y-34700759D01*
X30402955Y-34700761D01*
X30402956Y-34700762D01*
X30403060Y-34701014D01*
X30403166Y-34701545D01*
X30405060Y-34708613D01*
X30404596Y-34708737D01*
X30412500Y-34748467D01*
X30412500Y-38149530D01*
X30404598Y-38189259D01*
X30405060Y-38189383D01*
X30403171Y-38196431D01*
X30403063Y-38196978D01*
X30402956Y-38197235D01*
X30382318Y-38353998D01*
X30382318Y-38354001D01*
X30402955Y-38510759D01*
X30402955Y-38510761D01*
X30402956Y-38510762D01*
X30403060Y-38511014D01*
X30403166Y-38511545D01*
X30405060Y-38518613D01*
X30404596Y-38518737D01*
X30412500Y-38558467D01*
X30412500Y-41959530D01*
X30404598Y-41999259D01*
X30405060Y-41999383D01*
X30403171Y-42006431D01*
X30403063Y-42006978D01*
X30402956Y-42007235D01*
X30382318Y-42163998D01*
X30382318Y-42164001D01*
X30402955Y-42320759D01*
X30402955Y-42320761D01*
X30402956Y-42320762D01*
X30403060Y-42321014D01*
X30403166Y-42321545D01*
X30405060Y-42328613D01*
X30404596Y-42328737D01*
X30412500Y-42368467D01*
X30412500Y-45642530D01*
X30404598Y-45682259D01*
X30405060Y-45682383D01*
X30403171Y-45689431D01*
X30403063Y-45689978D01*
X30402956Y-45690235D01*
X30382318Y-45846998D01*
X30382318Y-45847001D01*
X30402955Y-46003759D01*
X30402955Y-46003761D01*
X30402956Y-46003762D01*
X30403060Y-46004014D01*
X30403166Y-46004545D01*
X30405060Y-46011613D01*
X30404596Y-46011737D01*
X30412500Y-46051467D01*
X30412500Y-49452530D01*
X30404598Y-49492259D01*
X30405060Y-49492383D01*
X30403171Y-49499431D01*
X30403063Y-49499978D01*
X30402956Y-49500235D01*
X30382318Y-49656998D01*
X30382318Y-49657001D01*
X30402955Y-49813760D01*
X30402956Y-49813762D01*
X30463464Y-49959841D01*
X30559718Y-50085282D01*
X30685159Y-50181536D01*
X30831238Y-50242044D01*
X30988000Y-50262682D01*
X30988001Y-50262681D01*
X30991513Y-50263144D01*
X31055410Y-50291410D01*
X31063009Y-50298402D01*
X35067226Y-54302619D01*
X35100711Y-54363942D01*
X35095727Y-54433634D01*
X35053855Y-54489567D01*
X34988391Y-54513984D01*
X34979545Y-54514300D01*
X33034054Y-54514300D01*
X32967015Y-54494615D01*
X32946373Y-54477981D01*
X28073402Y-49605009D01*
X28039917Y-49543686D01*
X28038144Y-49533513D01*
X28037681Y-49529998D01*
X28017044Y-49373238D01*
X28017043Y-49373235D01*
X28017043Y-49373234D01*
X28016937Y-49372978D01*
X28016828Y-49372431D01*
X28014940Y-49365383D01*
X28015401Y-49365259D01*
X28007500Y-49325530D01*
X28007500Y-45924467D01*
X28015403Y-45884737D01*
X28014940Y-45884613D01*
X28016833Y-45877545D01*
X28016939Y-45877015D01*
X28017044Y-45876762D01*
X28037682Y-45720000D01*
X28017044Y-45563238D01*
X28017043Y-45563235D01*
X28016937Y-45562978D01*
X28016828Y-45562431D01*
X28014940Y-45555383D01*
X28015401Y-45555259D01*
X28007500Y-45515530D01*
X28007500Y-42241467D01*
X28015403Y-42201737D01*
X28014940Y-42201613D01*
X28016833Y-42194545D01*
X28016939Y-42194015D01*
X28017044Y-42193762D01*
X28036976Y-42042366D01*
X28037682Y-42037001D01*
X28037682Y-42036998D01*
X28020953Y-41909932D01*
X28017044Y-41880238D01*
X28017043Y-41880235D01*
X28016937Y-41879978D01*
X28016828Y-41879431D01*
X28014940Y-41872383D01*
X28015401Y-41872259D01*
X28007500Y-41832530D01*
X28007500Y-38431467D01*
X28015403Y-38391737D01*
X28014940Y-38391613D01*
X28016833Y-38384545D01*
X28016939Y-38384015D01*
X28017044Y-38383762D01*
X28037682Y-38227000D01*
X28017044Y-38070238D01*
X28017043Y-38070235D01*
X28016937Y-38069978D01*
X28016828Y-38069431D01*
X28014940Y-38062383D01*
X28015401Y-38062259D01*
X28007500Y-38022530D01*
X28007500Y-34621467D01*
X28015403Y-34581737D01*
X28014940Y-34581613D01*
X28016833Y-34574545D01*
X28016939Y-34574015D01*
X28017044Y-34573762D01*
X28037682Y-34417000D01*
X28017044Y-34260238D01*
X28017043Y-34260235D01*
X28016937Y-34259978D01*
X28016828Y-34259431D01*
X28014940Y-34252383D01*
X28015401Y-34252259D01*
X28007500Y-34212530D01*
X28007500Y-30557467D01*
X28015403Y-30517737D01*
X28014940Y-30517613D01*
X28016833Y-30510545D01*
X28016939Y-30510015D01*
X28017044Y-30509762D01*
X28033661Y-30383545D01*
X28037682Y-30353001D01*
X28037682Y-30352998D01*
X28024566Y-30253376D01*
X28017044Y-30196238D01*
X28017043Y-30196235D01*
X28016937Y-30195978D01*
X28016828Y-30195431D01*
X28014940Y-30188383D01*
X28015401Y-30188259D01*
X28007500Y-30148530D01*
X28007500Y-26874467D01*
X28015403Y-26834737D01*
X28014940Y-26834613D01*
X28016833Y-26827545D01*
X28016939Y-26827015D01*
X28017044Y-26826762D01*
X28037682Y-26670000D01*
X28017044Y-26513238D01*
X28017043Y-26513235D01*
X28016937Y-26512978D01*
X28016828Y-26512431D01*
X28014940Y-26505383D01*
X28015401Y-26505259D01*
X28007500Y-26465530D01*
X28007500Y-23064467D01*
X28015403Y-23024737D01*
X28014940Y-23024613D01*
X28016833Y-23017545D01*
X28016939Y-23017015D01*
X28017044Y-23016762D01*
X28037682Y-22860000D01*
X28017044Y-22703238D01*
X27956536Y-22557159D01*
X27860282Y-22431718D01*
X27734841Y-22335464D01*
X27588762Y-22274956D01*
X27588760Y-22274955D01*
X27432001Y-22254318D01*
X27431999Y-22254318D01*
X27275239Y-22274955D01*
X27275237Y-22274956D01*
X27129160Y-22335463D01*
X27003718Y-22431718D01*
X26907463Y-22557160D01*
X26846956Y-22703237D01*
X26846955Y-22703239D01*
X26826318Y-22859998D01*
X26826318Y-22860001D01*
X26846955Y-23016760D01*
X26846957Y-23016765D01*
X26847064Y-23017023D01*
X26847172Y-23017568D01*
X26849060Y-23024613D01*
X26848598Y-23024736D01*
X26856499Y-23064467D01*
X26856499Y-26465530D01*
X26848599Y-26505259D01*
X26849060Y-26505383D01*
X26847177Y-26512408D01*
X26847067Y-26512966D01*
X26846958Y-26513229D01*
X26846956Y-26513234D01*
X26826318Y-26669998D01*
X26826318Y-26670001D01*
X26846955Y-26826759D01*
X26846955Y-26826761D01*
X26846956Y-26826762D01*
X26847060Y-26827014D01*
X26847166Y-26827545D01*
X26849060Y-26834613D01*
X26848596Y-26834737D01*
X26856500Y-26874467D01*
X26856500Y-30148530D01*
X26848598Y-30188259D01*
X26849060Y-30188383D01*
X26847171Y-30195431D01*
X26847063Y-30195978D01*
X26846956Y-30196235D01*
X26826318Y-30352998D01*
X26826318Y-30353001D01*
X26846955Y-30509759D01*
X26846955Y-30509761D01*
X26846956Y-30509762D01*
X26847060Y-30510014D01*
X26847166Y-30510545D01*
X26849060Y-30517613D01*
X26848596Y-30517737D01*
X26856500Y-30557467D01*
X26856500Y-34212530D01*
X26848598Y-34252259D01*
X26849060Y-34252383D01*
X26847171Y-34259431D01*
X26847063Y-34259978D01*
X26846956Y-34260235D01*
X26826318Y-34416998D01*
X26826318Y-34417001D01*
X26846955Y-34573760D01*
X26846957Y-34573765D01*
X26847064Y-34574023D01*
X26847172Y-34574568D01*
X26849060Y-34581613D01*
X26848598Y-34581736D01*
X26856499Y-34621467D01*
X26856499Y-38022530D01*
X26848599Y-38062259D01*
X26849060Y-38062383D01*
X26847177Y-38069408D01*
X26847067Y-38069966D01*
X26846958Y-38070229D01*
X26846956Y-38070234D01*
X26826318Y-38226998D01*
X26826318Y-38227001D01*
X26846955Y-38383760D01*
X26846957Y-38383765D01*
X26847064Y-38384023D01*
X26847172Y-38384568D01*
X26849060Y-38391613D01*
X26848598Y-38391736D01*
X26856499Y-38431467D01*
X26856499Y-41832530D01*
X26848599Y-41872259D01*
X26849060Y-41872383D01*
X26847177Y-41879408D01*
X26847067Y-41879966D01*
X26846958Y-41880229D01*
X26846956Y-41880234D01*
X26826318Y-42036998D01*
X26826318Y-42037001D01*
X26846955Y-42193759D01*
X26846955Y-42193761D01*
X26846956Y-42193762D01*
X26847060Y-42194014D01*
X26847166Y-42194545D01*
X26849060Y-42201613D01*
X26848596Y-42201737D01*
X26856500Y-42241467D01*
X26856500Y-45515530D01*
X26848598Y-45555259D01*
X26849060Y-45555383D01*
X26847171Y-45562431D01*
X26847063Y-45562978D01*
X26846956Y-45563235D01*
X26826318Y-45719998D01*
X26826318Y-45720001D01*
X26846955Y-45876760D01*
X26846957Y-45876765D01*
X26847064Y-45877023D01*
X26847172Y-45877568D01*
X26849060Y-45884613D01*
X26848598Y-45884736D01*
X26856499Y-45924467D01*
X26856499Y-49325530D01*
X26848599Y-49365259D01*
X26849060Y-49365383D01*
X26847177Y-49372408D01*
X26847067Y-49372966D01*
X26846958Y-49373229D01*
X26846956Y-49373234D01*
X26826318Y-49529998D01*
X26826318Y-49530001D01*
X23000500Y-49530001D01*
X23000500Y-20302212D01*
X23000658Y-20297788D01*
X23015130Y-20095436D01*
X23017646Y-20077938D01*
X23059356Y-19886199D01*
X23064333Y-19869248D01*
X23132911Y-19685385D01*
X23140259Y-19669298D01*
X23189539Y-19579048D01*
X23234291Y-19497089D01*
X23243845Y-19482221D01*
X23361448Y-19325123D01*
X23373020Y-19311769D01*
X23511769Y-19173020D01*
X23525123Y-19161448D01*
X23682221Y-19043845D01*
X23697089Y-19034291D01*
X23869298Y-18940258D01*
X23885385Y-18932911D01*
X24069248Y-18864333D01*
X24086199Y-18859356D01*
X24277938Y-18817646D01*
X24295436Y-18815130D01*
X24497791Y-18800657D01*
X24502214Y-18800500D01*
X110247786Y-18800500D01*
X110252208Y-18800657D01*
G37*
%TD.AperFunction*%
%TD*%
M02*
